<svg width="401" height="361" viewBox="0 0 401 361" xmlns="http://www.w3.org/2000/svg" xmlns:sketch="http://www.bohemiancoding.com/sketch/ns"><title>Imported Layers</title><desc>Created with Sketch.</desc><g sketch:type="MSLayerGroup" fill="none"><path d="M43.731 196.325c-8.155 7.402-18.661 11.692-27.34 18.473-8.679 6.78-15.744 17.843-12.602 28.399 2.573 8.644 11.108 14.072 19.508 17.355 8.4 3.284 17.505 5.331 24.701 10.768-1.113 4.216-4.976 6.991-8.058 10.077-3.082 3.086-5.641 7.849-3.488 11.642 1.527 2.691 4.997 3.777 8.066 3.382 3.068-.394 5.838-1.978 8.502-3.552 7.049-4.167 14.851-9.936 14.811-18.125-.038-7.854-7.293-13.489-13.825-17.85l-24.039-16.053c-2.379-1.588-5-3.57-5.216-6.423-.232-3.059 2.402-5.489 4.798-7.405 6.454-5.162 12.909-10.324 19.363-15.487l-5.181-15.201" fill="#DCAA71" sketch:type="MSShapeGroup"/><path d="M41.961 194.555c-12.493 11.137-30.542 15.86-38.463 31.764-3.439 6.905-4.125 14.858-.345 21.785 3.559 6.523 10.192 10.866 16.838 13.768 8.933 3.902 18.759 5.741 26.744 11.609l-1.15-2.827c-1.536 5.033-6.953 7.717-9.84 11.902-2.863 4.149-3.887 9.987.163 13.763 3.821 3.564 9.462 3.062 13.891 1.101 4.811-2.13 9.584-5.263 13.482-8.801 3.607-3.274 6.516-7.495 6.981-12.455.465-4.961-1.711-9.492-4.901-13.157-3.628-4.169-8.44-7.172-12.993-10.212l-17.407-11.624c-2.27-1.516-6.32-3.345-7.477-6.033-1.249-2.901 2.718-5.456 4.609-6.975 6.188-4.966 12.393-9.911 18.589-14.867 2.516-2.012-1.047-5.534-3.54-3.54-4.905 3.924-9.811 7.847-14.716 11.77-3.684 2.946-9.149 6.123-10.049 11.191-.872 4.914 3.104 8.122 6.741 10.563 5.242 3.518 10.5 7.011 15.75 10.517 4.556 3.042 9.386 5.887 13.566 9.448 3.437 2.929 6.862 6.713 6.894 11.499.032 4.71-3.281 8.471-6.711 11.308-3.637 3.008-8.502 6.464-13.119 7.63-2.232.563-5.253.473-6.697-1.632-1.692-2.464.243-5.765 1.85-7.728 3.435-4.198 8.09-6.86 9.761-12.337.351-1.148-.262-2.174-1.15-2.827-11.992-8.812-29.465-8.654-39.526-20.299-4.866-5.632-5.217-13.094-2.087-19.669 3.318-6.969 9.182-12.011 15.541-16.138 7.529-4.886 15.568-8.945 22.311-14.957 2.41-2.149-1.14-5.679-3.54-3.54" fill="#1B1A19" sketch:type="MSShapeGroup"/><path d="M44.405 199.046c-2.477 2.093-5.11 3.952-7.814 5.707l2.308 6.773-19.363 15.487c-2.396 1.916-5.03 4.346-4.798 7.405.216 2.853 2.837 4.835 5.216 6.423l24.039 16.053c6.532 4.362 13.787 9.996 13.825 17.85.04 8.189-7.762 13.958-14.811 18.125-.519.306-1.041.612-1.57.909.559.139 1.147.199 1.733.199.805 0 1.608-.114 2.328-.295 4.617-1.166 9.482-4.622 13.119-7.63 2.878-2.38 5.672-5.41 6.479-9.105l-2.507-9.442c-1.204-1.585-2.679-3.001-4.155-4.26-4.18-3.561-9.01-6.406-13.566-9.448-5.25-3.506-10.508-6.999-15.75-10.517-3.637-2.441-7.613-5.649-6.741-10.563.9-5.068 6.365-8.245 10.049-11.191 4.905-3.923 9.811-7.846 14.716-11.77l.09-.069-2.827-10.641" fill="#C47C46" sketch:type="MSShapeGroup"/><path d="M65.096 276.947c-.807 3.695-3.601 6.725-6.479 9.105-3.637 3.008-8.502 6.464-13.119 7.63-.72.181-1.523.295-2.328.295-.586 0-1.174-.06-1.733-.199-.93.524-1.878 1.021-2.85 1.445 1.363.856 3.045 1.277 4.702 1.277.413 0 .824-.027 1.229-.079 3.068-.394 5.838-1.978 8.502-3.552 5.068-2.996 10.526-6.82 13.178-11.776l-1.102-4.146m-17.864-67.26l-.09.069c-4.905 3.924-9.811 7.847-14.716 11.77-3.684 2.946-9.149 6.123-10.049 11.191-.872 4.914 3.104 8.122 6.741 10.563 5.242 3.518 10.5 7.011 15.75 10.517 4.556 3.042 9.386 5.887 13.566 9.448 1.476 1.259 2.951 2.675 4.155 4.26l-1.363-5.131c-2.231-2.038-4.776-3.848-7.22-5.48l-24.039-16.053c-2.379-1.588-5-3.57-5.216-6.423-.232-3.059 2.402-5.489 4.798-7.405l18.38-14.701-.697-2.625m-3.54-13.327c-2.463 2.231-5.142 4.177-7.918 5.997l.817 2.396c2.704-1.755 5.337-3.614 7.814-5.707l-.713-2.686" fill="#19140E" sketch:type="MSShapeGroup"/><path d="M148.77 327.913c-16.407-3.582-34.341.63-47.438 11.142-4.467 3.585-8.658 9.709-5.709 14.62 2.45 4.082 8.145 4.387 12.903 4.215l31.515-1.143c7.29-.264 14.865-.601 21.313-4.014 6.447-3.412 11.379-10.869 9.449-17.904-2.102-7.662-12.878-11.251-19.155-6.38l-2.878-.536" fill="#DCAA71" sketch:type="MSShapeGroup"/><path d="M149.436 325.499c-13.256-2.79-27.126-1.023-39.276 4.978-5.776 2.852-11.835 6.705-15.479 12.142-3.366 5.022-3.641 11.942 1.924 15.535 5.337 3.447 12.853 2.205 18.815 1.989 8.353-.303 16.706-.597 25.059-.909 12.617-.47 29.558-2.86 32.843-17.761 1.358-6.161-1.128-12.248-6.585-15.476-4.957-2.931-11.603-3.175-16.352.291-2.577 1.881-.081 6.227 2.527 4.323 7.197-5.253 17.838 1.349 15.412 10.22-3.307 12.087-18.029 13.034-28.283 13.413-6.565.243-13.131.476-19.697.714-5.659.205-11.837 1.152-17.457.217-2.176-.362-4.605-1.227-5.462-3.472-.904-2.366.442-4.986 1.796-6.88 3.07-4.294 8.135-7.303 12.753-9.665 11.049-5.652 23.992-7.386 36.131-4.832 3.143.662 4.487-4.163 1.331-4.827" fill="#1B1A19" sketch:type="MSShapeGroup"/><path d="M204.127 328.413c16.407-3.582 34.341.631 47.438 11.142 4.467 3.586 8.658 9.709 5.709 14.621-2.45 4.082-8.145 4.387-12.903 4.214-10.505-.38-21.01-.761-31.515-1.142-7.29-.264-14.865-.602-21.313-4.014-6.447-3.413-11.379-10.87-9.449-17.904 2.102-7.663 12.878-11.251 19.155-6.38l2.878-.537" fill="#DCAA71" sketch:type="MSShapeGroup"/><path d="M204.792 330.827c10.683-2.248 21.891-1.159 32.005 2.935 5.026 2.034 10.135 4.876 14.152 8.554 3.115 2.852 7.707 9.315 2.265 12.349-4.375 2.439-11.003 1.144-15.737.972l-19.697-.714c-10.615-.385-25.128.445-31.568-9.918-2.73-4.394-2.948-10.201 1.492-13.543 3.608-2.717 8.608-3.032 12.281-.35 2.606 1.901 5.107-2.441 2.527-4.323-8.789-6.415-22.437-.123-23.299 10.659-.491 6.129 3.072 12.032 7.741 15.729 5.589 4.425 12.803 5.755 19.742 6.269 7.938.588 15.934.659 23.887.948 4.268.155 8.536.313 12.804.464 2.994.106 6.032.15 8.965-.569 5.915-1.45 9.729-6.811 7.929-12.876-1.867-6.294-7.661-10.64-13.003-13.925-13.011-8.001-28.903-10.627-43.817-7.489-3.151.664-1.817 5.491 1.331 4.828" fill="#1B1A19" sketch:type="MSShapeGroup"/><path d="M309.57 197.608c17.622 2.273 35.177-8.088 45.358-22.65 5.489-7.85 9.205-16.841 11.68-26.094 2.115-7.904 3.572-16.477 9.104-22.506 5.531-6.029 17.022-7.34 21.04-.212 3.318 5.888-.318 13.128-3.885 18.87-8.899 14.326-17.798 28.652-26.698 42.979-4.488 7.225-9.251 14.725-16.569 19.06-4.719 2.796-10.164 4.058-15.51 5.282-10.555 2.417-21.109 4.834-31.663 7.25l7.998-20.858-.855-1.121" fill="#DCAA71" sketch:type="MSShapeGroup"/><path d="M309.57 200.111c16.188 1.921 32.126-6.052 42.784-17.918 5.843-6.504 10.118-14.197 13.291-22.31 3.183-8.137 4.227-17.016 7.667-25.026 2.735-6.368 8.252-12.058 15.783-10.951 3.197.471 5.727 2.559 6.33 5.824.813 4.394-1.715 8.977-3.866 12.617-5.237 8.864-10.863 17.52-16.296 26.266-5.154 8.296-10.052 16.836-15.613 24.867-2.675 3.863-5.757 7.637-9.646 10.339-4.209 2.925-9.113 4.339-14.043 5.516-11.375 2.714-22.801 5.228-34.199 7.838l3.079 3.08 7.998-20.859c1.154-3.011-3.684-4.313-4.828-1.331l-7.998 20.859c-.725 1.892 1.388 3.466 3.08 3.079 10.835-2.481 21.676-4.941 32.507-7.444 9.277-2.143 17.439-5.31 23.838-12.651 6.395-7.338 11.107-16.213 16.222-24.446 5.932-9.551 11.865-19.102 17.798-28.653 4.276-6.883 10.335-16.398 5.148-24.431-3.873-5.999-11.929-6.663-18.08-4.193-7.746 3.109-11.524 10.753-13.783 18.339-2.735 9.186-4.638 18.367-9.059 26.975-9.101 17.722-27.28 32.079-48.114 29.608-3.192-.379-3.165 4.63 0 5.006" fill="#1B1A19" sketch:type="MSShapeGroup"/><path d="M309.646 207.72l-.942 2.457-1.454 5.746.461-.104 2.714-7.077-.779-1.022m77.58-83.952c-6.575 0-11.41 5.26-13.914 11.089-3.44 8.01-4.484 16.889-7.667 25.026-3.173 8.113-7.448 15.806-13.291 22.31-9.591 10.678-23.457 18.203-37.934 18.203-.648 0-1.298-.015-1.948-.045l-2.793 7.284c1.599.201 3.199.299 4.792.299 15.917 0 31.222-9.753 40.457-22.963 5.489-7.85 9.205-16.841 11.68-26.094 2.115-7.904 3.572-16.477 9.104-22.506 2.924-3.187 7.515-5.056 11.786-5.056 2.958 0 5.762.896 7.755 2.871.341-1.478.446-2.978.172-4.456-.603-3.265-3.133-5.353-6.33-5.824-.638-.093-1.26-.138-1.869-.138" fill="#C47C46" sketch:type="MSShapeGroup"/><path d="M307.711 215.819l-.461.104-.688 2.717.074-.016 1.075-2.805m79.787-94.517c-4.271 0-8.862 1.869-11.786 5.056-5.532 6.029-6.989 14.602-9.104 22.506-2.475 9.253-6.191 18.244-11.68 26.094-9.235 13.209-24.541 22.963-40.457 22.963-.879 0-1.76-.03-2.642-.09l-3.125 12.346.942-2.457-.076-.099.109.014 2.793-7.284c.65.03 1.3.045 1.948.045 14.477 0 28.343-7.525 37.934-18.203 5.843-6.504 10.118-14.197 13.291-22.31 3.183-8.137 4.227-17.016 7.667-25.026 2.504-5.829 7.339-11.089 13.914-11.089.609 0 1.231.045 1.869.138 3.197.471 5.727 2.559 6.33 5.824.274 1.478.169 2.978-.172 4.456.571.567 1.076 1.224 1.499 1.973.105.186.203.374.294.563 1.245-3.617 1.549-7.305-.294-10.576-1.894-3.359-5.447-4.844-9.254-4.844" fill="#19140E" sketch:type="MSShapeGroup"/><path d="M256.461 90.614s9.573-34.227-20.281-40.013c-29.853-5.787-10.751-31.826-10.751-31.826s-102.041 14.466-103.378 56.552l.039 2.564c-12.096-4.283-24.004-7.119-34.87-5.591-30.864 4.339-16.874 52.077-16.874 52.077l-2.282.056c-37.266 1.847-28.096 49.129-28.096 49.129 66.176 110.438 274.213 5.793 274.213 5.793s19.771-40.16-17.19-43.255l-2.54-.15s30.98-35.683-10.49-46.897c-13.112-3.547-21.25-1.926-27.5 1.561l1.118-2.635-1.118 2.635" fill="#AE75A5" sketch:type="MSShapeGroup"/><path d="M231.81 132.533c-1.716-.833-2.053-1.014-3.711-1.964-1.822-1.046-3.513-2.26-4.885-3.873-.778-.915-1.402-1.923-1.792-3.061-.85-2.485-.264-5.034 1.751-6.777 2.005-1.735 4.966-2.079 7.383-.87.77.386 1.428.912 1.972 1.581l.106.118c.118-.482.277-.911.491-1.317.842-1.6 2.149-2.655 3.849-3.22 2.017-.671 3.936-.432 5.703.758 1.119.753 1.877 1.797 2.292 3.088.577 1.801.394 3.58-.152 5.345-.549 1.773-1.455 3.365-2.52 4.871-1.173 1.661-1.345 1.886-2.651 3.442l-7.836 1.879" fill="#4FB6DC" sketch:type="MSShapeGroup"/><path d="M231.81 134.036c-.22 0-.444-.049-.656-.152-1.785-.866-2.14-1.06-3.802-2.012-2.276-1.306-3.954-2.641-5.282-4.203-.962-1.132-1.639-2.292-2.069-3.548-1.075-3.142-.257-6.282 2.189-8.399 2.452-2.121 6.084-2.554 9.037-1.077.302.151.59.32.865.506 1.011-1.638 2.492-2.79 4.409-3.427 2.461-.818 4.888-.494 7.015.938 1.388.935 2.358 2.239 2.883 3.875.612 1.907.563 3.951-.147 6.248-.539 1.74-1.406 3.422-2.728 5.294-1.198 1.695-1.402 1.96-2.727 3.54-.533.635-1.481.72-2.116.186-.636-.533-.719-1.481-.186-2.116 1.277-1.522 1.421-1.71 2.576-3.344 1.135-1.606 1.869-3.019 2.311-4.448.53-1.712.58-3.124.157-4.442-.319-.992-.875-1.745-1.701-2.301-1.363-.918-2.799-1.108-4.39-.579-1.371.455-2.35 1.271-2.994 2.494-.157.297-.271.607-.361.974l-.674 2.758-1.941-2.153-.114-.13c-.412-.506-.895-.894-1.481-1.187-1.88-.94-4.183-.674-5.727.662-1.509 1.306-1.987 3.185-1.312 5.155.305.893.801 1.735 1.514 2.575 1.097 1.29 2.523 2.416 4.488 3.543 1.606.92 1.912 1.087 3.621 1.916.746.362 1.057 1.261.695 2.007-.26.535-.795.847-1.352.847" fill="#1B1A19" sketch:type="MSShapeGroup"/><path d="M238.447 176.922c.101-.485.246-.919.446-1.332.789-1.628 2.06-2.726 3.74-3.347 1.993-.738 3.919-.564 5.725.567 1.143.715 1.936 1.733 2.394 3.009.637 1.781.514 3.565.027 5.348-.489 1.789-1.342 3.411-2.355 4.952-1.492 2.269-3.196 4.381-4.868 6.516l-.8 1.018c-.077.102-.141.135-.269.078-2.733-1.22-5.494-2.38-8.141-3.782-1.856-.984-3.587-2.141-5.013-3.708-.807-.888-1.465-1.875-1.893-2.999-.933-2.455-.432-5.022 1.524-6.832 1.945-1.8 4.893-2.243 7.349-1.116.783.36 1.458.864 2.024 1.514l.11.114" fill="#4FB6DC" sketch:type="MSShapeGroup"/><path d="M242.596 195.26c-.238 0-.481-.05-.718-.155l-1.635-.725c-2.179-.962-4.433-1.956-6.6-3.104-2.317-1.228-4.04-2.506-5.42-4.024-1-1.098-1.715-2.236-2.187-3.476-1.18-3.105-.467-6.27 1.907-8.468 2.38-2.202 5.995-2.756 8.996-1.379.307.141.601.3.881.477.956-1.671 2.397-2.871 4.292-3.572 2.435-.9 4.869-.658 7.043.702 1.418.888 2.431 2.158 3.011 3.777.675 1.886.696 3.93.062 6.249-.48 1.756-1.29 3.466-2.549 5.382-1.333 2.026-2.835 3.937-4.287 5.785l-.946 1.203-.495.631c-.346.455-.837.697-1.355.697m-9.124-19.082c-1.282 0-2.542.459-3.488 1.335-1.464 1.355-1.88 3.249-1.14 5.196.335.882.859 1.706 1.601 2.521 1.14 1.254 2.603 2.331 4.604 3.391 2.072 1.098 4.276 2.07 6.407 3.011l.725.32.849-1.079c1.414-1.799 2.876-3.659 4.139-5.579 1.08-1.644 1.767-3.082 2.161-4.523.473-1.729.475-3.141.008-4.445-.352-.982-.933-1.715-1.777-2.243-1.393-.872-2.834-1.013-4.407-.432-1.355.501-2.306 1.35-2.909 2.593-.146.303-.25.616-.328.985l-.58 2.785-2.015-2.095-.11-.116c-.435-.5-.932-.871-1.526-1.144-.706-.324-1.463-.481-2.214-.481" fill="#1B1A19" sketch:type="MSShapeGroup"/><path d="M157.932 164.613c.36-.341.726-.615 1.126-.841 1.575-.889 3.245-1.068 4.98-.623 2.058.529 3.542 1.768 4.384 3.726.532 1.239.605 2.527.254 3.837-.489 1.827-1.607 3.223-3.022 4.411-1.421 1.193-3.045 2.041-4.755 2.731-2.519 1.016-5.122 1.782-7.712 2.586l-1.237.381c-.122.04-.193.031-.266-.089-1.552-2.559-3.161-5.084-4.539-7.744-.967-1.866-1.731-3.802-2.01-5.902-.159-1.19-.138-2.376.151-3.544.63-2.549 2.504-4.374 5.141-4.749 2.625-.372 5.3.942 6.678 3.267.439.741.707 1.54.802 2.396l.025.157" fill="#4FB6DC" sketch:type="MSShapeGroup"/><path d="M151.841 182.343c-.585 0-1.118-.297-1.442-.834l-.928-1.519c-1.244-2.032-2.532-4.134-3.66-6.312-1.206-2.328-1.894-4.359-2.165-6.393-.196-1.473-.137-2.815.182-4.103.797-3.224 3.185-5.421 6.388-5.876 3.209-.456 6.497 1.147 8.181 3.988.172.29.323.588.453.894 1.738-.83 3.605-.996 5.562-.494 2.513.646 4.377 2.232 5.39 4.587.66 1.537.77 3.158.325 4.819-.518 1.935-1.665 3.628-3.507 5.173-1.394 1.171-3.034 2.116-5.159 2.974-2.256.909-4.585 1.627-6.838 2.321l-1.457.448-.753.234c-.192.063-.385.093-.572.093m-.521-22.111c-.227 0-.455.016-.682.048-1.975.281-3.394 1.601-3.894 3.623-.227.916-.266 1.893-.121 2.985.224 1.679.813 3.398 1.855 5.409 1.079 2.082 2.338 4.137 3.555 6.124l.413.675 1.293-.398c2.193-.676 4.46-1.375 6.598-2.237 1.824-.736 3.206-1.527 4.352-2.488 1.372-1.152 2.178-2.312 2.536-3.65.27-1.007.21-1.941-.183-2.855-.649-1.51-1.754-2.447-3.378-2.864-1.398-.359-2.664-.204-3.868.476-.292.165-.556.363-.83.623l-2.062 1.955-.464-2.861-.027-.183c-.071-.638-.267-1.226-.601-1.789-.951-1.606-2.697-2.593-4.492-2.593" fill="#1B1A19" sketch:type="MSShapeGroup"/><path d="M77.813 165.008c.061-.492.169-.936.334-1.365.651-1.687 1.826-2.888 3.448-3.647 1.926-.901 3.859-.887 5.753.089 1.199.618 2.074 1.566 2.636 2.8.783 1.721.809 3.51.472 5.326-.339 1.825-1.054 3.511-1.935 5.131-1.299 2.386-2.82 4.633-4.309 6.899-.237.361-.48.717-.712 1.081-.069.108-.13.147-.263.1-2.824-.988-5.672-1.914-8.427-3.092-1.932-.825-3.752-1.834-5.303-3.277-.879-.818-1.617-1.747-2.136-2.832-1.134-2.368-.849-4.968.949-6.934 1.789-1.956 4.69-2.643 7.231-1.724.81.293 1.525.739 2.143 1.34l.119.105" fill="#4FB6DC" sketch:type="MSShapeGroup"/><path d="M83.334 182.943c-.195 0-.395-.033-.594-.103l-1.685-.585c-2.252-.776-4.58-1.58-6.835-2.543-2.411-1.031-4.234-2.162-5.736-3.559-1.088-1.012-1.895-2.086-2.468-3.283-1.434-2.995-.987-6.209 1.196-8.597 2.188-2.392 5.744-3.246 8.85-2.122.317.114.623.248.918.402.813-1.746 2.149-3.061 3.979-3.917 2.351-1.1 4.798-1.061 7.077.114 1.487.766 2.602 1.948 3.314 3.513.831 1.823 1.021 3.858.583 6.222-.332 1.79-.997 3.562-2.093 5.576-1.161 2.133-2.501 4.165-3.796 6.13l-.846 1.281-.432.658c-.336.525-.863.813-1.432.813m-10.094-18.282c-1.437 0-2.841.578-3.812 1.639-1.346 1.473-1.602 3.394-.703 5.273.408.851.998 1.63 1.805 2.38 1.24 1.154 2.788 2.106 4.87 2.996 2.157.922 4.433 1.707 6.635 2.467l.75.259.751-1.138c1.261-1.913 2.565-3.891 3.665-5.913.941-1.727 1.505-3.217 1.778-4.686.327-1.762.212-3.17-.362-4.431-.432-.948-1.073-1.631-1.957-2.087-1.461-.753-2.91-.774-4.428-.064-1.308.613-2.186 1.537-2.683 2.827-.121.313-.199.634-.245 1.009l-.347 2.818-2.178-1.911-.133-.12c-.465-.453-.991-.781-1.606-1.003-.585-.212-1.196-.315-1.8-.315" fill="#1B1A19" sketch:type="MSShapeGroup"/><path d="M73.993 182.138l-4.897 4.271c.813.975 1.64 1.926 2.481 2.857l6.598-5.756c-1.595-.409-2.98-.873-4.182-1.372m183.052-10.793l-5.199 3.201c.118.246.225.502.32.767.46 1.285.616 2.643.468 4.113l4.46-2.747 19.338 12.911c14.183-5.936 22.729-10.235 22.729-10.235l.275-.588-18.568 8.483-23.823-15.905m-55.934-5.787l-31.705 18.799-7.823-5.16-.122.05c-1.692.682-3.425 1.256-5.136 1.793l13.144 8.671 31.763-18.832 25.791 18.584c-1.311-2.212-1.718-4.527-1.742-6.489l-24.17-17.416m-60.213-.007l-28.6 18.806-19.291-18.806-.847.739c-.01.7-.086 1.43-.227 2.195-.259 1.393-.719 2.775-1.426 4.268l2.584-2.255 19.482 18.992 28.327-18.626 1.08.713c-.428-2.129-.45-3.934-.22-5.457l-.862-.569" fill="#864F8F" sketch:type="MSShapeGroup"/><path d="M249.265 176.135l-17.199 10.592c.841.658 1.822 1.279 2.983 1.894.478.253.962.499 1.451.74l12.562-7.736c.101-.285.191-.57.268-.854.473-1.729.475-3.141.008-4.445l-.073-.191" fill="#536DA6" sketch:type="MSShapeGroup"/><path d="M228.394 185.217c1.972 2.512 4.727 4.197 6.532 5.113l1.574-.969c-.489-.241-.973-.487-1.451-.74-1.161-.615-2.142-1.236-2.983-1.894l-.85.523-2.822-2.033m23.452-10.671l-2.581 1.589.073.191c.467 1.304.465 2.716-.008 4.445-.077.284-.167.569-.268.854l3.572-2.199c.148-1.47-.008-2.828-.468-4.113-.095-.265-.202-.521-.32-.767" fill="#150F14" sketch:type="MSShapeGroup"/><path d="M147.37 169.821c.288.784.656 1.602 1.108 2.476 1.015 1.958 2.188 3.892 3.337 5.767l1.266.836.658-.202c1.571-.485 3.18-.981 4.753-1.54l-11.122-7.337" fill="#536DA6" sketch:type="MSShapeGroup"/><path d="M158.492 177.158c-1.573.559-3.182 1.055-4.753 1.54l-.658.202 3.244 2.14c1.711-.537 3.444-1.111 5.136-1.793l.122-.05-3.091-2.039m-12.63-8.332c.429 2.295 1.097 4.563 1.745 6.463l4.208 2.775c-1.149-1.875-2.322-3.809-3.337-5.767-.452-.874-.82-1.692-1.108-2.476l-1.508-.995" fill="#150F14" sketch:type="MSShapeGroup"/><path d="M88.62 169.378l-10.091 8.802c1.171.43 2.349.836 3.506 1.236l.597.206.443-.386.461-.699c1.261-1.913 2.565-3.891 3.665-5.913.636-1.168 1.1-2.228 1.419-3.246" fill="#536DA6" sketch:type="MSShapeGroup"/><path d="M78.529 178.18l-.849.741c1.489.648 2.852 1.213 3.885 1.632l1.067-.931-.597-.206c-1.157-.4-2.335-.806-3.506-1.236m13.631-11.89l-3.54 3.088c-.319 1.018-.783 2.078-1.419 3.246-1.1 2.022-2.404 4-3.665 5.913l-.461.699 7.432-6.483c.707-1.493 1.167-2.875 1.426-4.268.141-.765.217-1.495.227-2.195" fill="#150F14" sketch:type="MSShapeGroup"/><path d="M238.528 104.128l1.118-2.635-1.118 2.635" fill="#AE84AF" sketch:type="MSShapeGroup"/><path d="M219.945 23.858l-.607.154c-2.007 1.486-5.675 2.988-12.374 3.616l-1.282.425c-2.726 8.081-2.626 19.038 15.479 22.548 25.549 4.952 20.087 40.634 17.981 50.82 2.143-1.525 4.124-3.29 6.148-5.093 1.218-1.084 2.451-2.184 3.742-3.251-1.723-1.965-2.874-3.768-3.624-5.672-.543-1.382-.808-2.699-.808-4.026 0-3.321 1.791-6.027 4.792-7.237.95-.384 1.958-.569 2.965-.569 1.104 0 2.207.223 3.233.653-.254-4.39-1.257-9.171-3.803-13.284-3.278-5.294-8.673-8.703-16.036-10.13-9.304-1.803-15.199-5.724-17.521-11.654-2.332-5.956-.444-12.57 1.715-17.3" fill="#D0B3CB" sketch:type="MSShapeGroup"/><path d="M303.853 164.444c-1.135 6.744-3.593 12.514-4.417 14.323l13.238-6.048c-.699-.364-1.392-.74-2.076-1.133-1.822-1.045-3.514-2.259-4.886-3.873-.777-.914-1.402-1.923-1.792-3.061l-.067-.208m.045-24.845c-.456.606-.971 1.217-1.553 1.847-.631.684-1.285 1.347-1.949 1.995.691.693 1.016 1.204 1.016 1.204l-.48.455c2.883 4.168 3.691 9.276 3.472 14.26.329-.538.751-1.038 1.268-1.485 1.206-1.043 2.758-1.581 4.33-1.581.636 0 1.275.088 1.896.266.394.113.782.259 1.156.446.771.385 1.428.911 1.972 1.58l.106.118c.118-.481.277-.91.491-1.317.132-.25.279-.482.434-.706.31-.451.665-.849 1.063-1.195-.235-2.815-.926-5.547-2.295-7.965-2.141-3.779-5.804-6.43-10.927-7.922m-31.586-50.258c-.022.091-.081.324-.196.663 21.579 7.15 20.287 21.801 15.574 32.645-11.127 1.674-26.104 4.736-41.757 8.238l-23.263 5.392-.004-.003c-21.885 5.218-42.026 10.388-51.599 12.877 3.017.277 6.097.405 9.225.405 17.659 0 36.9-4.054 55.659-8.006 14.539-3.063 29.441-6.202 43.529-7.406-.52-3.135.708-6.007 3.322-7.729 1.325-.874 2.878-1.309 4.439-1.309 1.628 0 3.265.474 4.662 1.418.279.189.543.393.791.614 1.216-1.493 2.834-2.441 4.817-2.823.559-.108 1.109-.161 1.646-.161l.349.008c2.796-5.519 4.995-12.434 3.106-18.618-2.015-6.593-8.488-11.411-19.239-14.319-2.307-.623-4.482-1.096-6.545-1.417l-.341.804s.081-.292.205-.825c-1.519-.233-2.977-.382-4.38-.448" fill="#D0B3CB" sketch:type="MSShapeGroup"/><path d="M312.674 172.719l-13.238 6.048-.275.588s-8.546 4.299-22.729 10.235l3.393 2.265c12.351-4.861 21.977-9.159 27.646-11.793l5.005-2.39c.361-.807.99-2.282 1.673-4.201-.494-.246-.986-.496-1.475-.752" fill="#B798BB" sketch:type="MSShapeGroup"/><path d="M276.692 89.789c-.124.533-.205.825-.205.825l.341-.804-.136-.021" fill="#98699F" sketch:type="MSShapeGroup"/><path d="M164.173 37.471c-20.942 8.606-39.295 20.952-39.869 37.876l.015.949c4.901 1.779 9.815 3.77 14.428 5.672.855.352 1.377 1.17 1.394 2.039.151.257.302.533.445.822l.068.011c.572 0 1.218-2.34 1.208-2.938l-.019-1.282c.393-12.393 9.561-23.339 22.291-32.373-.397-.015-.799-.038-1.204-.07 0 0 1.853-2.091 4.677-4.638-1.07-1.757-2.149-3.564-3.112-5.428l-.322-.64m33.574-10.747c-3.195.799-6.547 1.688-9.976 2.67.275.415.516.864.722 1.344.516 1.203.694 2.457.533 3.742 5.57-2.448 11.206-4.597 16.656-6.427l.113-.327c-.66.049-1.347.09-2.062.122-.749.034-1.418.05-2.013.05-3.174 0-4.235-.46-3.973-1.174" fill="#864F8F" sketch:type="MSShapeGroup"/><path d="M206.964 27.628c-.38.035-.77.068-1.169.098l-.113.327 1.282-.425m13.261-4.37c-.252.248-.545.5-.887.754l.607-.154.28-.6" fill="#98699F" sketch:type="MSShapeGroup"/><path d="M276.828 89.81l-.341.804.341-.804" fill="#98699F" sketch:type="MSShapeGroup"/><path d="M76.193 126.798c-.539.471-1.129.937-1.779 1.408-.536.386-1.079.761-1.628 1.125-2.172 2.637-5.193 5.53-7.995 5.53-.473 0-.94-.082-1.396-.262l-.137.051-.143-.074c-1.87-1.863-3.778-3.689-5.558-5.639-3.729 1.562-6.834 3.914-9.285 7.04-7.11 9.07-7.42 22.705-6.856 30.69l26.716 20.583.964-.841c-3.235-3.875-6.25-8.104-9.017-12.705-.057-.095-.097-.2-.116-.31-.264-1.466-2.066-12.311.052-23.428 1.165-6.111 6.595-10.463 12.814-10.463h.029c5.926.013 11.538.447 15.726 1.242 2.306.437 4.478.621 6.5.621 4.826 0 8.798-1.048 11.707-2.199l-.058-.266c-.121-.602-.179-1.195-.174-1.773-2.818-.853-5.119-2.18-7.498-3.553-4.931-2.844-10.437-6.019-22.868-6.777m17.31-52.675c-2.067 0-4.048.137-5.969.408-6.151.864-10.614 3.567-13.646 8.261-5.005 7.752-4.937 19.314-3.854 28.178.914-.341 1.9-.512 2.949-.512h.082c2.595.024 4.785 1.116 6.333 3.16 1.011 1.333 1.506 2.881 1.473 4.6-.029 1.481-.423 2.915-1.199 4.348 3.86.395 7.057 1.032 9.78 1.806.456-.127.75-.601.624-1.085-.865-3.33-3.297-13.786-2.795-24.398.358-7.578 6.625-13.169 13.746-13.17 1.314 0 2.656.191 3.996.594 14.166 4.261 23.036 5.792 28.469 5.792 9.13 0 8.552-4.325 7.094-7.276-.143-.289-.294-.565-.445-.822.006.3-.048.607-.17.903-.359.869-1.198 1.394-2.084 1.394-.286 0-.577-.054-.858-.17-4.703-1.94-9.717-3.97-14.682-5.759.206 1.938-.079 5.426-4.803 5.426-.86 0-1.868-.116-3.047-.378-7.824-1.738-15.421-6.836-15.5-10.998-1.903-.202-3.73-.302-5.494-.302" fill="#864F8F" sketch:type="MSShapeGroup"/><path d="M41.416 166.667c.184 2.599.46 4.598.625 5.648l26.002 20.034 3.534-3.083c-.841-.931-1.668-1.882-2.481-2.857l-.964.841-26.716-20.583" fill="#6F3B83" sketch:type="MSShapeGroup"/><path d="M144.904 226.444c-12.385 0-23.941-1.058-34.611-3.176-32.511-6.455-56.822-22.789-72.258-48.548l-.204-.34-.075-.389c-.05-.261-1.236-6.478-1.011-14.576.307-11.033 2.992-19.854 7.981-26.217 5.249-6.697 12.895-10.393 22.729-10.988-1.822-7.612-5.787-28.79 2.643-41.855 3.731-5.782 9.386-9.243 16.809-10.286 9.151-1.288 19.399.151 32.914 4.659.51-10.117 6.429-19.467 17.6-27.798 8.816-6.575 20.957-12.56 36.085-17.79 25.586-8.846 51.35-12.559 51.607-12.595l5.298-.751-3.165 4.314c-.08.109-8.054 11.174-4.816 19.418 1.726 4.392 6.496 7.374 14.179 8.863 8.657 1.678 15.057 5.784 19.022 12.203 5.515 8.929 4.873 20.028 3.925 26.121 7.006-2.587 15.078-2.516 24.993.165 12.354 3.341 19.882 9.183 22.376 17.364 1.971 6.468.728 14.052-3.695 22.543-1.511 2.9-3.134 5.39-4.446 7.231 9.648 1.126 16.362 4.922 19.967 11.295 3.305 5.842 3.862 13.551 1.655 22.915-1.602 6.797-4.099 11.91-4.204 12.124l-.334.678-.675.34c-.523.263-52.969 26.438-112.85 38.712-20.69 4.241-39.895 6.364-57.439 6.364m-102.791-53.687c14.765 24.417 37.997 39.924 69.057 46.091 25.193 5.003 55.563 3.932 90.268-3.182 55.567-11.39 104.644-34.854 111.032-37.979 1.564-3.492 8.254-19.755 2.355-30.166-3.023-5.335-9.077-8.422-17.995-9.173l-7.08-.419 3-3.456c.137-.158 13.777-16.113 9.862-28.927-2.015-6.593-8.488-11.411-19.239-14.319-10.894-2.945-18.855-2.528-25.814 1.354l-.003.002-5.736 3.2 2.504-5.901c.394-1.531 3.974-16.421-2.537-26.94-3.278-5.294-8.673-8.703-16.036-10.13-9.304-1.803-15.199-5.724-17.521-11.654-2.696-6.887.25-14.654 2.733-19.37-19.953 3.483-95.485 18.95-96.659 53.559l.089 5.749-3.055-1.081c-14.312-5.068-24.739-6.76-33.804-5.484-6.151.864-10.614 3.567-13.646 8.261-9.084 14.068-1.458 40.685-1.379 40.952l.822 2.813-5.184.127c-8.697.438-15.384 3.564-19.875 9.293-9.806 12.509-6.678 33.702-6.159 36.78" fill="#1B1A19" sketch:type="MSShapeGroup"/><path d="M222.822 128.49c-2.01.614-3.235 1.125-3.235 1.125.109.384.239.746.388 1.088.632-.244 2.002-.743 3.858-1.269-.358-.307-.694-.621-1.011-.944m21.007-.851l-.305.44-.409.577c.313.093.625.192.934.3l1.94-.45c-.705-.334-1.427-.622-2.16-.867" fill="#764B79" sketch:type="MSShapeGroup"/><path d="M235.657 126.42c-3.398 0-6.674.521-9.371 1.143.41.323.853.639 1.333.953 2.412-.486 5.182-.854 8.038-.855 1.406 0 2.832.09 4.248.298.237-.311.476-.642.809-1.11-1.68-.303-3.383-.429-5.057-.429" fill="#49668B" sketch:type="MSShapeGroup"/><path d="M226.286 127.563c-1.308.302-2.48.627-3.464.927.317.323.653.637 1.011.944 1.106-.313 2.386-.635 3.786-.918-.48-.314-.923-.63-1.333-.953m14.428-.714c-.333.468-.572.799-.809 1.11 1.081.158 2.156.387 3.21.697l.409-.577.305-.44c-1.021-.341-2.063-.6-3.115-.79" fill="#100D10" sketch:type="MSShapeGroup"/><path d="M222.67 135.152c-1.44-.953-2.526-2.343-3.083-4.295 0 0 15.285-6.38 26.402-1.11l-23.319 5.405" fill="#AE84AF" sketch:type="MSShapeGroup"/><path d="M222.67 136.279c-1.44-.954-2.526-2.344-3.083-4.296 0 0 15.285-6.38 26.402-1.109l-23.319 5.405" fill="#AE75A5" sketch:type="MSShapeGroup"/><path d="M76.469 310.989s102.455 43.398 204.399 0l33.313-131.634-33.313 15.906-23.823-15.906-25.829 15.906-30.105-21.692-31.705 18.799-28.508-18.806-28.6 18.806-19.291-18.806-24.875 21.699-28.164-21.699 36.501 137.427" fill="#CB9E6A" sketch:type="MSShapeGroup"/><path d="M113.149 138.072h-.011c-6.332-.029-10.094-2.199-14.077-4.497-5.644-3.255-12.041-6.945-28.715-6.945-1.244 0-2.253-1.008-2.253-2.253 0-1.244 1.009-2.253 2.253-2.253 17.881 0 25.136 4.185 30.966 7.548 3.749 2.163 6.71 3.871 11.847 3.895 1.245.005 2.249 1.019 2.243 2.263-.006 1.241-1.014 2.242-2.253 2.242" fill="#1B1A19" sketch:type="MSShapeGroup"/><path d="M180.306 154.065c-5.862.001-11.579-.43-17.09-1.432-1.225-.223-2.036-1.396-1.814-2.62.223-1.224 1.398-2.036 2.62-1.813 21.664 3.942 47.217-1.442 71.929-6.648 19.849-4.182 40.373-8.505 58.581-7.853 1.243.044 2.215 1.088 2.171 2.332-.045 1.243-1.093 2.217-2.332 2.171-17.663-.636-37.907 3.633-57.491 7.759-18.989 4.001-38.468 8.104-56.574 8.104" fill="#1B1A19" sketch:type="MSShapeGroup"/><path d="M56.971 192.34l28.56 107.529-5.659-34.023-13.123-65.985-.026.022-9.752-7.543" fill="#DFC199" sketch:type="MSShapeGroup"/><path d="M258.741 185.654l-2.272 1.368-9.451 125.821.062-.016 17.951-24.189-1.149-.181 14.098-89.346-19.239-13.457" fill="#DFC199" sketch:type="MSShapeGroup"/><path d="M226.645 110.581c-1.179 0-2.171-.917-2.246-2.11-.079-1.242.864-2.313 2.106-2.392 8.442-.536 13.466-5.013 18.785-9.751 3.044-2.712 6.191-5.515 10.073-7.681 1.087-.606 2.459-.217 3.065.87.606 1.086.217 2.458-.87 3.065-3.449 1.924-6.277 4.443-9.27 7.11-5.656 5.039-11.504 10.249-21.498 10.884l-.145.005" fill="#1B1A19" sketch:type="MSShapeGroup"/><path d="M137.887 86.304c-.286 0-.577-.054-.858-.17-5.022-2.071-10.398-4.246-15.691-6.119-1.172-.416-1.787-1.703-1.371-2.876.415-1.173 1.702-1.788 2.875-1.372 5.388 1.907 10.828 4.108 15.905 6.201 1.15.474 1.698 1.792 1.224 2.942-.359.869-1.198 1.394-2.084 1.394" fill="#1B1A19" sketch:type="MSShapeGroup"/><path d="M202.511 179.98l-1.544.96-2.737 139.875.344-.023 25.841-19.978 4.391-101.965-.359.221-25.936-19.09" fill="#DFC199" sketch:type="MSShapeGroup"/><path d="M143.118 180.014l-1.902 1.257 5.68 137.454 20.256-6.908v-115.843l-24.034-15.96" fill="#DFC199" sketch:type="MSShapeGroup"/><path d="M144.852 178.869l-1.734 1.145 24.034 15.96v-2.394l-22.3-14.711" fill="#F3E3CE" sketch:type="MSShapeGroup"/><path d="M56.025 188.777l.946 3.563 9.752 7.543.026-.022-.662-3.331-10.062-7.753" fill="#F3E3CE" sketch:type="MSShapeGroup"/><path d="M278.234 297.659l-1.364 5.39c.195-.035.392-.052.588-.052 1.015 0 2.025.445 2.824 1.125l.072-.285-2.12-6.178" fill="#EAD3B6" sketch:type="MSShapeGroup"/><path d="M260.676 184.489l-1.935 1.165 19.239 13.457.438-2.777-17.742-11.845" fill="#F3E3CE" sketch:type="MSShapeGroup"/><path d="M204.467 178.764l-1.956 1.216 25.936 19.09.359-.221.106-2.471-24.445-17.614" fill="#F3E3CE" sketch:type="MSShapeGroup"/><path d="M94.922 182.275l-.773.654 15.629 128.119 9.982-10.024-9.273-103.615-15.565-15.134" fill="#DFC199" sketch:type="MSShapeGroup"/><path d="M96.953 180.556l-2.031 1.719 15.565 15.134-.359-4.01-13.175-12.843" fill="#F3E3CE" sketch:type="MSShapeGroup"/><path d="M268.333 289.159l-4.451-.702 14.761-93.547 4.451.702-14.761 93.547" fill="#1B1A19" sketch:type="MSShapeGroup"/><path d="M83.567 284.425l-17.645-88.724 4.419-.88 17.645 88.725-4.419.879" fill="#1B1A19" sketch:type="MSShapeGroup"/><path d="M228.898 301.442l-4.502-.194 4.569-106.084 4.502.194-4.569 106.084" fill="#1B1A19" sketch:type="MSShapeGroup"/><path d="M119.807 301.546l-9.753-108.977 4.488-.402 9.753 108.977-4.488.402" fill="#1B1A19" sketch:type="MSShapeGroup"/><path d="M167.152 192.368h4.506v120.55h-4.506v-120.55z" fill="#1B1A19" sketch:type="MSShapeGroup"/><path d="M86.364 303.005l2.121 7.984s16.585 7.024 43.046 12.594c3.05.527 6.177 1.02 9.363 1.469 14.039 1.979 27.983 2.971 41.672 2.971 7.844 0 15.603-.326 23.252-.978 23.813-2.031 46.59-7.252 67.813-15.537l1.229-.519 2.01-7.94c-.213.038-.423.097-.631.18-9.494 3.785-19.24 6.986-29.159 9.598l-.067.091.005-.075-.005.075-.077-.053c-15.798 4.15-32.028 6.802-48.362 7.927l-.349.269.005-.246-.005.246-.593-.206c-5.678.371-11.364.556-17.051.556-19.102 0-38.175-2.096-56.7-6.338-12.815-2.935-25.421-6.902-37.517-12.068" fill="#B77645" sketch:type="MSShapeGroup"/><path d="M247.08 312.827l-.062.016-.005.075.067-.091" fill="#C58854" sketch:type="MSShapeGroup"/><path d="M198.574 320.792l-.344.023-.005.246.349-.269" fill="#C58854" sketch:type="MSShapeGroup"/><path d="M277.458 302.997c-.196 0-.393.017-.588.052l-2.01 7.94-1.229.519c1.788-.698 3.563-1.417 5.328-2.158l1.323-5.228c-.799-.68-1.809-1.125-2.824-1.125" fill="#CC935D" sketch:type="MSShapeGroup"/><path d="M173.531 91.886c0 7.692-6.235 13.928-13.928 13.928-7.692 0-13.928-6.236-13.928-13.928 0-7.693 6.236-13.929 13.928-13.929 7.693 0 13.928 6.236 13.928 13.929" fill="#fff" sketch:type="MSShapeGroup"/><path d="M159.603 108.067c-8.922 0-16.181-7.259-16.181-16.181 0-8.923 7.259-16.182 16.181-16.182 8.923 0 16.181 7.259 16.181 16.182 0 8.922-7.258 16.181-16.181 16.181zm0-27.857c-6.438 0-11.675 5.238-11.675 11.676 0 6.437 5.237 11.675 11.675 11.675 6.438 0 11.676-5.238 11.676-11.675 0-6.438-5.238-11.676-11.676-11.676z" fill="#1B1A19" sketch:type="MSShapeGroup"/><path d="M213.317 91.886c0 7.692-6.236 13.928-13.928 13.928-7.693 0-13.929-6.236-13.929-13.928 0-7.693 6.236-13.929 13.929-13.929 7.692 0 13.928 6.236 13.928 13.929" fill="#fff" sketch:type="MSShapeGroup"/><path d="M199.389 108.067c-8.923 0-16.182-7.259-16.182-16.181 0-8.923 7.259-16.182 16.182-16.182 8.922 0 16.181 7.259 16.181 16.182 0 8.922-7.259 16.181-16.181 16.181zm0-27.857c-6.438 0-11.676 5.238-11.676 11.676 0 6.437 5.238 11.675 11.676 11.675 6.437 0 11.675-5.238 11.675-11.675 0-6.438-5.238-11.676-11.675-11.676z" fill="#1B1A19" sketch:type="MSShapeGroup"/><path d="M170.907 95.395c0 4.095-3.32 7.415-7.415 7.415-4.096 0-7.416-3.32-7.416-7.415 0-4.096 3.32-7.416 7.416-7.416 4.095 0 7.415 3.32 7.415 7.416" fill="#1B1A19" sketch:type="MSShapeGroup"/><path d="M202.795 95.395c0 4.095-3.32 7.415-7.416 7.415-4.095 0-7.416-3.32-7.416-7.415 0-4.096 3.321-7.416 7.416-7.416 4.096 0 7.416 3.32 7.416 7.416" fill="#1B1A19" sketch:type="MSShapeGroup"/><path d="M215.8 77.489c-.412 0-.829-.113-1.202-.349l-17.415-11.014c-1.052-.666-1.365-2.057-.7-3.109s2.056-1.365 3.108-.7l17.415 11.015c1.052.665 1.365 2.056.7 3.108-.428.678-1.159 1.049-1.906 1.049" fill="#1B1A19" sketch:type="MSShapeGroup"/><path d="M144.773 77.489c-.747 0-1.477-.371-1.906-1.049-.665-1.052-.352-2.443.7-3.108l17.415-11.015c1.051-.665 2.443-.351 3.108.7.665 1.052.352 2.443-.7 3.109l-17.415 11.014c-.373.236-.79.349-1.202.349" fill="#1B1A19" sketch:type="MSShapeGroup"/><path d="M172.828 120.508s18.536.802 30.271-7.891c0 0-26.493 47.345-30.271 7.891" fill="#F8D7E0" sketch:type="MSShapeGroup"/><path d="M180.824 138.213c-.49 0-.97-.049-1.441-.148-4.729-.995-7.525-6.676-8.549-17.366-.055-.577.142-1.149.541-1.569.399-.421.963-.649 1.539-.622.24.009 17.999.644 28.993-7.5.759-.561 1.807-.517 2.515.106.709.624.886 1.658.424 2.481-.147.265-3.678 6.548-8.401 12.702-6.137 7.997-11.267 11.916-15.621 11.916zm-5.756-15.686c1.208 9.362 3.698 11.315 5.14 11.618 4.177.874 11.498-7.489 17.146-15.985-8.581 3.698-18.003 4.302-22.286 4.367z" fill="#1B1A19" sketch:type="MSShapeGroup"/><path d="M122.186 359.899l-6.766.244c-1.175.043-2.409.125-3.675.203l.16.001c3.434 0 6.862-.15 10.281-.448" fill="#DCAA71" sketch:type="MSShapeGroup"/><path d="M154.542 331.195c-.519.241-1.04.479-1.562.714-.542.244-1.092.474-1.632.722l-.106.049-.005.002c-2.288.913-4.575 1.813-6.903 2.618-4.665 1.612-9.432 2.928-14.272 3.898-1.097.219-2.197.421-3.301.605-.552.092-1.109.164-1.66.263l-.145.026-.18.021c-2.393.269-4.787.49-7.193.611-1.757.088-3.514.13-5.27.13-2.984 0-5.964-.121-8.942-.34-1.577 1.279-3.003 2.704-4.15 4.309-1.354 1.894-2.7 4.514-1.796 6.88.857 2.245 3.286 3.11 5.462 3.472 1.797.299 3.65.405 5.526.405 3.991 0 8.082-.482 11.931-.622 6.566-.238 13.132-.471 19.697-.714 3.811-.141 8.237-.36 12.467-1.2 3.617-1.343 7.18-2.838 10.692-4.44 2.372-1.871 4.197-4.384 5.124-7.773.944-3.453-.09-6.561-2.131-8.761-3.871-.216-7.755-.508-11.651-.875" fill="#C47C46" sketch:type="MSShapeGroup"/><path d="M101.594 340.397c-4.886 0-9.395 5.004-9.181 9.786.253 5.649 4.297 9.312 9.763 9.763 3.189.263 6.381.396 9.569.4 1.266-.078 2.5-.16 3.675-.203l6.766-.244c4.378-.381 8.738-1.007 13.067-1.874 5.888-1.179 11.636-2.896 17.255-4.981-4.23.84-8.656 1.059-12.467 1.2-6.565.243-13.131.476-19.697.714-3.849.14-7.94.622-11.931.622-1.876 0-3.729-.106-5.526-.405-2.176-.362-4.605-1.227-5.462-3.472-.904-2.366.442-4.986 1.796-6.88 1.147-1.605 2.573-3.03 4.15-4.309l-1.195-.093c-.195-.016-.389-.024-.582-.024m64.599-8.327c2.041 2.2 3.075 5.308 2.131 8.761-.927 3.389-2.752 5.902-5.124 7.773 1.112-.508 2.218-1.025 3.32-1.553 4.619-2.211 6.197-9.178 3.502-13.357-.349-.543-.729-1.038-1.135-1.486-.898-.042-1.796-.088-2.694-.138" fill="#19140E" sketch:type="MSShapeGroup"/><path d="M227.788 360.3c3.777.365 7.568.547 11.364.547.974 0 1.948-.012 2.922-.036-3.83-.137-7.66-.278-11.491-.417-.931-.034-1.863-.065-2.795-.094" fill="#DCAA71" sketch:type="MSShapeGroup"/><path d="M200.118 333.309l-.043-.019.043.019m-.115-.05l-.455-.195.455.195m-2.527-1.122c-3.624.192-7.271.314-10.936.365-3.21 3.416-2.793 8.535-.328 12.503 6.44 10.363 20.953 9.533 31.568 9.918l19.697.714c2.506.091 5.543.497 8.495.497 2.624 0 5.183-.321 7.242-1.469 5.442-3.034.85-9.497-2.265-12.349-.532-.487-1.083-.96-1.651-1.418l-.416.023c-3.376.279-6.76.434-10.144.434-1.612 0-3.223-.035-4.835-.109-2.406-.111-4.809-.306-7.202-.584l-.633-.081.305.048-.321-.05-.442-.065.12.017-1.018-.158c-1.243-.202-2.482-.427-3.716-.675-4.7-.941-9.33-2.211-13.866-3.759-2.326-.794-4.622-1.669-6.902-2.589l-.223-.091-1.518-.666-1.011-.456" fill="#C47C46" sketch:type="MSShapeGroup"/><path d="M186.54 332.502c-1.322.018-2.647.027-3.974.027h-.388c-.431.491-.815 1.045-1.142 1.666-2.303 4.358-1.416 11.002 3.502 13.357 9.985 4.78 20.387 8.795 31.267 10.974 3.971.795 7.97 1.387 11.983 1.774.932.029 1.864.06 2.795.094 3.831.139 7.661.28 11.491.417 2.27-.056 4.539-.177 6.808-.364 5.077-.419 10.013-4.191 9.763-9.763-.212-4.732-3.991-9.789-9.115-9.789l-.232.003c.568.458 1.119.931 1.651 1.418 3.115 2.852 7.707 9.315 2.265 12.349-2.059 1.148-4.618 1.469-7.242 1.469-2.952 0-5.989-.406-8.495-.497l-19.697-.714c-10.615-.385-25.128.445-31.568-9.918-2.465-3.968-2.882-9.087.328-12.503" fill="#19140E" sketch:type="MSShapeGroup"/><path d="M225.73 340.531l.322.048.016.002-.338-.05" fill="#C47C46" sketch:type="MSShapeGroup"/><path d="M178.094 121.302v5.118h9.87v-7.399l-9.87 2.281" fill="#fff" sketch:type="MSShapeGroup"/><path d="M187.964 128.172h-9.87c-.968 0-1.752-.784-1.752-1.752v-5.118c0-.816.563-1.524 1.357-1.708l9.87-2.281c.52-.12 1.067.004 1.485.336.418.333.662.838.662 1.372v7.399c0 .968-.785 1.752-1.752 1.752zm-8.118-3.504h6.365v-3.444l-6.365 1.471v1.973z" fill="#1B1A19" sketch:type="MSShapeGroup"/><path d="M93.955 181.334l.194 1.595.773-.654-.967-.941" fill="#C58854" sketch:type="MSShapeGroup"/><path d="M93.442 177.133l.513 4.201.967.941 2.031-1.719-3.511-3.423" fill="#D19B64" sketch:type="MSShapeGroup"/><path d="M68.638 197.809l-.326.284.746 1.827-.42-2.111" fill="#19140E" sketch:type="MSShapeGroup"/><path d="M44.782 182.911l31.896 120.088c.869-1.436 2.278-2.082 3.763-2.082.791 0 1.602.183 2.365.527 1.181.532 2.367 1.052 3.558 1.561l-.833-3.136.246 1.476-28.813-109.01-12.182-9.424" fill="#B77645" sketch:type="MSShapeGroup"/><path d="M56.964 192.335l28.813 109.01-.246-1.476-28.56-107.529-.007-.005" fill="#C58854" sketch:type="MSShapeGroup"/><path d="M43.848 179.396l.934 3.515 12.182 9.424-.94-3.559-12.176-9.38" fill="#CC935D" sketch:type="MSShapeGroup"/><path d="M56.024 188.776l.94 3.559.007.005-.946-3.563-.001-.001" fill="#D19B64" sketch:type="MSShapeGroup"/><path d="M78.342 309.263l.019.071c.404.164.833.335 1.288.512l-1.307-.583" fill="#B77645" sketch:type="MSShapeGroup"/><path d="M80.441 300.917c-1.485 0-2.894.646-3.763 2.082l1.664 6.264 1.307.583c9.131 3.562 28.297 9.663 51.882 13.737-26.461-5.57-43.046-12.594-43.046-12.594l-2.121-7.984c-1.191-.509-2.377-1.029-3.558-1.561-.763-.344-1.574-.527-2.365-.527" fill="#A85E39" sketch:type="MSShapeGroup"/><path d="M141.109 178.68l.107 2.591 1.902-1.257-2.009-1.334" fill="#C58854" sketch:type="MSShapeGroup"/><path d="M141.012 176.336l.097 2.344 2.009 1.334 1.734-1.145-3.84-2.533" fill="#D19B64" sketch:type="MSShapeGroup"/><path d="M201.008 178.873l-.041 2.067 1.544-.96-1.503-1.107" fill="#C58854" sketch:type="MSShapeGroup"/><path d="M201.058 176.307l-.05 2.566 1.503 1.107 1.956-1.216-3.409-2.457" fill="#D19B64" sketch:type="MSShapeGroup"/><path d="M256.68 184.212l-.211 2.81 2.272-1.368-2.061-1.442" fill="#C58854" sketch:type="MSShapeGroup"/><path d="M256.996 182.031l-.16.099-.156 2.082 2.061 1.442 1.935-1.165-3.68-2.458" fill="#D19B64" sketch:type="MSShapeGroup"/><path d="M296.755 190.172l-.002.001-.688 3.347.03-.013.66-3.335" fill="#B77645" sketch:type="MSShapeGroup"/><path d="M305.722 189.039l-9.627 4.468-19.608 99.062 1.747 5.09 27.488-108.62" fill="#DFC199" sketch:type="MSShapeGroup"/><path d="M309.896 187.102l-4.174 1.937-27.488 108.62 2.12 6.178 29.542-116.735" fill="#F3E3CE" sketch:type="MSShapeGroup"/><path d="M306.628 185.458l-9.873 4.714-.66 3.335 9.627-4.468.906-3.581" fill="#D0A47B" sketch:type="MSShapeGroup"/><path d="M310.819 183.457l-4.191 2.001-.906 3.581 4.174-1.937.923-3.645" fill="#DFBA90" sketch:type="MSShapeGroup"/><path d="M182.566 332.529c-13.947 0-28.144-1.013-42.442-3.035-30.571-4.324-55.58-12.638-64.533-16.431l-1.016-.43-38.488-144.905 31.956 24.621 25.048-21.851 19.482 18.992 28.327-18.626 28.569 18.847 31.763-18.832 30.082 21.676 25.78-15.876 23.96 15.997 36.488-17.423-34.764 137.371-1.027.438c-23.474 9.992-48.922 16.21-75.637 18.48-7.746.659-15.607.987-23.548.987m-104.205-23.195c9.571 3.888 33.486 11.623 62.533 15.718 22.085 3.113 43.929 3.783 64.924 1.993 25.819-2.202 50.418-8.154 73.141-17.695l31.86-125.893-30.136 14.389-23.687-15.815-25.879 15.936-30.126-21.708-31.649 18.765-28.446-18.765-28.874 18.986-19.1-18.62-24.702 21.548-24.372-18.777 34.513 129.938" fill="#1B1A19" sketch:type="MSShapeGroup"/><path d="M94.149 182.929l-22.402 18.961 16.239 81.656-.307.061 22.099 27.441-15.629-128.119" fill="#B77645" sketch:type="MSShapeGroup"/><path d="M69.058 199.92l15.995 80.427 2.626 3.26.307-.061-16.239-81.656-1.401 1.185-1.288-3.155" fill="#19140E" sketch:type="MSShapeGroup"/><path d="M90.914 178.377l-20.318 17.724 1.151 5.789 22.402-18.961-.194-1.595-3.041-2.957" fill="#A85E39" sketch:type="MSShapeGroup"/><path d="M92.922 176.625l-2.008 1.752 3.041 2.957-.513-4.201-.52-.508" fill="#B87040" sketch:type="MSShapeGroup"/><path d="M70.596 196.101l-1.958 1.708.42 2.111 1.288 3.155 1.401-1.185-1.151-5.789" fill="#160F06" sketch:type="MSShapeGroup"/><path d="M93.007 173.562l-24.875 21.699.506 2.548 24.284-21.184.52.508-.435-3.571" fill="#19140E" sketch:type="MSShapeGroup"/><path d="M141.216 181.271l-26.106 17.246 9.159 102.344 22.627 17.864-5.68-137.454" fill="#B77645" sketch:type="MSShapeGroup"/><path d="M112.619 194.853l-.093.061 9.31 104.025 2.433 1.922-9.159-102.344-.836.553-1.655-4.217" fill="#19140E" sketch:type="MSShapeGroup"/><path d="M139.171 177.393l-24.509 16.117.448 5.007 26.106-17.246-.107-2.591-1.938-1.287" fill="#A85E39" sketch:type="MSShapeGroup"/><path d="M140.896 176.259l-1.725 1.134 1.938 1.287-.097-2.344-.116-.077" fill="#B87040" sketch:type="MSShapeGroup"/><path d="M114.662 193.51l-2.043 1.343 1.655 4.217.836-.553-.448-5.007" fill="#160F06" sketch:type="MSShapeGroup"/><path d="M140.898 173.562l-28.6 18.806.228 2.546.093-.061 28.277-18.594.116.077-.114-2.774" fill="#19140E" sketch:type="MSShapeGroup"/><path d="M200.967 180.94l-29.309 18.231v112.66l25.974 9.024.598-.04 2.737-139.875" fill="#B77645" sketch:type="MSShapeGroup"/><path d="M171.658 199.171l-2.252 1.401v110.476l2.252.783v-112.66" fill="#19140E" sketch:type="MSShapeGroup"/><path d="M198.23 320.815l-.598.04.593.206.005-.246" fill="#A85E39" sketch:type="MSShapeGroup"/><path d="M199.033 177.42l-27.375 16.231v5.52l29.309-18.231.041-2.067-1.975-1.453" fill="#A85E39" sketch:type="MSShapeGroup"/><path d="M200.991 176.259l-1.958 1.161 1.975 1.453.05-2.566-.067-.048" fill="#B87040" sketch:type="MSShapeGroup"/><path d="M171.658 193.651l-2.252 1.336v5.585l2.252-1.401v-5.52" fill="#160F06" sketch:type="MSShapeGroup"/><path d="M201.111 173.569l-31.705 19.816v1.602l31.585-18.728.067.048.053-2.738" fill="#19140E" sketch:type="MSShapeGroup"/><path d="M256.469 187.022l-23.246 13.995-4.285 99.497 17.998 12.351.082-.022 9.451-125.821" fill="#B77645" sketch:type="MSShapeGroup"/><path d="M231.311 197.848l-.194.119-.017-.013-4.352 101.057 2.19 1.503 4.285-99.497-1.755 1.057-.157-4.226" fill="#19140E" sketch:type="MSShapeGroup"/><path d="M247.018 312.843l-.082.022.077.053.005-.075" fill="#A85E39" sketch:type="MSShapeGroup"/><path d="M255.17 183.156l-21.755 13.396-.192 4.465 23.246-13.995.211-2.81-1.51-1.056" fill="#A85E39" sketch:type="MSShapeGroup"/><path d="M256.836 182.13l-1.666 1.026 1.51 1.056.156-2.082" fill="#B87040" sketch:type="MSShapeGroup"/><path d="M233.415 196.552l-2.104 1.296.157 4.226 1.755-1.057.192-4.465" fill="#160F06" sketch:type="MSShapeGroup"/><path d="M257.045 179.355l-25.829 15.906-.116 2.693.017.013 25.719-15.837.209-2.775" fill="#19140E" sketch:type="MSShapeGroup"/><path d="M296.065 193.52l-13.64 6.33-14.092 89.309-1.429-.226 6.584 14.439 22.577-109.852" fill="#B77645" sketch:type="MSShapeGroup"/><path d="M280.475 197.707l-14.367 89.48.796 1.746 1.429.226 14.092-89.309-1.557.722v-2.815l-.185.089-.208-.139" fill="#19140E" sketch:type="MSShapeGroup"/><path d="M296.753 190.173l-13.844 6.61-.484 3.067 13.64-6.33.688-3.347" fill="#A85E39" sketch:type="MSShapeGroup"/><path d="M282.909 196.783l-2.041.974v2.815l1.557-.722.484-3.067" fill="#160F06" sketch:type="MSShapeGroup"/><path d="M296.796 189.964l-15.928 5.297-.393 2.446.208.139.185-.089 15.885-7.584.043-.209" fill="#19140E" sketch:type="MSShapeGroup"/><path d="M252.126 96.365c-1.291 1.058-2.549 2.179-3.838 3.327-4.609 4.106-9.346 8.326-16.349 10.091.633.118 1.357.192 2.175.192 3.888 0 9.892-1.687 18.315-8.482l.271-.513-.272.012s.44-1.252 1.334-2.998c-.543-.536-1.091-1.079-1.636-1.629" fill="#864F8F" sketch:type="MSShapeGroup"/><path d="M250.988 95.2c-5.558 3.011-12.914 7.232-22.49 13.128 0 0 1.099 1.02 3.441 1.455 7.003-1.765 11.74-5.985 16.349-10.091 1.289-1.148 2.547-2.269 3.838-3.327-.381-.385-.761-.772-1.138-1.165" fill="#150F14" sketch:type="MSShapeGroup"/><path d="M281.307 138.517c-10.796.82-22.192 2.871-33.568 5.183l-.726.152-.065.009c-3.364.688-6.726 1.396-10.068 2.1-18.989 4.001-38.468 8.104-56.574 8.104h-.007c-2.7 0-5.369-.091-8.002-.288 5.051 1.685 12.786 3.431 23.158 3.431 8.078 0 17.755-1.059 29.009-4.031 22.273-5.882 43.144-10.635 57.733-13.472-.32-.388-.616-.783-.89-1.188" fill="#864F8F" sketch:type="MSShapeGroup"/><path d="M246.948 143.861l-29.698 4.114-26.701 2.866-25.34-.155s2.376 1.519 7.088 3.091c2.633.197 5.302.288 8.002.288h.007c18.106 0 37.585-4.103 56.574-8.104 3.342-.704 6.704-1.412 10.068-2.1m33.402-6.996l-32.611 6.835c11.376-2.312 22.772-4.363 33.568-5.183l-.18-.271c-.298-.461-.556-.919-.777-1.381" fill="#150F14" sketch:type="MSShapeGroup"/><path d="M258.636 81.383c.267-.418.557-.772.891-1.087 1.315-1.241 2.894-1.816 4.685-1.8 2.125.019 3.863.866 5.15 2.564.814 1.075 1.194 2.308 1.168 3.664-.037 1.891-.786 3.515-1.875 5.008-1.093 1.499-2.466 2.712-3.961 3.792-2.201 1.591-4.544 2.96-6.866 4.362l-1.109.667c-.108.067-.18.076-.279-.023-2.121-2.112-4.289-4.177-6.266-6.428-1.386-1.579-2.592-3.276-3.368-5.247-.439-1.116-.704-2.273-.704-3.476 0-2.626 1.381-4.848 3.852-5.844 2.458-.992 5.371-.359 7.266 1.568.604.614 1.056 1.325 1.354 2.134l.062.146" fill="#4FB6DC" sketch:type="MSShapeGroup"/><path d="M256.578 100.106c-.435 0-.859-.174-1.199-.513l-1.261-1.248c-1.698-1.675-3.453-3.407-5.073-5.252-1.73-1.971-2.885-3.779-3.637-5.688-.543-1.382-.808-2.699-.808-4.026 0-3.321 1.791-6.027 4.792-7.237 3.006-1.213 6.583-.446 8.899 1.907.236.24.454.494.654.759 1.466-1.205 3.21-1.814 5.193-1.814h.088c2.594.023 4.784 1.115 6.333 3.159 1.011 1.334 1.506 2.882 1.472 4.6-.039 2.003-.746 3.921-2.162 5.864-1.072 1.47-2.437 2.781-4.295 4.124-1.972 1.425-4.061 2.682-6.083 3.896l-1.306.785-.674.407c-.297.185-.618.277-.933.277m-4.207-21.534c-.631 0-1.261.116-1.855.355-1.851.747-2.912 2.37-2.912 4.452 0 .944.196 1.901.6 2.926.62 1.577 1.605 3.104 3.099 4.806 1.549 1.764 3.265 3.458 4.925 5.096l.558.552 1.158-.696c1.967-1.183 4.001-2.405 5.87-3.756 1.595-1.153 2.747-2.252 3.628-3.46 1.055-1.448 1.559-2.767 1.586-4.152.02-1.042-.262-1.934-.864-2.728-.992-1.31-2.29-1.954-3.966-1.969-1.448-.016-2.635.442-3.64 1.39-.245.231-.453.486-.657.804l-1.532 2.393-1.138-2.666-.067-.163c-.225-.611-.557-1.134-1.015-1.6-1.012-1.029-2.396-1.584-3.778-1.584" fill="#1B1A19" sketch:type="MSShapeGroup"/><path d="M67.476 114.847c.267-.417.556-.771.891-1.087 1.315-1.241 2.893-1.816 4.684-1.8 2.126.019 3.864.866 5.15 2.565.815 1.075 1.195 2.308 1.168 3.663-.036 1.891-.786 3.516-1.874 5.009-1.093 1.499-2.467 2.711-3.961 3.792-2.202 1.59-4.544 2.96-6.866 4.361l-1.109.667c-.109.068-.181.076-.28-.023-2.121-2.111-4.289-4.176-6.265-6.428-1.386-1.579-2.593-3.275-3.368-5.246-.44-1.117-.704-2.274-.704-3.477 0-2.625 1.38-4.847 3.851-5.844 2.458-.992 5.371-.358 7.266 1.568.605.615 1.057 1.325 1.354 2.134l.063.146" fill="#4FB6DC" sketch:type="MSShapeGroup"/><path d="M65.417 133.57c-.435 0-.859-.174-1.199-.512l-1.264-1.252c-1.697-1.674-3.451-3.405-5.069-5.249-1.73-1.971-2.886-3.778-3.637-5.687-.544-1.382-.808-2.699-.808-4.026 0-3.322 1.791-6.027 4.791-7.238 3.007-1.212 6.582-.446 8.899 1.908.236.24.455.493.654.759 1.488-1.223 3.27-1.831 5.281-1.815 2.595.024 4.785 1.116 6.333 3.16 1.011 1.333 1.506 2.881 1.473 4.6-.039 2.003-.746 3.921-2.162 5.863-1.073 1.471-2.437 2.781-4.295 4.125-1.973 1.425-4.063 2.682-6.085 3.897l-1.303.783-.674.407c-.299.186-.619.277-.935.277m-4.206-21.534c-.631 0-1.262.116-1.856.356-1.85.747-2.911 2.369-2.911 4.452 0 .943.196 1.9.599 2.926.621 1.576 1.605 3.103 3.099 4.805 1.548 1.764 3.263 3.456 4.922 5.093l.562.555 1.156-.695c1.968-1.182 4.003-2.406 5.872-3.757 1.594-1.152 2.747-2.252 3.627-3.459 1.056-1.448 1.56-2.768 1.587-4.153.02-1.042-.263-1.934-.864-2.727-.992-1.31-2.29-1.955-3.966-1.97-1.435-.02-2.635.442-3.641 1.391-.244.23-.452.485-.656.804l-1.532 2.393-1.138-2.667-.067-.163c-.225-.61-.557-1.133-1.015-1.599-1.013-1.03-2.397-1.585-3.778-1.585" fill="#1B1A19" sketch:type="MSShapeGroup"/><path d="M120.096 134.167c.18-.462.393-.866.659-1.241 1.043-1.477 2.477-2.353 4.236-2.692 2.087-.401 3.958.085 5.555 1.495 1.011.893 1.628 2.026 1.87 3.36.338 1.861-.075 3.601-.846 5.28-.775 1.686-1.881 3.146-3.133 4.501-1.843 1.995-3.868 3.801-5.867 5.634l-.955.873c-.093.088-.162.111-.279.033-2.496-1.65-5.03-3.245-7.413-5.061-1.671-1.273-3.189-2.698-4.34-4.476-.651-1.008-1.14-2.09-1.378-3.269-.519-2.574.395-5.025 2.619-6.491 2.213-1.458 5.194-1.413 7.433.1.714.482 1.297 1.09 1.75 1.823l.089.131" fill="#4FB6DC" sketch:type="MSShapeGroup"/><path d="M121.462 152.959c-.325 0-.654-.097-.954-.296l-1.487-.976c-1.995-1.306-4.057-2.656-6.008-4.144-2.086-1.589-3.576-3.132-4.691-4.855-.807-1.247-1.326-2.486-1.589-3.787-.657-3.255.563-6.262 3.265-8.042 2.707-1.783 6.364-1.74 9.1.11.279.188.543.393.791.614 1.217-1.493 2.835-2.442 4.818-2.823 2.548-.491 4.911.146 6.833 1.843 1.254 1.107 2.046 2.526 2.354 4.218.358 1.971.044 3.991-.96 6.175-.76 1.655-1.838 3.209-3.394 4.893-1.649 1.786-3.448 3.43-5.187 5.019l-1.128 1.031-.581.532c-.343.324-.76.488-1.182.488m-7.025-20.411c-.983 0-1.957.273-2.786.819-1.666 1.098-2.385 2.899-1.973 4.94.186.925.568 1.825 1.166 2.75.921 1.423 2.188 2.725 3.989 4.097 1.866 1.423 3.883 2.743 5.833 4.019l.66.432 1.001-.914c1.693-1.547 3.443-3.147 5.007-4.84 1.334-1.445 2.246-2.75 2.871-4.109.748-1.628.981-3.021.733-4.384-.186-1.026-.639-1.844-1.386-2.503-1.232-1.088-2.632-1.463-4.277-1.146-1.419.273-2.496.955-3.294 2.084-.194.274-.348.566-.484.918l-1.029 2.651-1.643-2.392-.097-.146c-.342-.554-.771-1.001-1.312-1.367-.895-.605-1.942-.909-2.979-.909" fill="#1B1A19" sketch:type="MSShapeGroup"/><path d="M219.338 24.012c-3.904.994-8.074 2.204-12.374 3.616 6.699-.628 10.367-2.13 12.374-3.616" fill="#836185" sketch:type="MSShapeGroup"/><path d="M207.103 24.529c-2.906.638-6.05 1.369-9.356 2.195-.262.714.799 1.174 3.973 1.174.595 0 1.264-.016 2.013-.05.715-.032 1.402-.073 2.062-.122.397-1.136.848-2.212 1.308-3.197" fill="#62396F" sketch:type="MSShapeGroup"/><path d="M220.963 21.788c-3.298.575-8.112 1.478-13.86 2.741-.46.985-.911 2.061-1.308 3.197.399-.03.789-.063 1.169-.098 4.3-1.412 8.47-2.622 12.374-3.616.342-.254.635-.506.887-.754.247-.517.494-1.008.738-1.47" fill="#6C4576" sketch:type="MSShapeGroup"/><path d="M215.32 18.775s-16.669 5.485-17.573 7.949c3.306-.826 6.45-1.557 9.356-2.195 5.748-1.263 10.562-2.166 13.86-2.741-.244.462-.491.953-.738 1.47.863-.848 1.241-1.639 1.406-2.196.147-.499.124-.811.124-.811l-6.435-1.476" fill="#100D10" sketch:type="MSShapeGroup"/><path d="M321.617 153.805l-.135.001c.546 4.237.188 9.057-1.076 14.42-.65 2.76-1.448 5.241-2.174 7.231l.375.182.113.031c.061 0 .107-.035.16-.1l.833-.991.14-.167c1.698-2.021 3.418-4.024 4.943-6.183 1.064-1.506 1.971-3.098 2.519-4.87.547-1.765.73-3.544.152-5.345-.414-1.291-1.173-2.335-2.291-3.088-.549-.37-1.113-.636-1.689-.824-.61-.198-1.234-.297-1.87-.297" fill="#917791" sketch:type="MSShapeGroup"/><path d="M304.404 159.36c-.918 1.502-1.103 3.303-.551 5.084.277-1.651.476-3.36.551-5.084" fill="#764B79" sketch:type="MSShapeGroup"/><path d="M317.12 155.486c-.398.346-.753.744-1.063 1.195-.155.224-.302.456-.434.706-.214.407-.373.836-.491 1.317l-.106-.118c-.544-.669-1.201-1.195-1.972-1.58-.374-.187-.762-.333-1.156-.446-.621-.178-1.26-.266-1.896-.266-1.572 0-3.124.538-4.33 1.581-.517.447-.939.947-1.268 1.485-.075 1.724-.274 3.433-.551 5.084l.067.208c.39 1.138 1.015 2.147 1.792 3.061 1.372 1.614 3.064 2.828 4.886 3.873.684.393 1.377.769 2.076 1.133l2.05-.936c1.445-4.451 2.874-10.547 2.396-16.297" fill="#836185" sketch:type="MSShapeGroup"/><path d="M314.724 171.783l-2.05.936c.489.256.981.506 1.475.752.189-.53.382-1.094.575-1.688" fill="#795880" sketch:type="MSShapeGroup"/><path d="M321.482 153.806c-.657.015-1.327.135-2.009.361-.899.299-1.686.736-2.353 1.319.478 5.75-.951 11.846-2.396 16.297-.193.594-.386 1.158-.575 1.688 1.354.676 2.722 1.325 4.083 1.986.726-1.99 1.524-4.471 2.174-7.231 1.264-5.363 1.622-10.183 1.076-14.42" fill="#100D10" sketch:type="MSShapeGroup"/><path d="M215.809 5.942c.216-.447.461-.833.755-1.185 1.158-1.389 2.657-2.148 4.437-2.346 2.113-.234 3.939.4 5.419 1.933.937.97 1.461 2.149 1.596 3.498.19 1.882-.361 3.584-1.264 5.196-.907 1.619-2.126 2.986-3.481 4.237-1.996 1.842-4.159 3.48-6.297 5.149l-1.022.794c-.1.08-.17.097-.281.011-2.357-1.844-4.756-3.636-6.986-5.636-1.564-1.403-2.964-2.943-3.969-4.808-.57-1.056-.97-2.173-1.113-3.368-.313-2.607.793-4.977 3.127-6.261 2.323-1.278 5.29-.996 7.402.691.673.538 1.206 1.19 1.598 1.957l.079.138" fill="#4FB6DC" sketch:type="MSShapeGroup"/><path d="M215.802 24.788c-.368 0-.734-.125-1.055-.376l-1.408-1.095c-1.884-1.459-3.831-2.968-5.657-4.606-1.952-1.751-3.316-3.408-4.288-5.214-.705-1.307-1.125-2.583-1.283-3.901-.396-3.297 1.06-6.197 3.895-7.756 2.841-1.563 6.483-1.228 9.063.833.263.211.51.436.74.676 1.332-1.391 3.02-2.208 5.027-2.431 2.583-.285 4.884.538 6.665 2.382 1.161 1.204 1.838 2.681 2.01 4.392.2 1.994-.274 3.983-1.449 6.08-.889 1.588-2.088 3.052-3.773 4.607-1.786 1.648-3.71 3.144-5.57 4.59l-1.207.937-.621.485c-.331.264-.711.397-1.089.397zm-5.927-20.928c-.84 0-1.675.201-2.421.611-1.748.962-2.608 2.7-2.36 4.767.112.938.421 1.865.944 2.834.803 1.491 1.963 2.89 3.65 4.403 1.745 1.565 3.649 3.041 5.491 4.468l.626.486 1.07-.832c1.811-1.408 3.684-2.863 5.377-4.426 1.446-1.334 2.459-2.562 3.189-3.867.876-1.563 1.219-2.933 1.081-4.312-.104-1.037-.491-1.889-1.182-2.605-1.142-1.183-2.509-1.666-4.173-1.483-1.435.159-2.564.753-3.449 1.815-.215.257-.392.536-.556.876l-1.237 2.563-1.448-2.519-.083-.148c-.297-.583-.689-1.063-1.2-1.471-.958-.766-2.143-1.16-3.319-1.16z" fill="#1B1A19" sketch:type="MSShapeGroup"/><path d="M318.912 156.702c.118-.482.277-.911.491-1.317.843-1.6 2.15-2.655 3.85-3.22 2.017-.67 3.935-.432 5.703.758 1.119.753 1.877 1.797 2.291 3.088.578 1.801.395 3.58-.151 5.345-.549 1.773-1.456 3.365-2.52 4.871-1.567 2.218-3.34 4.272-5.083 6.35l-.833.99c-.081.1-.146.131-.272.069-2.691-1.311-5.411-2.562-8.01-4.052-1.822-1.045-3.513-2.26-4.886-3.873-.777-.915-1.402-1.923-1.791-3.061-.851-2.485-.264-5.034 1.751-6.777 2.004-1.735 4.965-2.078 7.382-.87.771.386 1.429.912 1.972 1.581l.106.118" fill="#4FB6DC" sketch:type="MSShapeGroup"/><path d="M322.501 175.17c-.256 0-.518-.06-.771-.183l-1.61-.779c-2.145-1.034-4.363-2.102-6.489-3.321-2.275-1.305-3.954-2.64-5.283-4.204-.962-1.131-1.639-2.291-2.068-3.547-1.076-3.142-.258-6.282 2.189-8.399 2.452-2.121 6.084-2.554 9.037-1.077.301.151.59.319.864.506 1.012-1.638 2.492-2.79 4.409-3.426 2.463-.819 4.889-.494 7.016.937 1.387.935 2.357 2.238 2.882 3.875.613 1.909.564 3.952-.147 6.249-.537 1.738-1.404 3.42-2.727 5.293-1.405 1.987-2.975 3.853-4.494 5.656l-.977 1.16-.51.608c-.348.426-.825.652-1.321.652zm-8.715-19.382c-1.22 0-2.423.417-3.352 1.221-1.508 1.305-1.987 3.184-1.312 5.154.305.893.8 1.735 1.514 2.575 1.098 1.29 2.525 2.416 4.489 3.543 2.033 1.165 4.202 2.21 6.299 3.221l.718.346.869-1.032c1.479-1.756 3.007-3.572 4.338-5.456 1.136-1.607 1.87-3.02 2.311-4.447.53-1.712.58-3.124.157-4.443-.318-.992-.875-1.745-1.7-2.301-1.364-.918-2.8-1.108-4.391-.579-1.37.456-2.35 1.271-2.994 2.495-.157.298-.271.607-.36.972l-.673 2.762-1.943-2.157-.108-.122c-.418-.514-.901-.901-1.486-1.193-.749-.375-1.567-.559-2.376-.559z" fill="#1B1A19" sketch:type="MSShapeGroup"/><path d="M176.625 29.058c.361-.341.726-.615 1.127-.841 1.575-.887 3.246-1.064 4.98-.617 2.059.531 3.541 1.772 4.38 3.73.532 1.24.603 2.528.251 3.837-.491 1.827-1.61 3.222-3.026 4.409-1.423 1.191-3.048 2.037-4.759 2.725-2.52 1.014-5.123 1.778-7.715 2.579-.412.127-.826.247-1.237.38-.122.039-.193.03-.266-.09-1.549-2.561-3.156-5.087-4.531-7.749-.964-1.866-1.726-3.804-2.004-5.904-.157-1.189-.135-2.376.155-3.543.633-2.548 2.508-4.372 5.146-4.744 2.625-.37 5.299.947 6.674 3.274.439.741.706 1.54.8 2.397l.025.157" fill="#4FB6DC" sketch:type="MSShapeGroup"/><path d="M170.518 46.781c-.585 0-1.118-.297-1.443-.834l-.928-1.523c-1.242-2.032-2.526-4.135-3.652-6.313-1.204-2.33-1.89-4.363-2.159-6.397-.195-1.472-.134-2.814.186-4.102.801-3.223 3.191-5.417 6.395-5.869 3.211-.452 6.496 1.153 8.176 3.997.172.289.322.588.452.893 1.737-.828 3.606-.992 5.562-.487 2.514.648 4.376 2.236 5.386 4.592.659 1.538.767 3.159.32 4.819-.52 1.935-1.669 3.626-3.512 5.17-1.396 1.17-3.036 2.112-5.163 2.968-2.257.907-4.587 1.623-6.841 2.315l-1.452.445-.756.234c-.192.062-.384.092-.571.092m-.506-22.111c-.225 0-.45.016-.676.047-1.975.279-3.397 1.598-3.898 3.619-.228.916-.268 1.893-.124 2.984.222 1.68.809 3.4 1.849 5.412 1.077 2.083 2.333 4.138 3.548 6.126l.413.677 1.291-.397c2.194-.673 4.463-1.37 6.602-2.23 1.825-.734 3.209-1.523 4.355-2.483 1.373-1.151 2.181-2.31 2.541-3.648.27-1.006.211-1.941-.181-2.855-.647-1.511-1.751-2.449-3.375-2.868-1.398-.361-2.664-.206-3.868.472-.293.165-.557.363-.831.622l-2.069 1.959-.457-2.872-.024-.167c-.072-.65-.268-1.238-.601-1.8-.951-1.609-2.698-2.598-4.495-2.598" fill="#1B1A19" sketch:type="MSShapeGroup"/><path d="M164.579 47.933l-.445.314.133.005.312-.319m24.212-12.293c-.12.427-.27.842-.451 1.246l.333.183c.523-.607.791-.975.791-.975-.22-.165-.445-.317-.673-.454" fill="#764B79" sketch:type="MSShapeGroup"/><path d="M167.607 43.539c-2.824 2.547-4.677 4.638-4.677 4.638.405.032.807.055 1.204.07l.445-.314c.909-.922 2.153-2.131 3.62-3.424l-.052-.085-.54-.885" fill="#62396F" sketch:type="MSShapeGroup"/><path d="M184.538 34.506c-4.847.001-10.373 3.559-14.624 7.046l.612 1.003c4.16-3.319 9.395-6.549 14.012-6.55.293 0 .583.013.87.039.22-.407.386-.827.505-1.267l.041-.163c-.464-.073-.936-.108-1.416-.108" fill="#49668B" sketch:type="MSShapeGroup"/><path d="M169.914 41.552c-.82.673-1.595 1.345-2.307 1.987l.54.885.052.085c.725-.638 1.505-1.298 2.327-1.954l-.612-1.003m16.04-6.938l-.041.163c-.119.44-.285.86-.505 1.267 1.021.095 2.004.364 2.932.842.181-.404.331-.819.451-1.246-.895-.54-1.846-.87-2.837-1.026" fill="#100D10" sketch:type="MSShapeGroup"/><path d="M162.93 49.676s17.022-19.218 26.534-12.083c0 0-9.762 13.402-26.534 12.083" fill="#AE84AF" sketch:type="MSShapeGroup"/><path d="M162.93 50.946s17.022-19.217 26.534-12.083c0 0-9.762 13.402-26.534 12.083" fill="#AE75A5" sketch:type="MSShapeGroup"/><path d="M271.351 88.005c-.117.289-.25.579-.398.867l.466.125c.157-.565.203-.901.203-.901l-.271-.091" fill="#100D10" sketch:type="MSShapeGroup"/><path d="M253.762 97.994c-.894 1.746-1.334 2.998-1.334 2.998l.272-.012c.291-.531.811-1.434 1.535-2.519l-.117-.116-.356-.351" fill="#62396F" sketch:type="MSShapeGroup"/><path d="M267.373 87.339c-5.645.001-9.632 4.218-12.059 7.964l.711.704c2.675-3.35 6.703-7.059 11.6-7.418.284-.411.523-.812.719-1.209-.329-.028-.653-.041-.971-.041" fill="#49668B" sketch:type="MSShapeGroup"/><path d="M255.314 95.303c-.618.954-1.135 1.876-1.552 2.691l.356.351.117.116c.501-.752 1.101-1.591 1.79-2.454l-.711-.704m13.03-7.923c-.196.397-.435.798-.719 1.209.254-.018.511-.028.771-.028.83 0 1.682.098 2.557.311.148-.288.281-.578.398-.867-1.049-.344-2.049-.545-3.007-.625" fill="#100D10" sketch:type="MSShapeGroup"/><path d="M252.428 101.493s8.253-16.571 19.894-12.196c0 0-2.363 11.494-19.894 12.196" fill="#AE84AF" sketch:type="MSShapeGroup"/><path d="M252.428 101.493s11.758-14.456 19.894-12.196c0 0-2.363 11.494-19.894 12.196" fill="#AE75A5" sketch:type="MSShapeGroup"/><path d="M115.252 149.169c-1.704 1.72-2.731 3.105-2.731 3.105.297.438.703.736 1.199.914.492-.614 1.49-1.8 2.848-3.121-.439-.295-.879-.594-1.316-.898m16.228-5.658c-.189.27-.389.54-.602.811.517.145 1.033.339 1.548.588l.647-.467c-.529-.373-1.06-.681-1.593-.932" fill="#764B79" sketch:type="MSShapeGroup"/><path d="M127.54 142.629c-3.731.001-7.302 2.17-10.024 4.451.457.313.917.622 1.377.927 2.329-1.861 5.205-3.559 8.242-3.942l.199-.214c.374-.405.715-.799 1.025-1.186-.273-.024-.546-.036-.819-.036" fill="#49668B" sketch:type="MSShapeGroup"/><path d="M117.516 147.08c-.842.706-1.604 1.423-2.264 2.089.437.304.877.603 1.316.898.688-.67 1.471-1.376 2.325-2.06-.46-.305-.92-.614-1.377-.927m10.843-4.415c-.31.387-.651.781-1.025 1.186l-.199.214c.417-.053.837-.081 1.26-.081.823 0 1.652.105 2.483.338.213-.271.413-.541.602-.811-1.039-.488-2.084-.756-3.121-.846" fill="#100D10" sketch:type="MSShapeGroup"/><path d="M113.376 153.63s10.872-14.662 20.551-7.832c0 0-9.896 10.001-20.551 7.832" fill="#AE84AF" sketch:type="MSShapeGroup"/><path d="M114.092 154.346s10.872-14.662 20.551-7.832c0 0-9.896 10.001-20.551 7.832" fill="#AE75A5" sketch:type="MSShapeGroup"/><path d="M128.697 146.656c-1.2.001-2.647.17-4.08.786-1.432.612-2.842 1.697-3.862 3.426-.282.475-.125 1.088.351 1.37.159.094.335.14.508.14.342 0 .675-.176.862-.491.806-1.354 1.831-2.13 2.932-2.608 1.095-.473 2.273-.623 3.281-.623h.009000000000000001c.713 0 1.337.073 1.775.146l.506.099.126.03.028.007.004.001.268.037c.437 0 .839-.29.962-.732.149-.532-.162-1.083-.694-1.232-.058-.015-1.278-.355-2.976-.356" fill="#8E5A8B" sketch:type="MSShapeGroup"/><path d="M98.997 74.425c.079 4.162 7.676 9.26 15.5 10.998 1.179.262 2.187.378 3.047.378 4.724 0 5.009-3.488 4.803-5.426l-1.009-.36c-8.691-3.078-15.95-4.911-22.341-5.59" fill="#62396F" sketch:type="MSShapeGroup"/><path d="M101.1 71.084c-1.488.957-2.126 2.108-2.103 3.341 6.391.679 13.65 2.512 22.341 5.59-.802-.285-1.343-.977-1.472-1.762l-18.766-7.169" fill="#100D10" sketch:type="MSShapeGroup"/><path d="M119.866 78.253c.129.785.67 1.477 1.472 1.762l1.009.36c-.079-.746-.231-1.263-.231-1.263l-2.25-.859" fill="#100D10" sketch:type="MSShapeGroup"/><path d="M271.487 91.506c-.193.389-.427.814-.709 1.263.258-.066.488-.233.627-.484.138-.247.159-.528.082-.779" fill="#8E5A8B" sketch:type="MSShapeGroup"/><path d="M269.04 90.432h-.01c-1.421.008-2.809.593-4.155 1.382-2.013 1.194-3.939 2.915-5.39 4.345-1.447 1.429-2.407 2.568-2.421 2.584-.356.422-.303 1.053.12 1.409.187.158.416.236.644.236.284 0 .567-.121.765-.356l.069-.081c.357-.414 2.062-2.353 4.16-4.155 1.047-.901 2.194-1.767 3.292-2.388 1.085-.62 2.122-.976 2.893-.976h.023c.398.001.72.08 1.016.242.153.086.32.126.484.126l.248-.031c.282-.449.516-.874.709-1.263-.073-.238-.235-.45-.471-.58-.619-.345-1.303-.494-1.976-.494" fill="#8E5A8B" sketch:type="MSShapeGroup"/><path d="M183.214 39.362h-.014c-1.207.004-2.419.357-3.59.847-3.491 1.481-6.692 4.287-6.734 4.317-.417.362-.462.994-.099 1.41.197.228.475.345.755.345.232 0 .466-.081.655-.246l.056-.047c.294-.251 1.727-1.441 3.512-2.547.891-.553 1.87-1.084 2.822-1.467.946-.384 1.865-.612 2.609-.612h.014c.611.002 1.084.137 1.476.416.176.126.38.187.582.187.311 0 .618-.145.813-.418.322-.449.219-1.073-.23-1.395-.789-.567-1.718-.79-2.627-.79" fill="#8E5A8B" sketch:type="MSShapeGroup"/><path d="M59.421 128.239c-.637.212-1.259.444-1.864.698 1.78 1.95 3.688 3.776 5.558 5.639l.143.074.137-.051c.456.18.923.262 1.396.262 2.802 0 5.823-2.893 7.995-5.53-1.474.979-2.984 1.886-4.457 2.772l-1.303.783-.674.407c-.299.186-.619.277-.935.277-.435 0-.859-.174-1.199-.512l-1.264-1.252c-1.171-1.156-2.37-2.339-3.533-3.567" fill="#62396F" sketch:type="MSShapeGroup"/><path d="M58.523 127.271l-1.673.877.707.789c.605-.254 1.227-.486 1.864-.698-.302-.32-.602-.642-.898-.968" fill="#100D10" sketch:type="MSShapeGroup"/><path d="M75.827 125.094l-7.695 5.375-4.737.888v.519c-1.213-1.211-2.409-2.439-3.541-3.728-.315-.359-.62-.723-.914-1.096l-.417.219c.296.326.596.648.898.968 1.163 1.228 2.362 2.411 3.533 3.567l1.264 1.252c.34.338.764.512 1.199.512.316 0 .636-.091.935-.277l.674-.407 1.303-.783c1.473-.886 2.983-1.793 4.457-2.772 1.818-2.208 3.041-4.237 3.041-4.237" fill="#100D10" sketch:type="MSShapeGroup"/><path d="M113.623 65.719c.06-.492.167-.937.331-1.366.646-1.689 1.818-2.892 3.438-3.656 1.923-.905 3.856-.897 5.753.074 1.2.614 2.078 1.56 2.643 2.793.788 1.719.818 3.508.486 5.325-.333 1.825-1.044 3.514-1.921 5.136-1.292 2.389-2.808 4.64-4.29 6.911-.236.361-.478.718-.709 1.082-.069.108-.13.147-.263.101-2.827-.981-5.677-1.899-8.435-3.07-1.934-.82-3.758-1.824-5.312-3.263-.881-.815-1.621-1.742-2.144-2.825-1.14-2.366-.861-4.967.931-6.938 1.784-1.961 4.683-2.655 7.226-1.742.812.29 1.527.734 2.147 1.334l.119.104" fill="#4FB6DC" sketch:type="MSShapeGroup"/><path d="M119.189 83.64c-.194 0-.392-.034-.59-.102l-1.686-.58c-2.254-.771-4.585-1.568-6.843-2.526-2.415-1.024-4.241-2.15-5.746-3.544-1.09-1.008-1.9-2.08-2.477-3.275-1.442-2.992-1.004-6.207 1.173-8.6 2.182-2.399 5.736-3.261 8.845-2.146.317.113.623.247.918.399.809-1.747 2.142-3.067 3.969-3.927 2.348-1.107 4.796-1.073 7.077.095 1.489.762 2.608 1.941 3.324 3.504.835 1.821 1.031 3.856.599 6.221-.328 1.791-.988 3.564-2.078 5.581-1.156 2.138-2.491 4.174-3.783 6.144l-.835 1.275-.435.664c-.333.527-.861.817-1.432.817zm-10.126-18.255c-1.442 0-2.85.582-3.821 1.649-1.342 1.476-1.593 3.398-.689 5.274.41.85 1.002 1.627 1.811 2.376 1.243 1.15 2.793 2.098 4.878 2.983 2.159.916 4.439 1.695 6.643 2.449l.75.257.744-1.135c1.257-1.918 2.557-3.901 3.653-5.927.935-1.73 1.496-3.221 1.765-4.692.322-1.762.203-3.17-.374-4.429-.435-.948-1.077-1.629-1.962-2.082-1.464-.749-2.912-.767-4.429-.052-1.306.616-2.182 1.543-2.675 2.833-.12.314-.197.635-.242 1.01l-.341 2.82-2.182-1.906-.136-.123c-.464-.448-.99-.775-1.605-.995-.582-.209-1.188-.31-1.788-.31z" fill="#1B1A19" sketch:type="MSShapeGroup"/><path d="M292.901 129.725c.18-.463.393-.867.658-1.242 1.044-1.477 2.477-2.353 4.236-2.691 2.087-.402 3.959.084 5.556 1.494 1.011.893 1.627 2.027 1.87 3.361.338 1.86-.075 3.601-.847 5.279-.774 1.686-1.881 3.146-3.132 4.501-1.843 1.995-3.869 3.801-5.867 5.634l-.955.874c-.094.087-.162.11-.279.032-2.497-1.65-5.031-3.245-7.414-5.061-1.67-1.273-3.189-2.698-4.339-4.476-.652-1.008-1.14-2.089-1.378-3.269-.519-2.573.394-5.024 2.619-6.49 2.213-1.459 5.194-1.414 7.433.099.714.483 1.297 1.09 1.749 1.824l.09.131" fill="#4FB6DC" sketch:type="MSShapeGroup"/><path d="M294.266 148.517c-.325 0-.653-.098-.953-.297l-1.491-.978c-1.993-1.305-4.054-2.654-6.005-4.141-2.086-1.59-3.576-3.133-4.69-4.855-.807-1.247-1.327-2.486-1.589-3.787-.658-3.256.563-6.262 3.264-8.042 2.707-1.785 6.365-1.741 9.101.109.279.189.543.393.791.614 1.216-1.493 2.834-2.441 4.817-2.823 2.552-.491 4.913.147 6.834 1.843 1.254 1.107 2.046 2.526 2.353 4.218.359 1.971.045 3.991-.959 6.176-.76 1.654-1.839 3.209-3.394 4.892-1.649 1.786-3.448 3.43-5.187 5.02l-1.128 1.03-.58.532c-.344.324-.761.489-1.184.489m-7.025-20.412c-.982 0-1.956.273-2.786.82-1.666 1.097-2.385 2.898-1.973 4.939.187.926.569 1.825 1.167 2.75.92 1.423 2.188 2.725 3.989 4.098 1.865 1.421 3.88 2.74 5.83 4.017l.663.434 1-.915c1.693-1.547 3.444-3.147 5.007-4.84 1.335-1.445 2.247-2.75 2.872-4.109.748-1.628.981-3.021.733-4.384-.187-1.026-.64-1.844-1.386-2.503-1.232-1.088-2.631-1.463-4.278-1.146-1.418.274-2.495.955-3.293 2.084-.194.274-.348.566-.485.918l-1.029 2.651-1.642-2.391-.101-.153c-.337-.547-.767-.994-1.308-1.361-.895-.605-1.942-.909-2.98-.909" fill="#1B1A19" sketch:type="MSShapeGroup"/><path d="M66.231 173.293c-.016 1.873.824 5.962 7.762 8.845l1.968-1.717c-.584-.227-1.165-.463-1.741-.709-2.411-1.031-4.234-2.162-5.736-3.559-.958-.891-1.698-1.831-2.253-2.86" fill="#764B79" sketch:type="MSShapeGroup"/><path d="M66.338 172.285s-.102.379-.107 1.008c.555 1.029 1.295 1.969 2.253 2.86 1.502 1.397 3.325 2.528 5.736 3.559.576.246 1.157.482 1.741.709l1.719-1.5c-4.703-2.047-10.651-4.922-11.342-6.636" fill="#100D10" sketch:type="MSShapeGroup"/><path d="M75.961 180.421l-1.968 1.717c1.202.499 2.587.963 4.182 1.372l1.848-1.612c-1.346-.466-2.71-.95-4.062-1.477" fill="#62396F" sketch:type="MSShapeGroup"/><path d="M77.68 178.921l-1.719 1.5c1.352.527 2.716 1.011 4.062 1.477l1.542-1.345c-1.033-.419-2.396-.984-3.885-1.632" fill="#0A060E" sketch:type="MSShapeGroup"/><path d="M81.565 180.553l-3.39 2.957c.752.193 1.55.374 2.398.541l2.927-2.729s-.749-.288-1.935-.769" fill="#100D10" sketch:type="MSShapeGroup"/><path d="M146.31 159.037c-1.203.711-3.896 2.756-4.55 7.083l1.898 1.252-.012-.087c-.196-1.473-.137-2.815.182-4.103.421-1.704 1.287-3.121 2.482-4.145" fill="#764B79" sketch:type="MSShapeGroup"/><path d="M146.896 158.731s-.227.093-.586.306c-1.195 1.024-2.061 2.441-2.482 4.145-.319 1.288-.378 2.63-.182 4.103l.012.087 2.204 1.454c-.715-3.822-.768-7.715 1.034-10.095" fill="#100D10" sketch:type="MSShapeGroup"/><path d="M141.76 166.12c-.23 1.523-.208 3.328.22 5.457l4.175 2.754-.344-.653c-1.189-2.294-1.874-4.301-2.153-6.306l-1.898-1.252" fill="#62396F" sketch:type="MSShapeGroup"/><path d="M143.658 167.372c.279 2.005.964 4.012 2.153 6.306l.344.653 1.452.958c-.648-1.9-1.316-4.168-1.745-6.463l-2.204-1.454" fill="#0A060E" sketch:type="MSShapeGroup"/><path d="M141.98 171.577c.265 1.318.686 2.761 1.299 4.338l6.246 4.276s-.937-2.029-1.918-4.902l-5.627-3.712" fill="#100D10" sketch:type="MSShapeGroup"/><path d="M225.519 180.041c-.14.806-.252 1.812-.238 2.933l.631.455c-.382-1.143-.509-2.29-.393-3.388m.493-1.998l-.06.176.058-.146.002-.03" fill="#764B79" sketch:type="MSShapeGroup"/><path d="M226.01 178.073l-.058.146c-.093.294-.28.938-.433 1.822-.116 1.098.011 2.245.393 3.388l2.482 1.788c-1.491-1.899-2.536-4.272-2.384-7.144" fill="#100D10" sketch:type="MSShapeGroup"/><path d="M225.281 182.974c.024 1.962.431 4.277 1.742 6.489l4.291 3.092 2.194-1.351c-2.25-1.206-3.932-2.464-5.285-3.952-1-1.098-1.715-2.236-2.187-3.476l-.124-.347-.631-.455" fill="#62396F" sketch:type="MSShapeGroup"/><path d="M225.912 183.429l.124.347c.472 1.24 1.187 2.378 2.187 3.476 1.353 1.488 3.035 2.746 5.285 3.952l1.418-.874c-1.805-.916-4.56-2.601-6.532-5.113l-2.482-1.788" fill="#0A060E" sketch:type="MSShapeGroup"/><path d="M227.023 189.463c.907 1.531 2.247 3.013 4.193 4.296l5.563-2.596s-.749-.273-1.853-.833l-3.612 2.225-4.291-3.092" fill="#100D10" sketch:type="MSShapeGroup"/><path d="M299.977 143.846l-.209.2c.478.412.846.797 1.112 1.104l.052-.05c-.296-.429-.613-.846-.955-1.254m-16.608-2.858l-.749.267 1.163.786.532-.168c-.333-.294-.648-.588-.946-.885" fill="#764B79" sketch:type="MSShapeGroup"/><path d="M300.396 143.441l-.419.405c.342.408.659.825.955 1.254l.48-.455s-.325-.511-1.016-1.204" fill="#836185" sketch:type="MSShapeGroup"/><path d="M290.636 139.671c-1.168 0-2.44.117-3.822.387.261.216.536.434.824.654l.434.327c.906-.123 1.76-.178 2.564-.178 2.749 0 4.918.648 6.567 1.477l.794-.756c-1.724-1.024-4.146-1.911-7.361-1.911" fill="#49668B" sketch:type="MSShapeGroup"/><path d="M297.997 141.582l-.794.756c1.067.536 1.917 1.148 2.565 1.708l.209-.2.419-.405c-.555-.558-1.348-1.234-2.399-1.859m-11.183-1.524c-1.081.211-2.228.515-3.445.93.298.297.613.591.946.885 1.34-.406 2.59-.676 3.757-.834l-.434-.327c-.288-.22-.563-.438-.824-.654" fill="#100D10" sketch:type="MSShapeGroup"/><path d="M301.412 145.835s-5.324-8.376-18.792-3.39l13.065 8.824 5.727-5.434" fill="#AE84AF" sketch:type="MSShapeGroup"/><path d="M301.806 146.514s-5.718-7.648-19.186-2.662l13.065 8.825 6.121-6.163" fill="#AE75A5" sketch:type="MSShapeGroup"/><path d="M291.579 142.41h-.011c-1.444 0-2.567.369-3.327.751-.762.382-1.167.773-1.225.83-.392.389-.394 1.022-.005 1.414.195.197.452.295.709.295.252 0 .504-.094.698-.283.042-.035 1.091-1.007 3.155-1.007 1.171.001 2.699.308 4.623 1.345.151.082.314.12.474.12.356 0 .7-.19.881-.525.262-.486.081-1.092-.405-1.355-2.165-1.17-4.037-1.585-5.567-1.585" fill="#8E5A8B" sketch:type="MSShapeGroup"/><path d="M234.636 129.263c-4.283.008-8.246 1.53-8.305 1.547-.517.196-.776.773-.58 1.289.151.4.531.646.935.646.117 0 .237-.021.354-.066l.035-.012c.383-.146 3.969-1.404 7.533-1.404h.04c1.443 0 2.867.207 4.064.723.129.056.263.082.394.082.388 0 .757-.227.92-.606.218-.507-.017-1.095-.524-1.313-1.548-.663-3.236-.884-4.866-.886" fill="#8E5A8B" sketch:type="MSShapeGroup"/></g></svg>