<?xml version="1.0" encoding="utf-8"?>
<!-- Generator: Adobe Illustrator 19.0.1, SVG Export Plug-In . SVG Version: 6.00 Build 0)  -->
<!DOCTYPE svg PUBLIC "-//W3C//DTD SVG 1.1//EN" "http://www.w3.org/Graphics/SVG/1.1/DTD/svg11.dtd">
<svg version="1.1" id="Layer_1" xmlns="http://www.w3.org/2000/svg" xmlns:xlink="http://www.w3.org/1999/xlink" x="0px" y="0px"
	 width="300px" height="199.5px" viewBox="0 0 300 199.5" enable-background="new 0 0 300 199.5" xml:space="preserve">
<g>
	<g>
		<path fill="#FFFFFF" d="M298.9,117.7c-1-3.3-3.4-6.7-7.3-10.7c0.5-0.4,0.9-0.8,1.4-1.2c2.7-2.8,4.2-7,4.1-11.4
			c-0.1-3.7-2.2-8.2-5.4-11.6c-1.4-1.5-3.1-2.9-4.9-3.9l-0.1-0.1l-4.8-2.1l-0.1,0c-1.5-0.4-3.1-0.7-4.7-0.8c-1.9-0.1-3.9,0-5.9,0.4
			c-2.9,0.6-5.5,1.5-7.8,2.9c-0.2-1.3-0.7-2.6-1.4-3.9c-2.2-3.7-6.2-6-10.6-6.1c-2.2-0.1-4.4,0.4-6.3,1.4c2-3.7,4.1-9.7,6-20.2
			c0.9-4.8,1.6-9.5,2-13c6.8-0.6,12.2-3,16.1-7.1c6.3-6.6,5.6-15.1,5.5-15.5l0-0.1L271,0l-8.1,12.3l-0.1,0.1
			c-0.5,0.8-1.9,3.4-8.3,3.4c-0.5,0-1,0-1.5,0c-2.5-0.1-5.3-0.6-8.3-1.4l-4.4-1.3c-1.4-0.5-2.9-1-4.4-1.6l-0.4-0.2
			c-1.8-0.7-4-1-5.5-1c-0.5,0-1.1,0-1.7,0c-2.6,0-6.6,0.3-10.7,1.9c-2.7,1.1-5.1,2.5-7,4.4c-2-2.1-5.3-4.3-10.5-4.9
			c-0.8-0.1-1.7-0.2-2.6-0.2c-0.8,0-1.6-0.1-2.3-0.1c-5,0-10.2,0.9-14.6,2.5l-6.1,2.4c-0.5,0.1-0.8,0.2-0.9,0.2l-0.2-0.1l-8.6-0.9
			c-2.4-1.1-5.1-1.8-7.9-2c-2.1-0.1-4.3,0-6.5,0.4l-1.3,0.3l-0.1,0c-3.4,0.9-7.3,2.8-11.1,4.8l-2.4-2.4l-5.2-3.8l-0.1-0.1
			c-2.1-1-4.4-1.6-6.7-1.8c-0.8,0-1.6,0-2.3,0l-2,0.2c-2.9,0.3-5.6,1.4-7.8,3.3c-2.6,1.7-4.5,3.9-5.9,6.7c-0.7,1.5-1.2,3.1-1.6,5
			l-9.9,2.3c-4.5-5.4-9.5-6.8-13-7.1c-1.3-0.1-2.6,0-4,0.2L65.9,15c-3.8-3.3-8.3-5.4-12.8-5.9c-1.4-0.2-2.8-0.2-4.2-0.2
			c-6,0-11.5,1.6-16.3,4.8c-8,5.3-10.3,14.4-10.9,18.1c-1.1,6.5-0.1,16,4.5,22.6c0.8,1.1,1.6,2.2,2.6,3.4
			c-5.9,0.7-11.5,3.2-17.1,7.8C4.8,71.2,0.4,80.6,0,90.8c-0.2,4.8,0.9,10.6,3,15.9c2.7,6.8,6.9,12.5,12.1,16.4
			c6.6,5,12.7,8.2,18.9,9.7l9.3,7.9c-2.3,1.6-4.2,3.5-5.8,5.7c-3.5,4.9-4.6,10.4-3.3,16c1.4,6.1,5.8,11.7,11.9,15
			c2.3,1.2,8.4,4.2,16.9,4.7c0.8,0,1.6,0.1,2.4,0.1c9,0,22.4-3,35.2-17.1c0.1,0.1,0.2,0.1,0.4,0.2l0.5,0.2c0.3,0.1,0.6,0.2,0.8,0.4
			l-1.6,1.9l-8.7,18l13.2,4l-0.1,0.1l2.2,0.5l3,0.9l0-0.2c0.5,0.1,1.1,0.2,1.6,0.4l0,0.1l14.6,3.1l0,0l3,0.6l0-0.1l2.4,0.5l0,0.1
			l1.4,0.2l1.4,0.3l0,0c0.3,0,0.6,0.1,0.9,0.1l8.2,1.2c0.2,0,2.1,0.3,3.3,0.5c0.3,0,0.7,0.1,1,0.1c0.3,0,1.7,0.2,2.5,0.3
			c0.7,0.1,1.4,0.2,1.8,0.2c0.3,0,0.6,0,0.8,0c0.5,0,1.7,0.2,2.4,0.2l1.7,0.1c0.2,0,0.4,0,0.6,0.1c0.2,0,0.4,0,0.6,0
			c0.1,0,0.2,0,0.4,0l7.2,0.3l5,0.1l0,0l0.6,0l4.9,0.1l1.5-0.1l4-0.1l3.7-0.3l4.6-0.3l8.9-1l3.8-0.6l1.4-0.2l6.9-1.3l2.8-0.5
			l6.9-1.9l4.7-1.8l10.1-4.3c1.1-0.9,2-2.1,2.5-3.5c0.5-1.4,0.8-3.5-0.3-6.1c-0.1-0.1-0.1-0.2-0.2-0.4l-1.6-3.8
			c-0.8-1.9-2.1-3.3-3.7-4.2c2.9-0.4,5.6-0.6,8.6-0.6c1.2,0,2.4,0,3.7,0.1c3.6,0.2,6.2,1.1,7.6,2.8c1.2,1.4,1.8,3.4,1.7,6l-0.4,7.8
			l7.7-1.2c0.6-0.1,3.7-0.7,7.2-3c3.2-2.1,7.4-6.2,9.2-13.6c1.6-6.4,0.4-13.4-3.1-19.2c0.4,0,0.7,0,1.1,0c4.8,0,9.4-1.2,13.4-3.6
			C298.1,139.2,302.1,128.2,298.9,117.7z"/>
	</g>
	<g>
		<g>
			<path fill="none" d="M111,113.8c8.8-6.1,17.2-15.5,14.8-23.8c-0.6-2.3-2.2-4-3.8-4c-0.2,0-0.4,0-0.6,0c-2.4,0.5-5,5.5-7.5,14.6
				C112.4,106.2,111.3,111.9,111,113.8z"/>
			<path fill="none" d="M86.7,151.2c-1.2-0.4-6.7-2.2-13.1-2.6c-8.6-0.5-15,1.7-19,6.5c-2.6,3.1-3.4,6.2-2.2,8.8
				c1.3,3,5,5.2,9.5,5.4c0,0,0,0,0,0c1.6,0.1,3.3-0.1,4.9-0.5C76.9,166.1,83.4,160.4,86.7,151.2z"/>
			<path fill="none" d="M72.4,103.1c-1.2-0.1-3.5,0.1-5.3,1.9c-1.8,1.8-2.6,4.9-2.3,9.1c1.4-0.6,6.5-3.5,8.2-10.9
				C72.9,103.1,72.7,103.1,72.4,103.1z"/>
			<path fill="none" d="M150.1,117.7c-0.5-1.5-1.4-8.1-1.7-10.9c-1.8,5.4-4.7,11.5-5.4,13C146.6,119.9,149.4,118.2,150.1,117.7z"/>
			<path fill="none" d="M242,95.1c-2.1-2.9-5.3-4-9.5-3.4c0.4,2.4,3.1,21,0.3,38.3c1.4-0.2,7.1-1.5,9.8-9.9
				C244.6,113.3,246.3,101.1,242,95.1z"/>
			<radialGradient id="SVGID_1_" cx="139.2633" cy="96.4311" r="110.375" gradientUnits="userSpaceOnUse">
				<stop  offset="0.4073" style="stop-color:#DE3A95"/>
				<stop  offset="1" style="stop-color:#9351A0"/>
			</radialGradient>
			<path fill="url(#SVGID_1_)" d="M252.1,141.7c-1.1-0.1-2.3-0.1-3.5,0c-7.9,0.4-23.7,5.4-40.5,8.6c-17.2,3.3-35.1,6.8-43,7.2
				c-1.2,0.1-2.7,0.2-4.4,0.3c-6.6,0.5-16.6,1.2-27.6,0.5c-12.6-0.7-23-3.1-31.1-7.1c0.8-2,6.2-16.5,7.2-27.6
				c1.6-0.9,17.3-10.3,22.8-27.7c1.8-5.8,1.7-10.3-0.4-13.3c-1.6-2.3-4.4-3.7-7.9-3.9c-2.7-0.2-5.5,0.4-7.5,1.5
				c-3,1.6-18.2,11.4-20.2,42.5c-0.8,0.6-7,4.6-14.3,4.2c-4.3-0.2-8.2-2-11.6-5.1c1.8-0.9,9.9-5.3,12.3-11.9
				c0.5,1.1,1.5,3.8,0.5,5.9c-0.7,1.4-2.2,2.2-4.4,2.5l-0.4,0.1l0.2,0.3c0.1,0.2,2.8,4.3,7,4.5c0.3,0,0.7,0,1,0
				c2.1-0.2,4.6-1.7,5.7-4.6c2.3-6.1-3.4-13.5-7.2-17.4c0.4-1.5,3.7-13.3-1-22.9C79.4,68.8,72.8,65,65.1,60.6
				c-0.8-0.4-1.5-0.9-2.3-1.3c-8.2-4.7-18.5-12.6-21.6-18c-2.8-4.9-3.5-10.6-1.6-14.4c1.4-2.8,3.9-4.5,7.7-5.1
				c1-0.1,1.9-0.2,2.8-0.1c4,0.2,6,2.4,7,4.1c1.4,2.4,1.5,5.2,0.8,6.5c-0.6,1.1-2,2.2-3.4,2.1c-1-0.1-1.9-0.9-2.4-2.3l-0.1-0.3
				l-0.3,0.2c-0.1,0.1-6.1,5.2-3.3,11.6c1.3,2.9,4.3,4.8,8.1,5c3.7,0.2,7.4-1.2,9.4-3.6c4.4-5.1,2.6-13.9,2-16.5
				c-1.4-5.8-8-12.6-15.5-13.5c-6.3-0.7-11.7,0.5-16.5,3.6c-6,4-7.7,11.1-8.2,14c-0.8,5.1-0.1,13,3.5,18.1
				c3.6,5.1,10,11.3,15.4,14.8c1.5,1,3,1.9,4.5,2.9c10.2,6.3,20.7,12.8,21.6,28.6c-1.4,0-7.9,0.4-12.4,5.1
				c-3.6,3.8-5.1,9.5-4.5,16.8c-1,0.2-5.4,1.1-10.5,0.8c-3.5-0.2-6.6-0.9-9.2-2.2c-9.7-4.7-15.5-12.4-16.3-21.8
				c-0.6-7.3,1.6-14.7,6.1-19.7c2.4-2.8,5.2-4.4,7.6-4.5c0.6,0,1.1,0,1.6,0c5.3,0.3,7,3.3,7.3,3.9c0.7,1.4,0.6,3.1,0,4.2
				c-0.5,0.8-1.3,1.3-2.4,1.4c-0.4,0-0.8,0-1.1,0c-2.1-0.1-2.9-0.9-3.3-3l-0.1-0.4L35.1,78c0,0-4.8,3.8-3.9,9.4
				c0.7,4.3,4.5,7.6,9.2,7.8c2,0.1,4-0.3,6-1.3c7.4-3.7,7.2-13,6-16.7c-0.1-0.2-0.1-0.4-0.2-0.6c-0.9-2.7-2.7-8.4-11.9-11.6
				c-2.4-0.8-4.7-1.3-6.9-1.4c-6-0.4-11.8,1.8-17.6,6.5C10,74.9,6.5,82.6,6.1,91c-0.3,6.9,2.9,19.8,12.7,27.2
				c9.1,6.9,15.4,8.6,20,9.3c1.9,0.3,3.7,0.5,5.4,0.6c6,0.4,11.2-0.5,15.2-2.4c0.9,1.2,6.5,8.2,17.9,8.8c5.1,0.3,10.7-0.7,16.7-3
				c-0.5,2.2-2.6,11.6-5,14.9c-1.5-0.6-11.5-4.5-18.8-5.5c-0.9-0.1-1.8-0.2-2.7-0.3c-8.5-0.5-19.6,1.7-25,9.3
				c-2.4,3.4-3.2,7.3-2.4,11.1c1,4.4,4.3,8.5,8.8,11c1.9,1,7.1,3.5,14.3,3.9c9.1,0.5,22.7-2.2,35.6-18.4
				c2.7,1.5,29.2,13.6,59.2,15.4c6.3,0.4,16.3,0.1,21.7-0.6c16.7-2.1,22.3-3.3,28.6-4.6c17.2-3.5,24.6-6,36.8-5.3
				c11.1,0.6,15.5,7.1,15.1,15.2l0,0.3l0.3,0c0.1,0,8.8-1.4,11.4-12.1c1.3-5.3,0.1-11.2-3.3-15.8C264.9,145,259.1,142.1,252.1,141.7
				z M23.4,115.9c-0.3-0.2-0.6-0.5-0.8-0.8c-0.3-0.3-0.6-0.6-1-1c-0.3-0.3-0.7-0.7-1.1-1.1c-0.4-0.4-0.7-0.9-1-1.3
				c-0.2-0.2-0.4-0.5-0.6-0.7c-0.2-0.3-0.3-0.5-0.5-0.8c-0.3-0.5-0.7-1.1-1.1-1.7c-0.3-0.6-0.7-1.2-1.1-1.8c-0.3-0.6-0.6-1.3-1-2
				c-0.3-0.7-0.6-1.4-0.9-2.1c-0.3-0.7-0.5-1.5-0.8-2.2c-0.2-0.8-0.4-1.5-0.6-2.3L12.8,97l-0.1-0.6l-0.1-0.6l-0.1-1.2
				c0-0.4,0-0.8-0.1-1.2c-0.1-0.8,0-1.6,0-2.4c0.1-1.6,0.3-3.1,0.6-4.6c0.1-0.7,0.3-1.4,0.5-2.1c0.2-0.7,0.4-1.4,0.7-2
				c0.5-1.3,1-2.5,1.5-3.5c0.3-0.5,0.5-1.1,0.8-1.5c0.3-0.5,0.6-0.9,0.9-1.3c0.6-0.8,1.1-1.4,1.6-1.9c0.5-0.5,0.8-0.9,1.1-1.2
				c0.3-0.3,0.4-0.4,0.4-0.4s-0.5,0.6-1.2,1.8c-0.4,0.6-0.8,1.3-1.2,2.1c-0.2,0.4-0.4,0.9-0.7,1.3c-0.2,0.5-0.5,0.9-0.8,1.5
				c-0.5,1-1,2.2-1.5,3.4c-0.2,0.6-0.4,1.3-0.6,1.9c-0.2,0.7-0.4,1.4-0.5,2.1c-0.3,1.4-0.5,2.9-0.6,4.4c0,0.8-0.1,1.5,0,2.3
				c0,0.4,0,0.8,0.1,1.1l0.1,1.1l0.1,0.6l0.1,0.6l0.2,1.1c0.2,0.7,0.4,1.5,0.6,2.2c0.2,0.7,0.5,1.4,0.7,2.1c0.3,0.7,0.5,1.4,0.9,2
				c0.3,0.6,0.6,1.3,0.9,1.9c0.3,0.6,0.7,1.2,1,1.8c0.3,0.6,0.7,1.1,1.1,1.6c0.2,0.3,0.3,0.5,0.5,0.8c0.2,0.2,0.4,0.5,0.5,0.7
				c0.7,0.9,1.3,1.8,1.9,2.6c0.3,0.4,0.5,0.7,0.8,1.1c0.2,0.3,0.5,0.6,0.7,0.9c0.9,1.1,1.4,1.7,1.4,1.7S24.4,116.8,23.4,115.9z
				 M71.4,73.3c-0.4-0.4-0.8-0.7-1.2-1.1c-0.4-0.4-0.8-0.7-1.2-1.1c-0.4-0.3-0.9-0.7-1.3-1c-0.4-0.3-0.9-0.7-1.4-1
				c-0.9-0.6-1.9-1.3-2.9-2c-1-0.6-2-1.3-3-1.9c-1-0.6-2-1.2-3.1-1.8c-2.1-1.2-4.2-2.3-6.3-3.4c-0.5-0.3-1-0.6-1.6-0.9l-0.8-0.4
				l-0.4-0.2L48,58.3c-0.5-0.3-1-0.7-1.4-1c-0.5-0.3-1-0.6-1.4-1c-0.4-0.4-0.9-0.7-1.3-1.1c-0.2-0.2-0.4-0.3-0.6-0.5
				c-0.2-0.2-0.4-0.4-0.6-0.6c-0.4-0.4-0.8-0.8-1.2-1.1c-0.4-0.4-0.7-0.8-1.1-1.2c-0.3-0.4-0.7-0.8-1-1.2c-0.3-0.4-0.6-0.8-0.9-1.2
				c-0.6-0.8-1.1-1.6-1.6-2.4c-0.3-0.4-0.5-0.8-0.7-1.2c-0.2-0.4-0.4-0.8-0.6-1.1c-0.3-0.8-0.6-1.5-0.9-2.2c-0.5-1.4-0.8-2.6-1-3.7
				c-0.2-1-0.3-1.9-0.4-2.4c-0.1-0.6-0.1-0.9-0.1-0.9s0,0.3,0.2,0.8c0.1,0.5,0.3,1.3,0.7,2.3c0.3,1,0.8,2.2,1.4,3.5
				c0.6,1.3,1.4,2.7,2.3,4.3c0.5,0.7,0.9,1.5,1.5,2.3c0.3,0.4,0.6,0.8,0.9,1.2c0.3,0.4,0.6,0.8,1,1.1c0.3,0.4,0.6,0.8,1,1.1
				c0.4,0.4,0.7,0.7,1.1,1.1c0.2,0.2,0.4,0.4,0.6,0.6c0.2,0.2,0.4,0.3,0.6,0.5c0.4,0.3,0.8,0.7,1.3,1c0.4,0.4,0.9,0.7,1.3,1
				c0.5,0.3,0.9,0.6,1.4,1l0.4,0.2l0.4,0.2l0.7,0.4c0.5,0.3,1,0.6,1.5,0.9c2.1,1.1,4.2,2.2,6.3,3.4c1.1,0.6,2.1,1.2,3.1,1.8
				c1,0.6,2,1.3,3,1.9c1,0.6,2,1.3,2.9,2c0.5,0.3,0.9,0.7,1.4,1c0.5,0.4,0.9,0.7,1.4,1.1c0.4,0.4,0.9,0.7,1.3,1.1
				c0.4,0.4,0.8,0.7,1.2,1.1c0.8,0.8,1.5,1.5,2.2,2.4c0.3,0.4,0.7,0.8,1,1.2c0.3,0.4,0.6,0.8,0.9,1.2c0.1,0.2,0.3,0.4,0.4,0.6
				c0.1,0.2,0.2,0.4,0.4,0.6c0.2,0.4,0.5,0.8,0.7,1.2c0.2,0.4,0.4,0.8,0.6,1.2c0.2,0.4,0.4,0.8,0.5,1.2c0.2,0.8,0.4,1.6,0.6,2.3
				c0.1,0.7,0.2,1.4,0.3,2c0.1,0.6,0.1,1.2,0.1,1.7c0,0.3,0,0.5,0,0.7c0,0.2,0,0.5,0,0.7c0,0.4,0,0.8,0,1c0,0.6,0,0.9,0,0.9
				s0-0.3-0.1-0.9c0-0.3-0.1-0.6-0.1-1c0-0.2,0-0.4-0.1-0.6c0-0.2-0.1-0.5-0.1-0.7c-0.1-0.5-0.2-1.1-0.3-1.7c-0.2-0.6-0.3-1.3-0.5-2
				c-0.2-0.7-0.5-1.4-0.8-2.1c-0.3-0.7-0.6-1.5-1-2.3c-0.2-0.4-0.4-0.8-0.7-1.2c-0.1-0.2-0.2-0.4-0.3-0.6c-0.1-0.2-0.3-0.4-0.4-0.6
				c-0.3-0.4-0.5-0.8-0.8-1.2c-0.3-0.4-0.6-0.8-0.9-1.2C72.9,74.8,72.2,74.1,71.4,73.3z M64.8,114c-0.2-4.2,0.5-7.2,2.3-9.1
				c1.8-1.8,4.1-1.9,5.3-1.9c0.3,0,0.5,0,0.6,0.1C71.3,110.5,66.1,113.4,64.8,114z M121.4,85.9c0.2,0,0.4,0,0.6,0
				c1.6,0.1,3.2,1.7,3.8,4c2.3,8.3-6.1,17.7-14.8,23.8c0.3-1.8,1.4-7.5,2.9-13.3C116.4,91.4,119,86.4,121.4,85.9z M61.9,169.3
				C61.9,169.3,61.9,169.3,61.9,169.3c-4.5-0.3-8.2-2.4-9.5-5.4c-1.1-2.7-0.4-5.7,2.2-8.8c4-4.8,10.4-7,19-6.5
				c6.4,0.4,11.9,2.1,13.1,2.6c-3.2,9.2-9.8,15-19.9,17.6C65.2,169.2,63.5,169.4,61.9,169.3z M99.4,140.9c-0.8,2.8-1.8,5.5-3,8
				c-2.3,5-5.3,9.4-8.3,12.7c-0.4,0.4-0.7,0.8-1.1,1.2c-0.4,0.4-0.7,0.8-1.1,1.1c-0.8,0.7-1.5,1.3-2.2,1.8c-1.4,1.1-2.7,2-3.8,2.7
				c-1.1,0.7-2,1.1-2.6,1.4c-0.6,0.3-1,0.4-1,0.4s1.3-0.7,3.4-2.2c1-0.8,2.2-1.7,3.5-2.9c0.6-0.6,1.3-1.3,2-2
				c0.7-0.7,1.4-1.4,2.2-2.3c2.9-3.2,5.8-7.5,8.1-12.4c1.2-2.5,2.2-5.1,3-7.9c0.8-2.7,1.5-5.6,2-8.4c0.4-2.9,0.8-5.8,1.2-8.7
				c0.5-2.9,0.9-5.7,1.5-8.4c0.1-0.7,0.3-1.3,0.4-2c0.2-0.7,0.3-1.3,0.5-2c0.2-0.6,0.3-1.3,0.5-1.9c0.2-0.6,0.4-1.2,0.5-1.9
				c0.3-1.2,0.7-2.4,1.1-3.5c0.4-1.1,0.7-2.2,1.1-3.3c0.7-2.1,1.6-3.9,2.5-5.5c0.8-1.6,1.7-2.9,2.4-4c0.7-1.1,1.4-1.9,1.8-2.4
				c0.2-0.3,0.4-0.5,0.5-0.6c0.1-0.1,0.2-0.2,0.2-0.2s-0.2,0.3-0.6,0.8c-0.4,0.6-0.9,1.4-1.6,2.5c-0.6,1.1-1.3,2.5-2,4.1
				c-0.2,0.4-0.4,0.8-0.5,1.3c-0.2,0.4-0.3,0.9-0.5,1.4c-0.2,0.5-0.4,0.9-0.6,1.4c-0.2,0.5-0.4,1-0.6,1.5c-0.4,1-0.8,2.1-1.1,3.2
				c-0.4,1.1-0.7,2.3-1.1,3.5c-0.2,0.6-0.4,1.2-0.5,1.8c-0.2,0.6-0.3,1.3-0.5,1.9c-0.2,0.6-0.3,1.3-0.5,1.9c-0.2,0.7-0.3,1.3-0.4,2
				c-0.6,2.7-1.1,5.5-1.5,8.3c-0.4,2.8-0.8,5.8-1.2,8.7C100.9,135.3,100.3,138.1,99.4,140.9z M260.4,157c-0.1-0.2-0.2-0.5-0.4-0.8
				c-0.4-0.7-1-1.6-2.2-2.3c-1.2-0.7-2.8-1.3-4.8-1.6c-1.9-0.3-4.2-0.3-6.6,0c-2.4,0.3-5,0.7-7.8,1c-2.8,0.4-5.6,0.9-8.6,1.5
				c-6,1.1-12.3,2.6-18.7,4c-6.3,1.4-12.7,2.8-18.7,3.8c-3,0.5-5.9,0.9-8.7,1.3c-1.4,0.2-2.7,0.3-4.1,0.4c-1.3,0.1-2.6,0.2-3.8,0.3
				c-2.4,0.2-4.7,0.4-6.6,0.6c-1,0.1-1.9,0.1-2.8,0.2c-0.9,0-1.7,0-2.4,0c-1.4,0-2.6-0.1-3.3-0.2c-0.8-0.1-1.2-0.1-1.2-0.1
				s0.4,0,1.2-0.1c0.8-0.1,1.9-0.2,3.3-0.3c0.7-0.1,1.5-0.2,2.3-0.3c0.9,0,1.8-0.1,2.8-0.2c2-0.2,4.2-0.4,6.6-0.6
				c1.2-0.1,2.5-0.2,3.8-0.3c1.3-0.1,2.7-0.2,4-0.4c2.8-0.3,5.7-0.8,8.7-1.3c6-1,12.3-2.4,18.7-3.8c6.3-1.4,12.7-2.8,18.7-4
				c3-0.6,5.9-1.1,8.7-1.5c0.7-0.1,1.4-0.2,2.1-0.3c0.7-0.1,1.3-0.2,2-0.2c1.3-0.1,2.6-0.2,3.8-0.3c2.4-0.2,4.7-0.1,6.7,0.3
				c2,0.4,3.6,1,4.8,1.9c1.2,0.8,1.8,1.8,2.2,2.5C260.3,156.5,260.4,156.8,260.4,157c0.1,0.2,0.1,0.3,0.1,0.3S260.5,157.1,260.4,157
				z"/>
			<radialGradient id="SVGID_2_" cx="101.3692" cy="48.4594" r="30.545" gradientUnits="userSpaceOnUse">
				<stop  offset="0.4073" style="stop-color:#DE3A95"/>
				<stop  offset="1" style="stop-color:#9351A0"/>
			</radialGradient>
			<path fill="url(#SVGID_2_)" d="M76.4,46.4c-2.7,1.1-5.2,4-4.4,7.9c0.6,2.6,3.1,4.7,6,4.9c1.3,0.1,3.2-0.2,5.1-1.9l0.3-0.3
				l-0.4-0.2c0,0-4.3-1.9-4.6-4.4c-0.1-1,0.4-1.9,1.5-2.9c0.3-0.3,0.7-0.4,1.1-0.4c4.7,0.3,11.7,21.4,12.2,23.4
				c0.5,1.8,0.3,6.1-0.7,6.8l-0.4,0.2l0.4,0.2c0,0,0.4,0.2,1.1,0.3c1.5,0.1,4.3-0.7,6.6-6.7c3-7.6,3.5-15.7,3.5-20.6
				c1.7,4.6,7.2,18.4,13,20.7l0.2,0.1l0.1-0.1c0.1-0.1,1.5-1.7,2.9-5.4c1.3-3.4,2.7-9.1,2.2-17.5c-0.1-1.8-0.2-3.5-0.3-5.2
				c-0.7-10.1-1.3-18.8,2.4-22.7c1.4-1.5,3.3-2.2,5.9-2.2l0.6,0l-0.5-0.4c-0.1-0.1-2.9-2.8-7.2-3.1c-1.5-0.1-3,0.1-4.4,0.7
				c-6.8,2.5-10.4,4.8-9.4,25.9l-6-11L96.5,34l-1.1,11.3c-1.1-4.6-5.2-17.5-14.6-18c-2.4-0.1-5,0.5-7.8,2l-0.2,0.1l0.1,0.2
				c0.1,0.1,6.9,11.2,8.7,16.4c-0.3,0-0.7-0.1-1.2-0.1C79.3,45.8,77.7,45.9,76.4,46.4z M115,33.7c0-1.1,0.1-2,0.2-3
				c0-0.5,0-0.9,0.1-1.3c0.1-0.4,0.2-0.8,0.2-1.2c0.1-0.7,0.3-1.4,0.4-1.9c0.3-1,0.4-1.6,0.4-1.6s0,0.6,0,1.7c0,0.5,0,1.2,0,1.9
				c0,0.4,0,0.8,0,1.2c0,0.4-0.1,0.8-0.1,1.3c-0.1,0.9-0.1,1.9-0.1,2.9c0,1-0.1,2.1-0.1,3.3c0,1.1,0,2.3,0.1,3.5
				c0.1,1.2,0.1,2.4,0.2,3.6c0.1,1.2,0.2,2.4,0.3,3.6c0.1,1.2,0.2,2.4,0.3,3.5c0.1,2.3,0.2,4.4,0.2,6.3c0.1,0.9-0.1,1.8-0.1,2.5
				c-0.1,0.7-0.2,1.4-0.2,1.9c-0.1,1.1-0.3,1.7-0.3,1.7s0-0.6-0.1-1.7c0-0.5-0.1-1.2-0.2-1.9c0-0.7-0.2-1.6-0.1-2.5
				c0-1.8,0-3.9-0.2-6.2c-0.1-1.1-0.2-2.3-0.3-3.5c-0.1-1.2-0.2-2.4-0.3-3.6c-0.1-1.2-0.1-2.4-0.2-3.7c0-1.2-0.1-2.4-0.1-3.5
				C115,35.9,115,34.8,115,33.7z M81.1,33.1c-0.2-0.2-0.2-0.4-0.2-0.4s0.5,0.4,1.2,1.2c0.4,0.4,0.8,0.9,1.3,1.5
				c0.2,0.3,0.5,0.6,0.8,0.9c0.3,0.3,0.5,0.7,0.7,1.1c0.5,0.8,1,1.6,1.6,2.6c0.5,0.9,1.1,1.9,1.6,2.9c0.6,1,1.1,2.1,1.6,3.2
				c0.5,1.1,1,2.2,1.5,3.4c0.5,1.1,0.9,2.3,1.4,3.4c0.4,1.1,0.8,2.3,1.2,3.4c0.4,1.1,0.7,2.2,1,3.2c0.3,1,0.6,2,0.8,2.9
				c0.1,0.5,0.3,0.9,0.3,1.3c0.1,0.4,0.1,0.8,0.2,1.2c0.1,0.8,0.2,1.4,0.2,1.9c0.1,1.1,0.2,1.7,0.2,1.7s-0.2-0.6-0.6-1.6
				c-0.2-0.5-0.4-1.1-0.6-1.8c-0.1-0.4-0.2-0.7-0.4-1.1c-0.2-0.4-0.2-0.8-0.4-1.3c-0.3-0.9-0.5-1.9-0.8-2.8c-0.3-1-0.7-2.1-1-3.1
				c-0.4-1.1-0.8-2.2-1.2-3.3c-0.5-1.1-0.9-2.2-1.4-3.4c-0.5-1.1-1-2.2-1.5-3.3c-0.5-1.1-1.1-2.1-1.6-3.1c-0.5-1-1.1-2-1.6-2.9
				c-0.5-0.9-1.1-1.7-1.6-2.5c-0.2-0.4-0.5-0.7-0.7-1.1c-0.2-0.4-0.4-0.7-0.6-1c-0.4-0.7-0.7-1.2-1-1.7
				C81.5,33.7,81.3,33.3,81.1,33.1z"/>
			<radialGradient id="SVGID_3_" cx="147.0086" cy="47.6953" r="25.3335" gradientUnits="userSpaceOnUse">
				<stop  offset="0.4073" style="stop-color:#DE3A95"/>
				<stop  offset="1" style="stop-color:#9351A0"/>
			</radialGradient>
			<path fill="url(#SVGID_3_)" d="M126.5,29.9l-1.3-1.3l0.9,1.6c0,0.1,3.3,5.6,4.2,12.3c0.1,0.8,0.3,1.8,0.4,2.9
				c1.1,7,3.1,20,0.5,22.8c-0.3,0.4-0.7,0.5-1.2,0.5h0c-0.4,0-0.9-0.2-1.4-0.5l-0.7-0.4l0.3,0.7c0.1,0.3,3.1,7.4,8.1,7.7
				c1,0.1,1.9-0.1,2.9-0.6c3.9-1.8,6.3-3.4,8.1-4.6c1.2-0.8,2.1-1.4,2.9-1.7c0.2-0.1,0.5-0.2,0.8-0.3c1.6-0.6,4-1.6,6.5-1.4
				c1.2,0.1,2.3,0.4,3.3,1c0.8,0.5,1.3,1.1,1.2,1.7c-0.1,1.6-3.1,3.1-3.1,3.1l-0.6,0.3l0.6,0.2c0,0,0.7,0.2,1.6,0.3
				c2,0.1,5.7-0.4,7.6-5.4c0.8-2,0.7-3.9-0.3-5.3c-1.1-1.8-3.5-2.9-6.4-3.1c-1.5-0.1-3,0.1-4.2,0.6c-4,1.6-10.7,5.2-12.5,6.1
				c0.2-2,1-9.8-0.2-14.9c0.8-0.4,4.2-1.8,6.4-1.7c0.8,0,1.4,0.3,1.7,0.7c0.4,0.5,0.4,1.3,0.2,2.4l-0.2,1l0.7-0.7c0,0,3-3.3,0.5-7.2
				c0.2-0.7,0.9-3.6-1.8-6.2l-0.4-0.4l0,0.6c0,0-0.1,2.1-1.8,3.7c-1.3,1.2-3.2,1.7-5.7,1.6c0,0,0,0,0,0c-0.1,0-0.3,0-0.4,0
				c-0.2-1.7-1.9-12.7-3.2-15.5c0.8-0.8,5.8-5.5,12.7-5.1c0.5,0,1,0.1,1.5,0.2c2.7,0.4,4.1,1.5,4,2.8c-0.1,1.2-1.6,2.4-2.9,2.4
				c0,0,0,0,0,0c-0.6,0-1-0.3-1.4-0.8l-0.5-0.8l0,0.9c0,0.1,0.3,9.1,7,9.5c0.7,0,1.4,0,2.2-0.2c2.1-0.4,3.5-1.5,4.3-3.3
				c1.7-4-0.3-10-1.4-11.7c-1.8-2.8-5.4-4.6-9.8-4.9c-1.6-0.1-3.3,0-5,0.3c-3.4,0.6-8.3,3.3-13.1,5.8c-4.7,2.5-9.1,4.8-11.1,4.7
				C127,30.1,126.7,30,126.5,29.9z M135.9,34.2c0.2,0.5,0.3,1,0.5,1.7c0.1,0.3,0.2,0.7,0.3,1.1c0.1,0.4,0.1,0.8,0.2,1.2
				c0.3,1.7,0.6,3.6,0.9,5.7c0.2,1,0.3,2.1,0.4,3.2c0.2,1.1,0.3,2.2,0.4,3.3c0.1,1.1,0.2,2.2,0.3,3.3c0.1,1.1,0.1,2.2,0.2,3.3
				c0,1.1,0.1,2.1,0.1,3c0,1,0,1.9,0,2.7c0,0.4,0,0.8-0.1,1.2c-0.1,0.4-0.1,0.7-0.2,1.1c-0.1,0.7-0.2,1.3-0.3,1.8
				c-0.2,1-0.3,1.5-0.3,1.5s0-0.6-0.1-1.6c0-0.5,0-1.1-0.1-1.8c0-0.3,0-0.7-0.1-1.1c0-0.4,0-0.8,0-1.2c0-0.8,0-1.7,0-2.7
				c0-1-0.1-2-0.1-3c-0.1-1-0.1-2.1-0.2-3.2c-0.1-1.1-0.2-2.2-0.3-3.3c-0.1-1.1-0.2-2.2-0.4-3.3c-0.1-1.1-0.3-2.2-0.4-3.2
				c-0.3-2.1-0.6-4-0.9-5.7c-0.1-0.4-0.2-0.8-0.2-1.2c0-0.4-0.1-0.7-0.1-1.1c-0.1-0.7-0.1-1.3-0.1-1.8c-0.1-1-0.1-1.6-0.1-1.6
				S135.6,33.2,135.9,34.2z"/>
			<radialGradient id="SVGID_4_" cx="194.2908" cy="44.8709" r="25.965" gradientUnits="userSpaceOnUse">
				<stop  offset="0.4073" style="stop-color:#DE3A95"/>
				<stop  offset="1" style="stop-color:#9351A0"/>
			</radialGradient>
			<path fill="url(#SVGID_4_)" d="M171.5,61.5C171.5,61.5,171.5,61.5,171.5,61.5c-0.3,0-0.6-0.1-1-0.1l-0.4-0.1l0,0.4
				c0,0.1,1.1,7.8,8.5,8.3c1.9,0.1,4-0.3,6.3-1.1c11.8-4.2,16.5-5.7,19.1-5.6c0.4,0,0.7,0.1,1,0.2c1,0.3,1.2,1,1.1,1.6
				c-0.1,0.7-0.8,1.4-1.9,1.3c-0.5,0-1.1-0.2-1.7-0.5l-0.5-0.3l0.1,0.5c0,0.1,1.2,6.1,6.7,6.4c0.2,0,0.4,0,0.6,0
				c3.3,0,6.5-1.9,8-4.7c1.3-2.5,1.1-5.3-0.5-7.8c-1.5-2.3-4-3.6-7.4-3.8c-5-0.3-10.6,1.8-13.4,2.8c-0.5,0.2-0.8,0.3-1.1,0.4
				c-2.1,0.7-5.1,1.5-6.2,1.8c0.2-2,1.3-11.2,0.3-15.2c0.8-0.2,3.6-0.9,6-0.8c2.4,0.1,3.7,1.1,3.8,2.8l0.1,0.8l0.4-0.7
				c0.1-0.1,1.7-2.8-0.3-6.2c0.3-0.7,1.5-4-1.5-6.7l-0.6-0.5l0.2,0.8c0,0,0.3,1.5-0.8,2.8c-1.3,1.4-3.7,2.1-7.3,1.9c0,0,0,0,0,0
				c-0.2,0-0.3,0-0.5,0c-0.1-1.8-1-13.5-2.1-16.1c1.1-0.4,5.1-1.9,7.5-2.3c1.1-0.2,2-0.3,2.8-0.2c2,0.1,3.1,0.9,3.5,2.3
				c0.1,0.4-0.1,1-0.5,1.5c-0.5,0.6-1.1,0.9-1.8,0.8c-0.7,0-1.5-0.5-2.2-1.4l-0.3-0.4l-0.1,0.5c0,0.1-1,3.5,0.5,6
				c0.7,1.1,1.7,1.9,3.1,2.3c2.8,0.7,5.5,0.2,7.3-1.5c1.3-1.2,2.1-2.8,2.2-4.6c0.2-3.9-2.1-8.8-9.2-9.6c-0.7-0.1-1.4-0.2-2.2-0.2
				c-5.4-0.3-11.4,0.7-16,2.7c-3.3,1.4-5.8,2.4-8,2.3c-0.8,0-1.5-0.2-2.2-0.6l-0.5-0.3l0.2,0.6c0.1,0.3,9.5,31.1,4,38.1
				C173.8,61.1,172.8,61.6,171.5,61.5z M180.2,27.3c0.1,0.5,0.3,1.1,0.5,1.8c0.1,0.3,0.2,0.7,0.3,1.1c0.1,0.4,0.1,0.8,0.2,1.3
				c0.5,3.5,1,8.2,1.4,12.9c0.2,2.3,0.3,4.7,0.4,6.9c0.1,2.2,0.1,4.3,0,6.1c0,0.2,0,0.4,0,0.7c0,0.2,0,0.4-0.1,0.6
				c-0.1,0.4-0.2,0.8-0.2,1.1c-0.1,0.7-0.3,1.3-0.5,1.8c-0.1,0.2-0.2,0.5-0.2,0.7c-0.1,0.2-0.1,0.3-0.2,0.5
				c-0.1,0.3-0.2,0.4-0.2,0.4s0-0.1,0.1-0.4c0-0.1,0-0.3,0.1-0.5c0-0.2,0-0.4,0.1-0.7c0-0.3,0-0.5,0-0.8c0-0.3,0-0.6,0-1
				c0-0.4,0-0.7,0-1.1c0-0.4,0.1-0.8,0.1-1.2c0.1-1.7,0.1-3.8,0-6c-0.1-2.2-0.2-4.5-0.4-6.9c-0.4-4.7-0.9-9.3-1.4-12.8
				c0-0.4-0.2-0.8-0.2-1.3c0-0.4,0-0.8,0-1.1c0-0.7-0.1-1.3-0.1-1.9c0-1,0-1.6,0-1.6S179.9,26.3,180.2,27.3z"/>
			<radialGradient id="SVGID_5_" cx="239.572" cy="43.5357" r="28.9067" gradientUnits="userSpaceOnUse">
				<stop  offset="0.4073" style="stop-color:#DE3A95"/>
				<stop  offset="1" style="stop-color:#9351A0"/>
			</radialGradient>
			<path fill="url(#SVGID_5_)" d="M217.8,44.8c1.1,0.6,2.3,0.9,3.5,1c4.4,0.3,8-2.8,8.9-5.2c1.2-3.1-1.4-8.3-1.6-8.5l-0.2-0.5
				l-0.2,0.5c-1.7,3.8-3.3,4.1-6.3,4c-0.4,0-0.9-0.1-1.4-0.1c-1.7-0.1-3.3-1.7-4-3.8c-0.8-2.7,0.1-5.5,2.5-7.3
				c1.1-0.9,2.5-1.2,4.3-1.1c4.7,0.3,10.2,3.9,11.1,4.5c-1.3,27.2-4.4,35.6-6.8,37.7c-0.5,0.5-1,0.7-1.6,0.6
				c-0.9-0.1-1.5-0.8-1.5-0.8l-0.6-0.7l0.1,0.9c0.2,1.7,3.3,6.1,7.9,6.4c1.7,0.1,3.5-0.4,5.2-1.5c3-1.9,5.7-9.1,8-21.5
				c1.6-8.3,2.4-16.3,2.5-17.8c7.8,0.3,13.5-1.5,17.1-5.3c4.4-4.6,3.9-10.7,3.9-10.7l-0.1-0.8l-0.4,0.7c-2.7,4.7-7.9,6.8-15.4,6.4
				c-5.4-0.3-11.8-1.9-19.1-4.8l-0.4-0.1c-0.8-0.3-2.1-0.5-3.6-0.6c-1.6-0.1-5.7-0.1-9.8,1.5c-3.9,1.5-6.6,4-7.8,7.4
				C208.4,34.8,212.3,42,217.8,44.8z M235.2,63.5c0.1-0.3,0.2-0.7,0.3-1c0.1-0.4,0.3-0.7,0.4-1.1c1.1-3.2,2.1-7.6,2.7-12.1
				c0.7-4.5,1.2-9,1.4-12.4c0-0.4,0-0.8,0.1-1.2c0.1-0.4,0.1-0.7,0.2-1.1c0.1-0.7,0.2-1.3,0.3-1.8c0.2-1,0.3-1.6,0.3-1.6
				s0.1,0.6,0.1,1.6c0,0.5,0.1,1.1,0.1,1.8c0,0.3,0,0.7,0,1.1c0,0.4-0.1,0.8-0.1,1.2c-0.3,3.4-0.8,8-1.5,12.5
				c-0.7,4.5-1.6,9-2.8,12.3c-0.2,0.4-0.2,0.8-0.4,1.2c-0.2,0.4-0.4,0.7-0.6,1c-0.4,0.6-0.7,1.1-1.1,1.5c-0.3,0.4-0.6,0.7-0.8,0.8
				c-0.2,0.2-0.3,0.3-0.3,0.3s0.1-0.1,0.2-0.3c0.1-0.1,0.2-0.2,0.3-0.4c0.1-0.2,0.2-0.4,0.3-0.6C234.8,64.6,235,64.1,235.2,63.5z"/>
			<radialGradient id="SVGID_6_" cx="148.8247" cy="120.0162" r="32.2855" gradientUnits="userSpaceOnUse">
				<stop  offset="0.4073" style="stop-color:#DE3A95"/>
				<stop  offset="1" style="stop-color:#9351A0"/>
			</radialGradient>
			<path fill="url(#SVGID_6_)" d="M118.8,136c-1.1-0.1-1.8-1-1.8-1l-0.6-0.7l0.1,0.9c0.5,3.8,2.2,10.1,7.8,10.5
				c1.1,0.1,2.2-0.1,3.4-0.5c5.9-2.1,12.4-17.7,12.9-19.5c0.2,0,0.4,0.1,0.6,0.1c2.6,0.2,8.4-1.3,9.7-1.7c4,22.1,10,27.2,17.7,28
				c0.1,0,0.2,0,0.4,0c6.7,0.4,11.6-8.4,11.9-8.8l0.5-0.9l-0.9,0.6c-2.3,1.5-4.4,2.2-6.4,2.1c-16.4-1-18.6-56-18.6-56.6l0-0.6
				l-0.4,0.4c-3.3,3-16.7,3.9-16.8,3.9l-0.2,0l0,0.2c-4.7,25.4-8,25.9-8.4,25.9l-0.1,0l-0.1,0c-0.4,0-0.7-0.1-0.9-0.3
				c-0.6-0.8,0-3,0.3-3.7l0.2-0.5l-0.5,0.1c-3.4,0.9-5.6,2.3-6.5,4.2c-0.6,1.2-0.6,2.6,0,4.1c0.7,1.7,4,3,5,3.3
				C125.5,128.6,120.3,136.1,118.8,136z M152.9,105.9c0,0,0.1,0.7,0.4,1.9c0.1,0.6,0.3,1.4,0.5,2.2c0.1,0.4,0.2,0.9,0.3,1.4
				c0.1,0.5,0.1,1,0.2,1.5c0.6,4.2,1.5,9.8,2.9,15.3c0.7,2.8,1.4,5.5,2.3,8c0.9,2.5,1.9,4.8,3,6.5c0.3,0.5,0.6,0.8,0.8,1.2
				c0.2,0.4,0.5,0.8,0.8,1.1c0.5,0.6,1.1,1.1,1.6,1.4c0.5,0.3,1,0.5,1.3,0.5c0.3,0.1,0.5,0.1,0.5,0.1s-0.2,0-0.5,0
				c-0.3,0-0.8-0.1-1.5-0.3c-0.6-0.2-1.3-0.6-2-1.2c-0.3-0.3-0.7-0.6-1-1c-0.2-0.2-0.3-0.4-0.5-0.6c-0.1-0.2-0.3-0.4-0.4-0.7
				c-1.2-1.9-2.2-4.2-3.1-6.7c-0.9-2.5-1.7-5.3-2.3-8.1c-1.3-5.6-2.3-11.2-2.9-15.4c-0.1-0.5-0.2-1-0.2-1.5c0-0.5,0-1-0.1-1.4
				c0-0.9-0.1-1.6-0.1-2.3C152.9,106.6,152.9,105.9,152.9,105.9z M150.1,117.7c-0.7,0.5-3.5,2.1-7.2,2.1c0.7-1.5,3.6-7.7,5.4-13
				C148.7,109.6,149.6,116.2,150.1,117.7z M125,138.7c0.2-0.3,0.4-0.7,0.8-1.1c0.3-0.5,0.7-1.1,1.1-1.8c0.2-0.3,0.4-0.7,0.7-1.1
				c0.2-0.4,0.6-0.8,0.8-1.2c0.5-0.8,1.2-1.7,1.8-2.7c0.3-0.5,0.6-1,0.9-1.5c0.3-0.5,0.6-1.1,0.9-1.6c0.2-0.3,0.3-0.6,0.5-0.8
				c0.1-0.3,0.3-0.6,0.5-0.9c0.3-0.6,0.6-1.2,0.9-1.7c0.6-1.2,1.2-2.4,1.8-3.6c0.5-1.2,1.1-2.5,1.6-3.7c0.5-1.2,1-2.4,1.4-3.6
				c0.4-1.2,0.8-2.3,1.2-3.4c0.4-1.1,0.7-2.1,1-3.1c0.2-0.5,0.3-1,0.4-1.4c0.2-0.4,0.3-0.8,0.5-1.2c0.3-0.8,0.5-1.4,0.7-2
				c0.4-1.1,0.7-1.7,0.7-1.7s-0.1,0.7-0.3,1.8c-0.1,0.6-0.2,1.3-0.4,2.1c-0.1,0.4-0.1,0.8-0.2,1.3c-0.1,0.5-0.3,0.9-0.4,1.4
				c-0.3,1-0.6,2-1,3.1c-0.4,1.1-0.8,2.3-1.2,3.5c-0.5,1.2-1,2.4-1.4,3.7c-0.5,1.2-1.1,2.5-1.6,3.7c-0.6,1.2-1.2,2.5-1.8,3.7
				c-0.3,0.6-0.6,1.2-0.9,1.8c-0.2,0.3-0.3,0.6-0.5,0.9c-0.2,0.3-0.3,0.6-0.5,0.8c-0.3,0.6-0.6,1.1-0.9,1.6c-0.3,0.5-0.6,1-0.9,1.5
				c-0.6,1-1.2,1.9-1.8,2.8c-0.3,0.4-0.5,0.8-0.8,1.2c-0.3,0.4-0.6,0.7-0.9,1c-0.5,0.6-1.1,1.1-1.5,1.6c-0.8,0.8-1.4,1.3-1.4,1.3
				S124.8,139,125,138.7z"/>
			<radialGradient id="SVGID_7_" cx="190.1126" cy="108.8654" r="28.2049" gradientUnits="userSpaceOnUse">
				<stop  offset="0.4073" style="stop-color:#DE3A95"/>
				<stop  offset="1" style="stop-color:#9351A0"/>
			</radialGradient>
			<path fill="url(#SVGID_7_)" d="M165,122.7l-0.3-0.4l-0.2,0.4c0,0.1-1.8,5.1,2.2,9.6c1.5,1.7,3.5,2.7,5.7,2.8
				c3.1,0.2,6.2-1.4,8.3-4.2c2.8-3.7,3.7-12.4,3.9-15.8c7.4,22.5,18.5,23.8,19.8,23.8c0.1,0,0.1,0,0.1,0h0.1l0.1,0
				c3.2-1.8,3.6-18.7,3.9-33.6c0.1-6.1,0.3-11.4,0.6-14.6c0.7-7.4,3.7-8.3,5.3-8.2c0.6,0,1,0.2,1,0.2l0.6,0.3l-0.3-0.6
				c0,0-1.6-3.6-5.7-3.8c-1.8-0.1-3.9,0.5-6.1,1.7c-3.6,2-6.1,9.5-7.4,22.4c-0.8,7.8-0.8,15.3-0.8,17.8c-3.6-6.2-9.1-31.1-9.2-31.4
				l0-0.2l-0.2,0c-1.4-0.3-2.8-0.6-4.2-0.6c-6.3-0.4-10.4,2-10.6,2.1l-0.1,0.1l0,0.2c1.6,23.7-0.4,31.1-2.4,33.1
				c-0.5,0.5-1,0.7-1.5,0.7C166.2,124.3,165,122.8,165,122.7z M200.9,128.6c0.1-0.3,0.1-0.8,0.1-1.4c0-0.6,0-1.3,0-2.2
				c0-0.4,0-0.9,0-1.3c0-0.5,0.1-1,0.1-1.5c0.2-4.1,0.4-9.6,0.5-15.1c0-1.4,0-2.7,0-4.1c0.1-1.4,0.2-2.7,0.3-4
				c0.1-1.3,0.3-2.5,0.5-3.7c0.2-1.2,0.4-2.3,0.6-3.3c0.1-0.5,0.1-1,0.3-1.5c0.1-0.5,0.3-0.9,0.4-1.3c0.2-0.8,0.5-1.5,0.6-2.1
				c0.4-1.2,0.6-1.8,0.6-1.8s-0.1,0.7-0.2,1.9c-0.1,0.6-0.1,1.3-0.2,2.2c0,0.4-0.1,0.9-0.1,1.3c-0.1,0.5-0.2,0.9-0.3,1.4
				c-0.2,1-0.4,2.1-0.6,3.3c-0.2,1.2-0.4,2.4-0.5,3.7c-0.1,1.3-0.3,2.6-0.3,3.9c0,1.3,0,2.7,0,4.1c-0.1,5.5-0.2,11-0.5,15.1
				c0,0.5,0,1-0.1,1.5c-0.1,0.5-0.2,0.9-0.2,1.3c-0.1,0.8-0.3,1.6-0.4,2.1c-0.1,0.6-0.3,1.1-0.4,1.4c-0.1,0.3-0.2,0.4-0.2,0.4
				S200.9,128.9,200.9,128.6z M174,127.9c0.1-0.1,0.2-0.2,0.3-0.4c0.1-0.2,0.2-0.3,0.3-0.6c0.1-0.2,0.2-0.5,0.3-0.7
				c0.1-0.3,0.2-0.6,0.3-0.9c0.1-0.3,0.2-0.7,0.3-1c0.1-0.2,0.1-0.4,0.2-0.5c0.1-0.2,0.1-0.4,0.2-0.6c0.1-0.4,0.3-0.8,0.4-1.2
				c0.1-0.4,0.2-0.9,0.3-1.3c0.1-0.5,0.2-0.9,0.3-1.4c0.1-0.5,0.2-1,0.3-1.5c0.1-1,0.3-2.1,0.4-3.2c0.1-1.1,0.2-2.2,0.3-3.3
				c0-1.1,0.1-2.2,0.1-3.3c0-1.1,0-2.2,0-3.2c0-1,0-2-0.1-3c0-0.9-0.1-1.8-0.1-2.7c0-0.4-0.1-0.8-0.1-1.2c0-0.4,0-0.7,0-1.1
				c0-0.7,0.1-1.3,0.1-1.8c0.1-1,0.1-1.5,0.1-1.5s0.1,0.5,0.3,1.5c0.1,0.5,0.2,1.1,0.3,1.7c0.1,0.3,0.1,0.7,0.2,1.1
				c0,0.2,0.1,0.4,0.1,0.6c0,0.2,0,0.4,0,0.6c0,0.8,0.1,1.7,0.1,2.7c0,1,0.1,2,0.1,3c0,1,0,2.1,0,3.2c0,1.1-0.1,2.2-0.1,3.3
				c-0.1,1.1-0.2,2.2-0.3,3.3c-0.1,1.1-0.3,2.2-0.4,3.2c-0.1,0.5-0.2,1-0.3,1.5c-0.1,0.5-0.2,1-0.3,1.5c-0.1,0.5-0.2,0.9-0.3,1.4
				c-0.1,0.4-0.3,0.9-0.4,1.3c-0.2,0.8-0.6,1.5-1,2.1c-0.2,0.3-0.3,0.6-0.5,0.8c-0.2,0.2-0.4,0.5-0.5,0.7c-0.2,0.2-0.3,0.3-0.5,0.5
				C174.3,127.8,174.2,127.9,174,127.9c-0.1,0.2-0.3,0.3-0.3,0.3S173.8,128.1,174,127.9z"/>
			<radialGradient id="SVGID_8_" cx="234.2786" cy="105.884" r="27.0809" gradientUnits="userSpaceOnUse">
				<stop  offset="0.4073" style="stop-color:#DE3A95"/>
				<stop  offset="1" style="stop-color:#9351A0"/>
			</radialGradient>
			<path fill="url(#SVGID_8_)" d="M256.7,83.8c0.9-1.8,0.9-3.7-0.1-5.3c-1.1-1.8-3.3-3.1-5.5-3.2c-2.3-0.1-4.5,1.1-6,3.2l-0.6,0.8
				l0.9-0.4c0,0,0.7-0.3,1.5-0.3c0.8,0,1.4,0.4,1.8,1.1c0.5,0.9,0.5,2-0.1,3c-0.9,1.6-2.9,2.7-5.8,3c-0.8,0.1-1.9,0.1-3.4,0.1
				c-1.9-0.1-4.2-0.2-6.6-0.4c-2.8-0.2-5.6-0.4-8.4-0.4c-6.5-0.2-9.9,0.3-11.1,1.7l-0.3,0.4l0.5,0.1c0.2,0,4.3,0.8,4.9,7.7
				c0.1,0.9,0.2,2.2,0.4,3.8c0.9,8.4,2.9,26-2.3,31.7c-1.2,1.3-2.6,1.9-4.4,1.8l-0.8,0l0.5,0.5c0.2,0.1,4.2,3.6,12.3,3.8
				c3.9,0.1,8-0.5,12.4-1.9c15.7-4.9,18.8-20.3,18.7-25.4c-0.3-10.1-3.7-16.8-10.1-19.8C247.9,89.3,254.3,88.6,256.7,83.8z
				 M227.3,118.1c0,1.2-0.1,2.4-0.2,3.5c-0.1,1.1-0.2,2.1-0.3,3.1c-0.1,0.5-0.1,0.9-0.2,1.4c-0.1,0.4-0.2,0.8-0.3,1.2
				c-0.2,0.8-0.4,1.4-0.6,1.9c-0.2,0.5-0.4,0.9-0.5,1.2c-0.1,0.3-0.2,0.4-0.2,0.4s0-0.2,0.1-0.5c0.1-0.3,0.2-0.7,0.2-1.3
				c0.1-0.5,0.2-1.2,0.3-2c0.1-0.8,0.1-1.6,0.3-2.6c0.1-0.9,0.2-2,0.3-3c0.1-1.1,0.1-2.2,0.2-3.4c0.1-2.4,0-4.9-0.1-7.4
				c-0.2-5.1-0.6-10.1-1-13.9c0-0.5-0.1-0.9-0.1-1.4c0-0.4,0-0.8,0-1.2c0-0.8,0-1.5,0-2c0-1.1,0-1.8,0-1.8s0.2,0.6,0.4,1.7
				c0.1,0.5,0.3,1.2,0.4,2c0.1,0.4,0.2,0.8,0.3,1.2c0.1,0.4,0.1,0.9,0.1,1.4c0.4,3.8,0.8,8.9,1,14
				C227.4,113.1,227.4,115.7,227.3,118.1z M232.7,130c2.8-17.2,0.1-35.9-0.3-38.3c4.3-0.7,7.5,0.5,9.5,3.4
				c4.3,6.1,2.7,18.2,0.5,24.9C239.8,128.5,234.1,129.8,232.7,130z M245.6,122.8c0.2-0.4,0.4-0.8,0.7-1.2c0.2-0.4,0.4-0.9,0.6-1.3
				c0.2-0.5,0.4-1,0.6-1.4c0.2-0.5,0.3-1,0.5-1.5c0.1-0.5,0.3-1.1,0.4-1.6c0.2-1.1,0.4-2.2,0.6-3.3c0.1-1.1,0.2-2.2,0.2-3.4
				c0-1.1,0-2.2-0.1-3.3c-0.2-2.1-0.5-4.1-0.9-5.7c-0.1-0.4-0.2-0.8-0.3-1.2c-0.1-0.4-0.1-0.7-0.2-1.1c-0.1-0.7-0.3-1.3-0.4-1.8
				c-0.2-1-0.4-1.5-0.4-1.5s0.3,0.5,0.8,1.4c0.2,0.5,0.5,1,0.8,1.7c0.1,0.3,0.3,0.7,0.4,1.1c0.1,0.4,0.2,0.8,0.3,1.2
				c0.4,1.7,0.8,3.7,1,5.9c0.1,1.1,0.1,2.2,0.2,3.4c0,1.1-0.1,2.3-0.2,3.5c-0.1,1.2-0.3,2.3-0.6,3.4c-0.1,0.6-0.3,1.1-0.4,1.7
				c-0.2,0.5-0.3,1.1-0.5,1.6c-0.2,0.5-0.4,1-0.6,1.5c-0.2,0.5-0.4,0.9-0.7,1.4c-0.2,0.4-0.5,0.9-0.7,1.3c-0.2,0.4-0.5,0.8-0.7,1.2
				c-0.2,0.4-0.5,0.7-0.7,1c-0.3,0.3-0.5,0.6-0.8,0.8c-0.5,0.5-1,0.9-1.4,1.3c-0.8,0.6-1.2,1-1.2,1s0.3-0.5,1-1.3
				c0.3-0.4,0.6-0.9,1-1.5c0.2-0.3,0.4-0.6,0.6-0.9c0.1-0.2,0.2-0.3,0.3-0.5c0.1-0.2,0.2-0.3,0.3-0.5
				C245.1,123.5,245.3,123.2,245.6,122.8z"/>
			<radialGradient id="SVGID_9_" cx="274.6001" cy="112.0132" r="25.2089" gradientUnits="userSpaceOnUse">
				<stop  offset="0.4073" style="stop-color:#DE3A95"/>
				<stop  offset="1" style="stop-color:#9351A0"/>
			</radialGradient>
			<path fill="url(#SVGID_9_)" d="M293,119.5c-1.5-4.9-7.9-10.3-13-14.6c-1.6-1.4-3.2-2.7-4.4-3.8c-2.2-2.1-3.3-4.4-3.3-6.7
				c0-2,1-3.9,2.6-5.2c1-0.8,2.1-1.2,3.2-1.2c1.9,0.1,3.4,1.5,3.9,2.8c0.2,0.5,0.4,1.6-0.5,2.4c-0.9,0.8-1.7,1.2-2.5,1.2
				c-0.9-0.1-1.4-0.7-1.5-0.7l-0.4-0.5l-0.1,0.6c-0.2,2.9,0.5,5.5,1.9,7.2c1.3,1.5,3.1,2.3,5.2,2.3c1.7,0,3.2-0.6,4.4-1.8
				c1.6-1.6,2.4-4.1,2.3-6.9c-0.1-4.1-5.1-12-14.2-12.6c-1.4-0.1-2.9,0-4.4,0.3c-7.5,1.4-10.7,5.9-12,9.3
				c-1.9,4.9-0.9,10.3,0.9,12.7c1.2,1.6,3.5,3.5,6.1,5.7c4.7,3.9,10.5,8.8,12.7,14c1.4,3.3,1.2,6.5-0.5,8.9
				c-1.3,1.9-3.4,2.9-5.6,2.8c-2.6-0.2-4.7-1.1-5.9-2.7c-1.4-1.8-1.8-4.4-1.2-7.2c0.6-3.1,3.1-3.7,5-3.6c1.1,0.1,2,0.4,2,0.4
				l0.3,0.1l0-0.3c0.3-1.6-0.3-3.4-1.6-5c-1.7-2.2-4.5-3.6-7.2-3.8c-1.9-0.1-3.6,0.4-5.3,1.4c-2.8,1.8-4.4,4.6-4.7,8
				c-0.4,4.6,1.7,9.5,5.7,13c3.9,3.5,8.5,5.5,13.5,5.8c4.1,0.2,8.1-0.7,11.5-2.7C292.6,135.4,295.4,127.3,293,119.5z M287.3,128.9
				c-0.1,0.4-0.3,0.8-0.5,1.2c-0.2,0.4-0.4,0.7-0.5,1c-0.4,0.6-0.7,1-0.9,1.2c-0.2,0.3-0.4,0.4-0.4,0.4s0.1-0.2,0.3-0.5
				c0.2-0.3,0.4-0.8,0.7-1.3c0.1-0.3,0.2-0.6,0.3-1c0.1-0.4,0.2-0.8,0.3-1.2c0-0.4,0.1-0.9,0.1-1.4c0-0.2,0-0.5,0.1-0.7
				c0-0.3,0-0.5,0-0.8c0-0.1,0-0.3,0-0.4c0-0.1,0-0.3,0-0.4c0-0.3-0.1-0.6-0.1-0.8c0-0.3-0.1-0.6-0.2-0.9c-0.1-0.3-0.1-0.6-0.2-0.9
				c-0.1-0.3-0.2-0.6-0.3-0.9c-0.1-0.3-0.3-0.6-0.4-0.9c-0.1-0.3-0.3-0.6-0.4-0.9c-0.2-0.3-0.3-0.6-0.5-0.9l-0.3-0.4L284,118
				c-0.2-0.3-0.4-0.6-0.6-0.8c-0.4-0.6-0.9-1.1-1.4-1.6c-0.5-0.5-1-1-1.5-1.5c-0.6-0.5-1.1-0.9-1.7-1.4c-1.1-0.9-2.3-1.9-3.5-2.8
				c-1.1-1-2.2-1.9-3.2-2.9c-0.5-0.5-1-1-1.5-1.5c-0.5-0.5-0.9-1-1.3-1.5c-0.4-0.5-0.8-1-1.1-1.5c-0.4-0.5-0.7-1-1-1.5
				c-0.2-0.2-0.3-0.5-0.4-0.7c-0.1-0.2-0.2-0.5-0.3-0.7c-0.2-0.5-0.3-1-0.4-1.5c-0.1-0.9-0.2-1.8,0-2.5c0-0.3,0.2-0.6,0.3-0.9
				c0.1-0.2,0.2-0.4,0.3-0.6c0.1-0.1,0.2-0.2,0.3-0.3c0.1-0.1,0.1-0.1,0.1-0.1s0,0-0.1,0.1c-0.1,0.1-0.1,0.2-0.2,0.3
				c-0.1,0.1-0.1,0.4-0.2,0.6c0,0.2-0.1,0.5-0.1,0.8c-0.1,0.6,0.1,1.4,0.4,2.2c0.3,0.8,0.8,1.7,1.3,2.6c0.3,0.5,0.6,1,0.9,1.4
				c0.4,0.5,0.7,1,1.1,1.5c0.4,0.5,0.8,1,1.3,1.5c0.4,0.5,0.9,1,1.4,1.4c1,1,2.1,1.9,3.2,2.9c1.1,0.9,2.3,1.8,3.5,2.8
				c0.6,0.5,1.2,0.9,1.7,1.4c0.5,0.5,1.1,1,1.6,1.6c0.5,0.6,1,1.1,1.5,1.7c0.2,0.3,0.4,0.6,0.6,0.9l0.3,0.4l0.3,0.5
				c0.2,0.3,0.4,0.6,0.5,0.9c0.2,0.3,0.3,0.6,0.5,0.9c0.1,0.3,0.3,0.6,0.4,0.9c0.1,0.3,0.2,0.6,0.3,1c0.1,0.3,0.2,0.6,0.2,1
				c0.1,0.3,0.1,0.6,0.2,0.9c0,0.3,0.1,0.6,0.1,0.9c0,0.2,0,0.3,0,0.4c0,0.1,0,0.3,0,0.4C287.9,127,287.6,128,287.3,128.9z"/>
		</g>
		<g>
			<path fill="#9F3D8D" d="M105.2,183.4l-1.3-0.4l0.2-1.6l-1.6-0.5l-0.7,1.4l-1.2-0.4l3.8-7.9l1.9,0.6L105.2,183.4z M103,179.8
				l1.3,0.4l0.6-4.4L103,179.8z"/>
			<path fill="#9F3D8D" d="M111.9,180.1l1.9,0.5l-0.7,2.7c-0.4,1.4-1.2,1.9-2.5,1.6c-1.3-0.3-1.8-1.3-1.4-2.6l1.1-4.4
				c0.4-1.4,1.2-1.9,2.5-1.6c1.3,0.3,1.8,1.3,1.4,2.6l-0.2,0.8l-1.3-0.3l0.2-0.9c0.2-0.6,0-0.9-0.5-1c-0.4-0.1-0.7,0-0.9,0.7
				l-1.2,4.6c-0.2,0.6,0.1,0.9,0.5,1c0.4,0.1,0.7,0,0.9-0.6l0.4-1.6l-0.6-0.2L111.9,180.1z"/>
			<path fill="#9F3D8D" d="M118.1,186.7l-1.3-0.3l0.1-1.6l-1.6-0.4l-0.6,1.5l-1.2-0.3l3.4-8.2l2,0.5L118.1,186.7z M115.7,183.3
				l1.3,0.3l0.4-4.4L115.7,183.3z"/>
			<path fill="#9F3D8D" d="M122.5,185l2.2-5.9l1.9,0.4l-1.8,8.5l-1.3-0.3l1.3-6.1l-2.2,5.9l-1.3-0.3l0.3-6.2l-1.3,6l-1.2-0.2
				l1.8-8.5l1.9,0.4L122.5,185z"/>
			<path fill="#9F3D8D" d="M128.5,183.7l1.8,0.4l-0.2,1.2l-1.8-0.4l-0.5,2.5l2.3,0.4l-0.2,1.2l-3.7-0.7l1.6-8.6l3.7,0.7l-0.2,1.2
				l-2.3-0.4L128.5,183.7z"/>
			<path fill="#9F3D8D" d="M134.5,183.2c0.2-1.4,1.1-2,2.4-1.8c1.3,0.2,1.9,1.1,1.7,2.5l-0.7,4.5c-0.2,1.4-1.1,2-2.4,1.8
				c-1.3-0.2-1.9-1.1-1.7-2.5L134.5,183.2z M135.1,187.9c-0.1,0.6,0.1,0.9,0.6,1c0.4,0.1,0.7-0.1,0.8-0.7l0.7-4.6
				c0.1-0.6-0.1-0.9-0.6-1c-0.4-0.1-0.7,0.1-0.8,0.7L135.1,187.9z"/>
			<path fill="#9F3D8D" d="M140.9,186l1.8,0.2l-0.2,1.2l-1.8-0.2l-0.5,3.6l-1.4-0.2l1.2-8.6l3.6,0.5l-0.2,1.2l-2.2-0.3L140.9,186z"
				/>
			<path fill="#9F3D8D" d="M148.8,183c1.3,0.1,1.9,1,1.8,2.4l0,0.3l-1.3-0.1l0-0.4c0.1-0.6-0.2-0.9-0.6-0.9c-0.4,0-0.7,0.2-0.8,0.8
				c-0.2,1.8,2.4,2.4,2.1,4.9c-0.2,1.4-0.9,2.1-2.3,1.9c-1.3-0.2-1.9-1-1.8-2.4l0.1-0.5l1.3,0.1l-0.1,0.6c-0.1,0.6,0.2,0.9,0.6,0.9
				c0.4,0,0.7-0.1,0.8-0.8c0.2-1.8-2.4-2.4-2.1-4.9C146.7,183.5,147.5,182.8,148.8,183z"/>
			<path fill="#9F3D8D" d="M153.1,183.5l-0.6,6.7c-0.1,0.6,0.2,0.9,0.6,0.9c0.4,0,0.7-0.2,0.8-0.8l0.6-6.7l1.3,0.1l-0.6,6.6
				c-0.1,1.4-0.9,2.1-2.2,2c-1.3-0.1-2-1-1.8-2.4l0.6-6.6L153.1,183.5z"/>
			<path fill="#9F3D8D" d="M158.8,187.9l1.9,0.1l-0.2,2.8c-0.1,1.4-0.8,2.1-2.2,2c-1.3-0.1-2-0.9-1.9-2.3l0.3-4.5
				c0.1-1.4,0.8-2.1,2.2-2c1.3,0.1,2,0.9,1.9,2.3l-0.1,0.8l-1.3-0.1l0.1-0.9c0-0.6-0.2-0.9-0.6-0.9c-0.4,0-0.7,0.2-0.8,0.8l-0.3,4.7
				c0,0.6,0.2,0.9,0.6,0.9c0.4,0,0.7-0.2,0.8-0.8l0.1-1.6l-0.6,0L158.8,187.9z"/>
			<path fill="#9F3D8D" d="M166.1,193.1l-1.4-0.1l-0.2-1.6l-1.7-0.1l-0.3,1.6l-1.3-0.1l1.8-8.6l2,0.1L166.1,193.1z M163.2,190.2
				l1.3,0.1l-0.5-4.4L163.2,190.2z"/>
			<path fill="#9F3D8D" d="M170.1,193.2c-0.1-0.2-0.1-0.4-0.1-1.1l0-1.4c0-0.8-0.3-1.1-0.9-1.1l-0.5,0l-0.1,3.5l-1.4,0l0.2-8.7
				l2.1,0c1.4,0,2,0.7,2,2l0,0.7c0,0.9-0.3,1.5-0.9,1.8c0.7,0.3,0.9,1,0.9,1.9l0,1.3c0,0.4,0,0.7,0.1,1.1L170.1,193.2z M168.8,185.7
				l-0.1,2.7l0.5,0c0.5,0,0.8-0.2,0.8-0.9l0-0.9c0-0.6-0.2-0.9-0.7-0.9L168.8,185.7z"/>
			<path fill="#9F3D8D" d="M173.7,190.3l-1.8-5.8l1.4,0l1.1,4l1-4l1.3,0l-1.7,5.8l0,2.9l-1.4,0L173.7,190.3z"/>
			<path fill="#9F3D8D" d="M184.9,192.9l-1.4,0.1l-0.3-1.6l-1.7,0.1l-0.2,1.6l-1.3,0.1l1-8.8l2-0.1L184.9,192.9z M181.7,190.3
				l1.3-0.1l-0.9-4.4L181.7,190.3z"/>
			<path fill="#9F3D8D" d="M185.5,184.1l2.2-0.2c1.4-0.1,2.1,0.6,2.2,2l0.3,4.4c0.1,1.4-0.5,2.2-1.9,2.3l-2.2,0.2L185.5,184.1z
				 M187,185.3l0.5,6.2l0.8-0.1c0.4,0,0.7-0.3,0.6-0.9l-0.4-4.5c0-0.6-0.3-0.8-0.8-0.8L187,185.3z"/>
			<path fill="#9F3D8D" d="M193.8,190.5l0.2-7.2l1.3-0.1l-0.4,8.8l-2,0.2l-2.3-8.5l1.4-0.2L193.8,190.5z"/>
			<path fill="#9F3D8D" d="M198.2,186.5l1.9-0.3l0.2,1.2l-1.9,0.3l0.4,2.5l2.3-0.3l0.2,1.2l-3.7,0.5l-1.3-8.6l3.7-0.5l0.2,1.2
				l-2.3,0.3L198.2,186.5z"/>
			<path fill="#9F3D8D" d="M202.8,184.4l1.2,6.2l-1.2,0.2l-1.6-8.6l1.7-0.3l2.3,4.9l-1-5.1l1.2-0.2l1.6,8.6l-1.4,0.3L202.8,184.4z"
				/>
			<path fill="#9F3D8D" d="M206.4,181.3l4.1-0.9l0.3,1.2l-1.4,0.3l1.7,7.3l-1.3,0.3l-1.7-7.3l-1.4,0.3L206.4,181.3z"/>
			<path fill="#9F3D8D" d="M212.7,179.8l1.8,6.5c0.2,0.6,0.5,0.7,0.9,0.6c0.4-0.1,0.6-0.4,0.5-1l-1.8-6.5l1.3-0.3l1.7,6.4
				c0.4,1.3-0.1,2.3-1.4,2.7c-1.3,0.4-2.2-0.2-2.5-1.6l-1.7-6.4L212.7,179.8z"/>
			<path fill="#9F3D8D" d="M221.9,186.1c-0.1-0.2-0.2-0.3-0.4-1l-0.4-1.3c-0.2-0.8-0.6-1-1.2-0.8l-0.5,0.1l1.1,3.4l-1.3,0.4
				l-2.7-8.3l2-0.6c1.4-0.4,2.1,0,2.5,1.3l0.2,0.7c0.3,0.9,0.2,1.5-0.3,2c0.7,0.1,1.2,0.6,1.4,1.5l0.4,1.3c0.1,0.4,0.2,0.7,0.5,1
				L221.9,186.1z M218.2,179.5l0.8,2.5l0.5-0.2c0.5-0.2,0.7-0.5,0.5-1.1l-0.3-0.8c-0.2-0.6-0.5-0.8-0.9-0.6L218.2,179.5z"/>
			<path fill="#9F3D8D" d="M224.2,180l1.8-0.7l0.4,1.2l-1.8,0.7l0.9,2.4l2.2-0.8l0.4,1.2l-3.5,1.3l-3.1-8.2l3.5-1.3l0.4,1.2
				l-2.2,0.8L224.2,180z"/>
			<path fill="#9F3D8D" d="M227.9,174.5c1.2-0.5,2.2-0.1,2.7,1.2l0.1,0.3l-1.2,0.5l-0.1-0.3c-0.2-0.6-0.6-0.7-1-0.5
				c-0.4,0.2-0.5,0.5-0.3,1.1c0.7,1.6,3.3,0.9,4.3,3.2c0.6,1.3,0.2,2.3-1,2.8c-1.2,0.5-2.2,0.1-2.7-1.2l-0.2-0.5l1.2-0.5l0.2,0.6
				c0.2,0.6,0.6,0.7,1,0.5c0.4-0.2,0.6-0.5,0.3-1.1c-0.7-1.6-3.3-0.9-4.3-3.2C226.3,176,226.6,175,227.9,174.5z"/>
		</g>
	</g>
</g>
</svg>
