<?xml version="1.0" encoding="UTF-8" standalone="no"?>
<svg width="400px" height="261px" viewBox="0 0 400 261" version="1.1" xmlns="http://www.w3.org/2000/svg" xmlns:xlink="http://www.w3.org/1999/xlink" xmlns:sketch="http://www.bohemiancoding.com/sketch/ns">
    <!-- Generator: Sketch 3.3.3 (12072) - http://www.bohemiancoding.com/sketch -->
    <title>rainbow</title>
    <desc>Created with Sketch.</desc>
    <defs>
        <path id="path-1" d="M88.3929825,164.481579 C88.3929825,122.224561 122.647368,87.9701754 164.902632,87.9701754 C207.159649,87.9701754 241.414912,122.224561 241.414912,164.481579 L329.333333,164.481579 C329.333333,73.6684211 255.715789,0.050877193 164.902632,0.050877193 C74.0912281,0.050877193 0.472807018,73.6684211 0.472807018,164.481579 L88.3929825,164.481579"></path>
    </defs>
    <g id="Page-1" stroke="none" stroke-width="1" fill="none" fill-rule="evenodd" sketch:type="MSPage">
        <g id="rainbow" sketch:type="MSLayerGroup">
            <path d="M200.508772,222.384211 C186.118421,222.384211 172.101754,222.548246 158.651754,222.85614 C158.835965,226.969298 157.096491,230.984211 154.399123,234.074561 C153.255263,235.385965 151.990351,236.472807 150.635965,237.357018 C155.776316,239.517544 158.664912,241.951754 158.664912,244.525439 C158.664912,250.076316 145.234211,254.974561 124.753509,257.894737 C147.89386,258.924561 173.52807,259.498246 200.508772,259.498246 C227.437719,259.498246 253.027193,258.927193 276.132456,257.9 C255.323684,254.980702 241.670175,250.079825 241.670175,244.525439 C241.670175,241.958772 244.587719,239.529825 249.779825,237.373684 C247.860526,236.115789 246.167544,234.513158 244.789474,232.632456 C243.357018,230.67807 242.308772,228.369298 241.9,225.976316 C241.72193,224.938596 241.635088,223.890351 241.681579,222.841228 C228.435088,222.542105 214.659649,222.384211 200.508772,222.384211" id="Fill-1" fill="#DFDCD9" sketch:type="MSShapeGroup"></path>
            <path d="M12.5824561,236.637719 C6.31052632,238.97193 2.73421053,241.662281 2.73421053,244.525439 C2.73421053,253.473684 37.6403509,260.726316 80.7008772,260.726316 C97.0464912,260.726316 112.221053,259.680702 124.753509,257.894737 C111.09386,257.285965 98.3052632,256.517544 86.6245614,255.614035 C83.8622807,256.355263 81.1114035,256.884211 78.1903509,256.884211 C77.4991228,256.884211 76.7973684,256.854386 76.0850877,256.790351 C71.8850877,256.416667 67.9114035,255.258772 64.1657895,253.564035 C33.345614,250.251754 14.5035088,245.816667 14.5035088,240.941228 C14.5035088,240.05 15.1333333,239.173684 16.3491228,238.315789 C15.0675439,237.816667 13.8096491,237.25614 12.5824561,236.637719" id="Fill-2" fill="#C2BEB8" sketch:type="MSShapeGroup"></path>
            <path d="M16.3491228,238.315789 C15.1333333,239.173684 14.5035088,240.05 14.5035088,240.941228 C14.5035088,245.816667 33.345614,250.251754 64.1657895,253.564035 C59.1280702,251.285088 54.5035088,248.034211 50.2929825,244.408772 C48.254386,242.652632 46.1166667,240.97193 43.3473684,240.667544 C42.8561404,240.614035 42.3622807,240.591228 41.8675439,240.591228 C40.5403509,240.591228 39.2061404,240.751754 37.8964912,240.900877 C35.9254386,241.122807 33.9684211,241.24386 32.0157895,241.24386 C29.4017544,241.24386 26.795614,241.027193 24.1780702,240.546491 C21.5122807,240.05614 18.8842105,239.304386 16.3491228,238.315789 M150.635965,237.357018 C147.217544,239.587719 143.226316,240.525439 139.144737,240.525439 C135.754386,240.525439 132.302632,239.877193 129.066667,238.785088 C128.792105,242.998246 126.129825,246.578947 122.535088,249.045614 C117.910526,252.220175 112.445614,252.778947 106.979825,252.816667 C101.639474,252.852632 96.3982456,252.639474 91.2359649,254.245614 C89.6754386,254.731579 88.1482456,255.205263 86.6245614,255.614035 C98.3052632,256.517544 111.09386,257.285965 124.753509,257.894737 C145.234211,254.974561 158.664912,250.076316 158.664912,244.525439 C158.664912,241.951754 155.776316,239.517544 150.635965,237.357018" id="Fill-3" fill="#ABA8A4" sketch:type="MSShapeGroup"></path>
            <path d="M388.644737,236.176316 C388.49386,236.25614 388.342982,236.334211 388.19386,236.410526 C386.957018,237.048246 385.692982,237.624561 384.40614,238.138596 C385.792105,239.052632 386.512281,239.988596 386.512281,240.941228 C386.512281,245.857895 367.346491,250.32807 336.054386,253.649123 C331.552632,255.661404 326.742105,256.907018 321.812281,256.907018 C321.335088,256.907018 320.854386,256.895614 320.374561,256.871053 C318.121053,256.758772 315.99386,256.259649 313.896491,255.652632 C302.313158,256.542105 289.646491,257.299123 276.132456,257.9 C288.847368,259.683333 304.232456,260.726316 320.809649,260.726316 C364.516667,260.726316 399.948246,253.473684 399.948246,244.525439 C399.948246,241.47193 395.820175,238.614912 388.644737,236.176316" id="Fill-4" fill="#C2BEB8" sketch:type="MSShapeGroup"></path>
            <path d="M384.40614,238.138596 C380.55614,239.677193 376.500877,240.661404 372.362281,241.080702 C371.327193,241.185965 370.304386,241.227193 369.288596,241.227193 C366.005263,241.227193 362.788596,240.790351 359.467544,240.629825 C359.198246,240.616667 358.932456,240.609649 358.667544,240.609649 C356.663158,240.609649 354.786842,241.004386 353.025439,242.103509 C350.924561,243.415789 349.171053,245.229825 347.235088,246.762281 C343.846491,249.442982 340.073684,251.851754 336.054386,253.649123 C367.346491,250.32807 386.512281,245.857895 386.512281,240.941228 C386.512281,239.988596 385.792105,239.052632 384.40614,238.138596 M249.779825,237.373684 C244.587719,239.529825 241.670175,241.958772 241.670175,244.525439 C241.670175,250.079825 255.323684,254.980702 276.132456,257.9 C289.646491,257.299123 302.313158,256.542105 313.896491,255.652632 C311.133333,254.852632 308.422807,253.866667 305.547368,253.334211 C302.999123,252.864035 300.417544,252.781579 297.828947,252.781579 C297.124561,252.781579 296.419298,252.787719 295.714035,252.79386 C295.00614,252.8 294.298246,252.80614 293.591228,252.80614 C292.081579,252.80614 290.574561,252.77807 289.076316,252.660526 C284.418421,252.294737 280.091228,250.974561 276.413158,248.005263 C273.479825,245.636842 271.507018,242.411404 271.272807,238.794737 C268.039474,239.916667 264.664035,240.600877 261.268421,240.600877 C259.447368,240.600877 257.62193,240.403509 255.808772,239.97193 C253.64386,239.45614 251.608772,238.571053 249.779825,237.373684" id="Fill-5" fill="#ABA8A4" sketch:type="MSShapeGroup"></path>
            <path d="M77.1868421,94.4070175 C72.0289474,98.5587719 66.7684211,102.770175 60.6175439,105.22193 C54.4675439,107.673684 47.1780702,108.148246 41.4149123,104.884211 C33.7964912,100.568421 30.7377193,90.7359649 31.8552632,82.0508772 C32.9710526,73.3640351 37.4280702,65.5184211 41.7964912,57.927193 C38.1254386,58.2666667 34.3614035,58.5973684 30.8,57.6403509 C27.2394737,56.6842105 23.8657895,54.1552632 22.972807,50.5780702 C22.1824561,47.4184211 23.5210526,43.9482456 25.9315789,41.7561404 C28.3403509,39.5657895 31.6666667,38.5587719 34.9254386,38.5236842 C40.1912281,38.4657895 45.4307018,40.9035088 48.7789474,44.9684211 C52.1280702,49.0324561 53.5166667,54.6429825 52.4526316,59.8 C51.3236842,65.2719298 47.7175439,69.8482456 45.2692982,74.8701754 C42.822807,79.8921053 41.7087719,86.4026316 45.2684211,90.7087719 C48.4035088,94.5008772 54.2017544,95.1210526 58.8464912,93.4964912 C63.4921053,91.872807 67.2570175,88.4640351 70.8850877,85.1403509 C73.7640351,88.6701754 76.6447368,92.2008772 79.5245614,95.7315789 L77.1868421,94.4070175" id="Fill-6" fill="#F0A67F" sketch:type="MSShapeGroup"></path>
            <path d="M47.5026316,57.927193 C46.0412281,58.0622807 44.5640351,58.1964912 43.0912281,58.2473684 C43.0649123,58.372807 43.0201754,58.4938596 42.9561404,58.6061404 C39.4508772,64.6991228 35.8719298,70.9 34.0684211,77.7491228 C31.5622807,87.2780702 33.4412281,100.092105 43.5640351,104.464035 C45.477193,105.291228 47.3912281,105.751754 49.2903509,105.914035 C48.5482456,105.624561 47.8236842,105.282456 47.1219298,104.884211 C39.5026316,100.568421 36.445614,90.7359649 37.5622807,82.0508772 C38.6780702,73.3640351 43.1350877,65.5184211 47.5026316,57.927193" id="Fill-7" fill="#FAD7BF" sketch:type="MSShapeGroup"></path>
            <path d="M34.4833333,39.8736842 C31.3526316,39.9947368 28.2429825,41.0719298 26.1561404,43.4394737 C23.004386,47.0175439 23.6745614,51.9701754 27.5201754,54.6675439 C29.5833333,56.1140351 31.9526316,56.7026316 34.3991228,56.8763158 C31.6894737,55.6236842 29.3929825,53.4350877 28.6789474,50.5780702 C27.8894737,47.4184211 29.2289474,43.9482456 31.6385965,41.7561404 C32.4868421,40.9842105 33.45,40.3596491 34.4833333,39.8736842" id="Fill-8" fill="#FAD7BF" sketch:type="MSShapeGroup"></path>
            <path d="M80.4745614,94.7807018 C77.5947368,91.2517544 74.7131579,87.7210526 71.8333333,84.1912281 C71.3614035,83.6114035 70.4263158,83.7403509 69.9342105,84.1912281 C66.3087719,87.5114035 62.4359649,91.1333333 57.577193,92.4877193 C53.4429825,93.6403509 48.1824561,92.9464912 45.7201754,89.045614 C43.304386,85.2192982 44.3815789,80.095614 46.1140351,76.2210526 C48.0561404,71.8798246 50.95,68.0412281 52.7,63.6008772 C56.0921053,54.9973684 53.0719298,44.9315789 45.1026316,40.0359649 C37.9482456,35.6421053 25.9447368,35.8929825 22.2403509,44.7298246 C20.3692982,49.1929825 21.9412281,53.8850877 25.772807,56.704386 C29.7315789,59.6175439 34.6368421,59.7885965 39.3692982,59.4684211 C33.5157895,69.8087719 27.8973684,81.4061404 31.3894737,93.4552632 C32.8798246,98.5991228 36.0105263,103.359649 40.7377193,106.044737 C46.2166667,109.15614 52.9982456,109.102632 58.8850877,107.259649 C66.0307018,105.020175 71.9938596,100.295614 77.7491228,95.6675439 C78.0236842,96.0052632 78.3,96.3429825 78.5736842,96.6807018 C79.6684211,98.0201754 81.5578947,96.1105263 80.4745614,94.7807018 M43.5640351,104.464035 C33.4412281,100.092105 31.5622807,87.2780702 34.0684211,77.7491228 C35.8719298,70.9 39.4508772,64.6991228 42.9561404,58.6061404 C43.4263158,57.7868421 42.8429825,56.4885965 41.7964912,56.5842105 C37.0377193,57.0201754 31.6614035,57.5701754 27.5201754,54.6675439 C23.6745614,51.9701754 23.004386,47.0175439 26.1561404,43.4394737 C29.2070175,39.977193 34.445614,39.272807 38.7385965,40.2877193 C43.2210526,41.3482456 47.1526316,44.2105263 49.3894737,48.254386 C51.545614,52.1517544 52.0192982,56.7991228 50.7473684,61.0587719 C49.4438596,65.4324561 46.6973684,69.1815789 44.6140351,73.1929825 C41.227193,79.7192982 39.5087719,89.5570175 47.0780702,93.9622807 C55.6166667,98.9324561 64.3710526,92.7447368 70.7394737,87.077193 C72.5131579,89.2517544 74.2868421,91.4245614 76.0596491,93.5991228 C67.2807018,100.655263 55.4289474,109.590351 43.5640351,104.464035" id="Fill-9" fill="#1B1A19" sketch:type="MSShapeGroup"></path>
            <path d="M39.4078947,40.4605263 C41.5824561,41.5570175 43.5368421,43.0877193 45.0859649,44.9684211 C48.4359649,49.0324561 49.8245614,54.6429825 48.7605263,59.8 C47.6298246,65.2719298 44.0236842,69.8482456 41.577193,74.8701754 C39.1307018,79.8921053 38.0157895,86.4026316 41.5754386,90.7087719 C43,92.4315789 44.9736842,93.4982456 47.1394737,93.9982456 C47.1192982,93.9868421 47.0982456,93.9745614 47.0780702,93.9622807 C39.5087719,89.5570175 41.227193,79.7192982 44.6140351,73.1929825 C46.6973684,69.1815789 49.4438596,65.4324561 50.7473684,61.0587719 C52.0192982,56.7991228 51.545614,52.1517544 49.3894737,48.254386 C47.2649123,44.4131579 43.6114035,41.6377193 39.4078947,40.4605263" id="Fill-10" fill="#E67750" sketch:type="MSShapeGroup"></path>
            <path d="M36.1149123,38.5219298 C36.0535088,38.5219298 35.9929825,38.522807 35.9315789,38.5236842 C35.2131579,38.5315789 34.4903509,38.5894737 33.7754386,38.6947368 C35.7315789,38.9675439 37.6421053,39.5701754 39.4078947,40.4605263 C43.6114035,41.6377193 47.2649123,44.4131579 49.3894737,48.254386 C51.545614,52.1517544 52.0192982,56.7991228 50.7473684,61.0587719 C49.4438596,65.4324561 46.6973684,69.1815789 44.6140351,73.1929825 C41.227193,79.7192982 39.5087719,89.5570175 47.0780702,93.9622807 C47.0982456,93.9745614 47.1192982,93.9868421 47.1394737,93.9982456 C48.127193,94.2254386 49.1552632,94.3359649 50.1894737,94.3359649 C50.9850877,94.3359649 51.7842105,94.2710526 52.572807,94.1447368 C50.1219298,93.727193 47.8587719,92.6236842 46.2745614,90.7087719 C42.7157895,86.4026316 43.8289474,79.8921053 46.277193,74.8701754 C48.7236842,69.8482456 52.3298246,65.2719298 53.4596491,59.8 C54.5254386,54.6429825 53.1350877,49.0324561 49.7868421,44.9684211 C46.4763158,40.95 41.3184211,38.5219298 36.1149123,38.5219298" id="Fill-11" fill="#1A1310" sketch:type="MSShapeGroup"></path>
            <path d="M320.714912,74.8122807 C325.872807,70.6614035 331.133333,66.4491228 337.284211,63.9964912 C343.434211,61.5447368 350.724561,61.0710526 356.485088,64.3342105 C364.10614,68.65 367.164035,78.4833333 366.046491,87.1692982 C364.930702,95.8552632 360.473684,103.701754 356.10614,111.291228 C359.777193,110.953509 363.540351,110.621053 367.101754,111.57807 C370.662281,112.535088 374.035965,115.063158 374.928947,118.641228 C375.719298,121.801754 374.378947,125.270175 371.970175,127.462281 C369.561404,129.655263 366.233333,130.660526 362.977193,130.696491 C357.710526,130.754386 352.471053,128.315789 349.12193,124.251754 C345.773684,120.186842 344.385088,114.576316 345.449123,109.417544 C346.57807,103.948246 350.185088,99.3710526 352.631579,94.35 C355.078947,89.3280702 356.192982,82.8157895 352.633333,78.5096491 C349.498246,74.7175439 343.699123,74.0991228 339.054386,75.722807 C334.410526,77.345614 330.644737,80.754386 327.016667,84.0789474 C324.136842,80.5482456 321.257018,77.0184211 318.377193,73.4877193 L320.714912,74.8122807" id="Fill-12" fill="#F0A67F" sketch:type="MSShapeGroup"></path>
            <path d="M348.611404,63.3052632 C349.352632,63.5947368 350.077193,63.9368421 350.77807,64.3342105 C358.399123,68.65 361.455263,78.4833333 360.339474,87.1692982 C359.223684,95.8552632 354.766667,103.701754 350.398246,111.291228 C351.860526,111.15614 353.337719,111.022807 354.809649,110.971053 C354.836842,110.846491 354.881579,110.725439 354.945614,110.613158 C358.450877,104.520175 362.028947,98.3201754 363.832456,91.4701754 C366.340351,81.9403509 364.458772,69.1280702 354.337719,64.7552632 C352.423684,63.9289474 350.512281,63.4675439 348.611404,63.3052632" id="Fill-13" fill="#FAD7BF" sketch:type="MSShapeGroup"></path>
            <path d="M363.503509,112.342982 C366.213158,113.594737 368.508772,115.783333 369.222807,118.641228 C370.012281,121.801754 368.67193,125.270175 366.263158,127.462281 C365.414035,128.235965 364.450877,128.859649 363.416667,129.345614 C366.548246,129.226316 369.658772,128.148246 371.745614,125.780702 C374.897368,122.200877 374.227193,117.249123 370.379825,114.552632 C368.317544,113.10614 365.949123,112.515789 363.503509,112.342982" id="Fill-14" fill="#FAD7BF" sketch:type="MSShapeGroup"></path>
            <path d="M372.128947,112.515789 C368.170175,109.602632 363.264912,109.429825 358.530702,109.751754 C364.385965,99.4105263 370.002632,87.8122807 366.512281,75.7649123 C365.021053,70.6201754 361.891228,65.8587719 357.163158,63.1754386 C351.684211,60.0631579 344.903509,60.1157895 339.015789,61.9605263 C331.871053,64.1982456 325.907018,68.922807 320.152632,73.5508772 C319.87807,73.2140351 319.601754,72.877193 319.326316,72.5385965 C318.233333,71.1991228 316.342982,73.1096491 317.42807,74.4377193 C320.307895,77.9692982 323.186842,81.4991228 326.066667,85.0280702 C326.540351,85.6070175 327.475439,85.4780702 327.967544,85.0280702 C331.59386,81.7070175 335.464912,78.0850877 340.322807,76.7307018 C344.458772,75.5789474 349.719298,76.2719298 352.181579,80.172807 C354.597368,83.9991228 353.521053,89.1236842 351.787719,92.9982456 C349.845614,97.3403509 346.952632,101.178947 345.201754,105.619298 C341.809649,114.22193 344.829825,124.286842 352.799123,129.182456 C359.953509,133.577193 371.955263,133.326316 375.659649,124.489474 C377.531579,120.026316 375.960526,115.335088 372.128947,112.515789 M371.745614,125.780702 C368.694737,129.242982 363.45614,129.946491 359.161404,128.930702 C354.678947,127.87193 350.748246,125.008772 348.512281,120.965789 C346.35614,117.068421 345.882456,112.419298 347.153509,108.159649 C348.457895,103.787719 351.204386,100.038596 353.287719,96.027193 C356.675439,89.5 358.39386,79.6631579 350.823684,75.2561404 C342.285088,70.2859649 333.529825,76.4736842 327.160526,82.1421053 C325.387719,79.9684211 323.613158,77.7938596 321.841228,75.6201754 C330.621053,68.5640351 342.472807,59.6298246 354.337719,64.7552632 C364.458772,69.1280702 366.340351,81.9403509 363.832456,91.4701754 C362.028947,98.3201754 358.450877,104.520175 354.945614,110.613158 C354.474561,111.432456 355.058772,112.729825 356.10614,112.634211 C360.864035,112.199123 366.238596,111.648246 370.379825,114.552632 C374.227193,117.249123 374.897368,122.200877 371.745614,125.780702" id="Fill-15" fill="#1B1A19" sketch:type="MSShapeGroup"></path>
            <path d="M125.235088,185.534211 C125.235088,143.277193 159.489474,109.022807 201.744737,109.022807 C244.001754,109.022807 278.257018,143.277193 278.257018,185.534211 L366.175439,185.534211 C366.175439,94.7210526 292.557895,21.1035088 201.744737,21.1035088 C110.933333,21.1035088 37.3149123,94.7210526 37.3149123,185.534211 L125.235088,185.534211" id="Fill-16" fill="#DA2A4B" sketch:type="MSShapeGroup"></path>
            <path d="M367.685965,187.04386 L276.745614,187.04386 L276.745614,185.534211 C276.745614,165.500877 268.944737,146.666667 254.77807,132.501754 C240.613158,118.334211 221.778947,110.534211 201.744737,110.534211 C181.711404,110.534211 162.877193,118.334211 148.712281,132.501754 C134.547368,146.666667 126.744737,165.500877 126.744737,185.534211 L126.744737,187.04386 L35.804386,187.04386 L35.804386,185.534211 C35.804386,163.131579 40.1921053,141.4 48.8464912,120.941228 C57.2035088,101.180702 69.1692982,83.4350877 84.4078947,68.1964912 C99.6464912,52.9561404 117.39386,40.9921053 137.154386,32.6333333 C157.611404,23.9807018 179.344737,19.5921053 201.744737,19.5921053 C224.145614,19.5921053 245.878947,23.9807018 266.337719,32.6333333 C286.098246,40.9921053 303.84386,52.9561404 319.083333,68.1964912 C334.322807,83.4350877 346.287719,101.180702 354.645614,120.941228 C363.298246,141.4 367.685965,163.131579 367.685965,185.534211 L367.685965,187.04386 M279.753509,184.022807 L364.657895,184.022807 C364.464912,162.561404 360.163158,141.74386 351.862281,122.119298 C343.657018,102.717544 331.909649,85.2947368 316.947368,70.3324561 C301.984211,55.3692982 284.561404,43.6219298 265.160526,35.4166667 C245.075439,26.9210526 223.739474,22.6140351 201.744737,22.6140351 C179.750877,22.6140351 158.414912,26.9210526 138.329825,35.4166667 C118.930702,43.6219298 101.507018,55.3692982 86.5429825,70.3324561 C71.5815789,85.2947368 59.8342105,102.717544 51.6289474,122.119298 C43.327193,141.74386 39.0254386,162.561404 38.8324561,184.022807 L123.738596,184.022807 C124.121053,163.746491 132.196491,144.744737 146.575439,130.364035 C161.312281,115.627193 180.90614,107.511404 201.744737,107.511404 C222.585965,107.511404 242.17807,115.627193 256.914912,130.364035 C271.295614,144.744737 279.371053,163.746491 279.753509,184.022807" id="Fill-17" fill="#1B1A19" sketch:type="MSShapeGroup"></path>
            <g id="Group-27" transform="translate(36.842105, 21.052632)">
                <mask id="mask-2" sketch:name="Clip 19" fill="white">
                    <use xlink:href="#path-1"></use>
                </mask>
                <g id="Clip-19"></g>
                <path d="M310.230702,162.038596 C310.230702,242.300877 245.164912,307.364912 164.902632,307.364912 C84.6412281,307.364912 19.5745614,242.300877 19.5745614,162.038596 C19.5745614,81.7754386 84.6412281,16.7114035 164.902632,16.7114035 C245.164912,16.7114035 310.230702,81.7754386 310.230702,162.038596" id="Fill-18" fill="#E26351" sketch:type="MSShapeGroup" mask="url(#mask-2)"></path>
                <path d="M164.902632,308.877193 C145.080702,308.877193 125.850877,304.994737 107.747368,297.337719 C90.2614035,289.941228 74.5578947,279.353509 61.072807,265.870175 C47.5868421,252.384211 37.0008772,236.680702 29.604386,219.194737 C21.9473684,201.091228 18.0657895,181.860526 18.0657895,162.037719 C18.0657895,142.215789 21.9473684,122.985088 29.604386,104.881579 C37.0008772,87.3964912 47.5868421,71.6921053 61.072807,58.2070175 C74.5578947,44.722807 90.2614035,34.1350877 107.747368,26.7385965 C125.850877,19.0815789 145.080702,15.1991228 164.902632,15.1991228 C184.725439,15.1991228 203.955263,19.0815789 222.060526,26.7385965 C239.545614,34.1350877 255.25,44.722807 268.734211,58.2070175 C282.218421,71.6921053 292.807018,87.3964912 300.201754,104.881579 C307.858772,122.985088 311.742105,142.215789 311.742105,162.037719 C311.742105,181.860526 307.858772,201.091228 300.201754,219.194737 C292.807018,236.680702 282.218421,252.384211 268.734211,265.870175 C255.25,279.353509 239.545614,289.941228 222.060526,297.337719 C203.955263,304.994737 184.725439,308.877193 164.902632,308.877193 M164.902632,18.2201754 C145.486842,18.2201754 126.652632,22.0236842 108.922807,29.5219298 C91.7973684,36.7657895 76.4175439,47.1359649 63.2096491,60.3438596 C50.0008772,73.5517544 39.6315789,88.9333333 32.3877193,106.058772 C24.8877193,123.788596 21.0859649,142.622807 21.0859649,162.037719 C21.0859649,181.453509 24.8877193,200.287719 32.3877193,218.017544 C39.6315789,235.142982 50.0008772,250.524561 63.2096491,263.732456 C76.4175439,276.940351 91.7973684,287.310526 108.922807,294.554386 C126.652632,302.052632 145.486842,305.85614 164.902632,305.85614 C184.319298,305.85614 203.153509,302.052632 220.883333,294.554386 C238.008772,287.310526 253.388596,276.940351 266.597368,263.732456 C279.80614,250.524561 290.176316,235.142982 297.420175,218.017544 C304.918421,200.287719 308.720175,181.453509 308.720175,162.037719 C308.720175,142.622807 304.918421,123.788596 297.420175,106.058772 C290.176316,88.9333333 279.80614,73.5517544 266.597368,60.3438596 C253.388596,47.1359649 238.008772,36.7657895 220.883333,29.5219298 C203.153509,22.0236842 184.319298,18.2201754 164.902632,18.2201754" id="Fill-20" fill="#1B1A19" sketch:type="MSShapeGroup" mask="url(#mask-2)"></path>
                <path d="M291,160.463158 C291,230.104386 234.544737,286.559649 164.902632,286.559649 C95.2614035,286.559649 38.8061404,230.104386 38.8061404,160.463158 C38.8061404,90.8210526 95.2614035,34.3666667 164.902632,34.3666667 C234.544737,34.3666667 291,90.8210526 291,160.463158" id="Fill-21" fill="#FCDE6F" sketch:type="MSShapeGroup" mask="url(#mask-2)"></path>
                <path d="M164.902632,288.071053 C147.677193,288.071053 130.965789,284.697368 115.231579,278.041228 C100.035965,271.615789 86.3894737,262.413158 74.6710526,250.695614 C62.9526316,238.977193 53.7517544,225.329825 47.3245614,210.134211 C40.6710526,194.401754 37.295614,177.689474 37.295614,160.463158 C37.295614,143.236842 40.6710526,126.524561 47.3245614,110.791228 C53.7517544,95.595614 62.9526316,81.9491228 74.6710526,70.2307018 C86.3894737,58.5122807 100.035965,49.3114035 115.231579,42.8850877 C130.965789,36.2298246 147.677193,32.8552632 164.902632,32.8552632 C182.129825,32.8552632 198.842105,36.2298246 214.574561,42.8850877 C229.770175,49.3114035 243.416667,58.5122807 255.135088,70.2307018 C266.854386,81.9491228 276.05614,95.595614 282.482456,110.791228 C289.137719,126.524561 292.511404,143.236842 292.511404,160.463158 C292.511404,177.689474 289.137719,194.401754 282.482456,210.134211 C276.05614,225.329825 266.854386,238.977193 255.135088,250.695614 C243.416667,262.413158 229.770175,271.615789 214.574561,278.041228 C198.842105,284.697368 182.129825,288.071053 164.902632,288.071053 M164.902632,35.8763158 C148.083333,35.8763158 131.768421,39.1701754 116.408772,45.6666667 C101.573684,51.9412281 88.2491228,60.9254386 76.8078947,72.3675439 C65.3657895,83.8087719 56.3815789,97.1333333 50.1078947,111.969298 C43.6105263,127.327193 40.3175439,143.642982 40.3175439,160.463158 C40.3175439,177.283333 43.6105263,193.598246 50.1078947,208.957018 C56.3815789,223.792982 65.3657895,237.117544 76.8078947,248.559649 C88.2491228,260.000877 101.573684,268.985088 116.408772,275.259649 C131.768421,281.755263 148.083333,285.05 164.902632,285.05 C181.722807,285.05 198.038596,281.755263 213.396491,275.259649 C228.233333,268.985088 241.557018,260.000877 253,248.559649 C264.441228,237.117544 273.424561,223.792982 279.7,208.957018 C286.195614,193.598246 289.490351,177.283333 289.490351,160.463158 C289.490351,143.642982 286.195614,127.327193 279.7,111.969298 C273.424561,97.1333333 264.441228,83.8087719 253,72.3675439 C241.557018,60.9254386 228.233333,51.9412281 213.396491,45.6666667 C198.038596,39.1701754 181.722807,35.8763158 164.902632,35.8763158" id="Fill-22" fill="#1B1A19" sketch:type="MSShapeGroup" mask="url(#mask-2)"></path>
                <path d="M273.984211,160.496491 C273.984211,220.739474 225.145614,269.576316 164.902632,269.576316 C104.659649,269.576316 55.822807,220.739474 55.822807,160.496491 C55.822807,100.253509 104.659649,51.4157895 164.902632,51.4157895 C225.145614,51.4157895 273.984211,100.253509 273.984211,160.496491" id="Fill-23" fill="#7CAE71" sketch:type="MSShapeGroup" mask="url(#mask-2)"></path>
                <path d="M164.902632,271.087719 C135.363158,271.087719 107.592105,259.583333 86.7035088,238.695614 C65.8157895,217.807018 54.3114035,190.035965 54.3114035,160.496491 C54.3114035,130.95614 65.8157895,103.184211 86.7035088,82.2964912 C107.592105,61.4087719 135.363158,49.9052632 164.902632,49.9052632 C194.44386,49.9052632 222.215789,61.4087719 243.103509,82.2964912 C263.991228,103.184211 275.49386,130.95614 275.49386,160.496491 C275.49386,190.035965 263.991228,217.807018 243.103509,238.695614 C222.215789,259.583333 194.44386,271.087719 164.902632,271.087719 M164.902632,52.9263158 C136.170175,52.9263158 109.157018,64.1157895 88.8403509,84.4315789 C68.5219298,104.749123 57.3333333,131.763158 57.3333333,160.496491 C57.3333333,189.228947 68.5219298,216.242982 88.8403509,236.559649 C109.157018,256.876316 136.170175,268.066667 164.902632,268.066667 C193.636842,268.066667 220.650877,256.876316 240.966667,236.559649 C261.284211,216.242982 272.473684,189.228947 272.473684,160.496491 C272.473684,131.763158 261.284211,104.749123 240.966667,84.4315789 C220.650877,64.1157895 193.636842,52.9263158 164.902632,52.9263158" id="Fill-24" fill="#1B1A19" sketch:type="MSShapeGroup" mask="url(#mask-2)"></path>
                <path d="M256.982456,162.662281 C256.982456,213.515789 215.757018,254.740351 164.902632,254.740351 C114.049123,254.740351 72.8245614,213.515789 72.8245614,162.662281 C72.8245614,111.807895 114.049123,70.5815789 164.902632,70.5815789 C215.757018,70.5815789 256.982456,111.807895 256.982456,162.662281" id="Fill-25" fill="#71B4CE" sketch:type="MSShapeGroup" mask="url(#mask-2)"></path>
                <path d="M164.902632,256.251754 C139.905263,256.251754 116.402632,246.514912 98.7254386,228.839474 C81.0482456,211.162281 71.3131579,187.659649 71.3131579,162.662281 C71.3131579,137.663158 81.0482456,114.159649 98.7254386,96.4842105 C116.402632,78.8070175 139.905263,69.0719298 164.902632,69.0719298 C189.902632,69.0719298 213.405263,78.8070175 231.080702,96.4842105 C248.757895,114.159649 258.492982,137.663158 258.492982,162.662281 C258.492982,187.659649 248.757895,211.162281 231.080702,228.839474 C213.405263,246.514912 189.902632,256.251754 164.902632,256.251754 M164.902632,72.0929825 C140.711404,72.0929825 117.967544,81.5131579 100.862281,98.6201754 C83.7561404,115.726316 74.3342105,138.470175 74.3342105,162.662281 C74.3342105,186.853509 83.7561404,209.597368 100.862281,226.702632 C117.967544,243.809649 140.711404,253.230702 164.902632,253.230702 C189.094737,253.230702 211.838596,243.809649 228.945614,226.702632 C246.050877,209.597368 255.47193,186.853509 255.47193,162.662281 C255.47193,138.470175 246.050877,115.726316 228.945614,98.6201754 C211.838596,81.5131579 189.094737,72.0929825 164.902632,72.0929825" id="Fill-26" fill="#1B1A19" sketch:type="MSShapeGroup" mask="url(#mask-2)"></path>
            </g>
            <path d="M203.704386,35.1070175 C205.761404,34.1850877 208.500877,32.945614 210.533333,34.5675439 C212.127193,35.8377193 212.994737,38.027193 213.947368,39.7710526 C215.850877,43.2605263 218.717544,46.8903509 223.140351,46.5789474 C227.173684,46.2964912 230.099123,42.6026316 229.72807,38.6245614 C229.552632,36.7587719 228.612281,34.8035088 226.949123,33.8254386 C224.896491,32.6201754 222.654386,33.5552632 220.766667,34.5947368 C218.87193,35.6359649 220.564912,38.5359649 222.459649,37.4929825 C223.202632,37.0850877 224.392105,36.2859649 225.254386,36.7245614 C225.876316,37.0403509 226.219298,37.9385965 226.344737,38.5640351 C226.649123,40.0815789 225.987719,41.7982456 224.685088,42.654386 C221.585088,44.6912281 218.733333,41.3964912 217.334211,38.9570175 C215.813158,36.304386 214.582456,33.1289474 211.883333,31.4315789 C208.725439,29.4438596 205.092105,30.8280702 202.010526,32.2078947 C200.042982,33.0894737 201.748246,35.9824561 203.704386,35.1070175" id="Fill-28" fill="#1B1A19" sketch:type="MSShapeGroup"></path>
            <path d="M199.005263,32.2078947 C196.004386,30.8640351 192.497368,29.504386 189.363158,31.2850877 C186.510526,32.9070175 185.233333,36.2508772 183.681579,38.9570175 C182.298246,41.3684211 179.584211,44.5657895 176.485088,42.7438596 C175.157018,41.9622807 174.457895,40.3710526 174.638596,38.8587719 C174.718421,38.1842105 174.999123,37.2192982 175.628947,36.8280702 C176.55,36.2552632 177.733333,37.0403509 178.55614,37.4929825 C180.449123,38.5350877 182.144737,35.6377193 180.25,34.5947368 C178.361404,33.5552632 176.117544,32.6210526 174.066667,33.8254386 C172.392982,34.8078947 171.476316,36.7526316 171.287719,38.6245614 C170.889474,42.6008772 173.860526,46.2982456 177.875439,46.5789474 C182.300877,46.8903509 185.162281,43.2587719 187.068421,39.7710526 C188.020175,38.0298246 188.891228,35.8377193 190.482456,34.5675439 C192.514912,32.9429825 195.258772,34.1868421 197.311404,35.1070175 C199.266667,35.9815789 200.975439,33.0894737 199.005263,32.2078947" id="Fill-29" fill="#1B1A19" sketch:type="MSShapeGroup"></path>
            <path d="M194.171053,46.1315789 L206.844737,46.1315789 C209.005263,46.1315789 209.008772,42.7745614 206.844737,42.7745614 L194.171053,42.7745614 C192.010526,42.7745614 192.007018,46.1315789 194.171053,46.1315789" id="Fill-30" fill="#1B1A19" sketch:type="MSShapeGroup"></path>
            <path d="M344.242982,115.235088 C344.675439,118.521053 346.007018,121.692982 348.114912,124.251754 C348.133333,124.273684 348.151754,124.296491 348.170175,124.318421 C346.934211,121.258772 345.626316,118.22807 344.242982,115.235088" id="Fill-31" fill="#DA293B" sketch:type="MSShapeGroup"></path>
            <path d="M350.764912,75.222807 C350.784211,75.2333333 350.804386,75.2447368 350.823684,75.2561404 C358.39386,79.6631579 356.675439,89.5 353.287719,96.027193 C351.468421,99.5298246 349.144737,102.832456 347.715789,106.524561 C348.209649,107.435965 348.694737,108.353509 349.17193,109.275439 C350.334211,103.868421 353.898246,99.327193 356.324561,94.35 C358.771053,89.3280702 359.885965,82.8157895 356.326316,78.5096491 C354.902632,76.7885965 352.929825,75.7219298 350.764912,75.222807" id="Fill-32" fill="#E67750" sketch:type="MSShapeGroup"></path>
            <path d="M347.709649,74.8833333 C346.914912,74.8833333 346.115789,74.9482456 345.328947,75.0745614 C347.779825,75.4912281 350.042982,76.5947368 351.625439,78.5096491 C355.185088,82.8157895 354.071053,89.3280702 351.624561,94.35 C350.020175,97.6438596 347.915789,100.745614 346.339474,104.034211 C346.804386,104.860526 347.264035,105.690351 347.715789,106.524561 C349.144737,102.832456 351.468421,99.5298246 353.287719,96.027193 C356.675439,89.5 358.39386,79.6631579 350.823684,75.2561404 C350.804386,75.2447368 350.784211,75.2333333 350.764912,75.222807 C349.775439,74.9938596 348.745614,74.8833333 347.709649,74.8833333" id="Fill-33" fill="#1A1310" sketch:type="MSShapeGroup"></path>
            <path d="M357.530702,128.236842 C357.561404,128.321053 357.592105,128.404386 357.623684,128.489474 C357.910526,128.586842 358.2,128.676316 358.492982,128.757895 C358.166667,128.59386 357.845614,128.420175 357.530702,128.236842" id="Fill-34" fill="#E67750" sketch:type="MSShapeGroup"></path>
            <path d="M357.623684,128.489474 C357.848246,129.102632 358.070175,129.719298 358.286842,130.334211 C359.436842,130.57193 360.610526,130.696491 361.786842,130.696491 C361.848246,130.696491 361.908772,130.695614 361.970175,130.694737 C362.689474,130.687719 363.410526,130.630702 364.125439,130.525439 C362.169298,130.252632 360.258772,129.648246 358.492982,128.757895 C358.2,128.676316 357.910526,128.586842 357.623684,128.489474" id="Fill-35" fill="#1A1310" sketch:type="MSShapeGroup"></path>
            <path d="M180.923684,4.23947368 C182.469298,3.91403509 184.069298,4.62017544 184.910526,5.94473684 C186.065789,7.76315789 188.972807,6.08070175 187.809649,4.25087719 C186.128947,1.60526316 183.088596,0.35877193 180.032456,1.00175439 C177.919298,1.44736842 178.813158,4.68421053 180.923684,4.23947368" id="Fill-36" fill="#1B1A19" sketch:type="MSShapeGroup"></path>
            <path d="M214.389474,8.16666667 C216.72193,7.10526316 219.053509,6.04385965 221.385088,4.98245614 C223.349123,4.08859649 221.644737,1.19385965 219.691228,2.08333333 C217.358772,3.14561404 215.027193,4.20701754 212.695614,5.26842105 C210.731579,6.1622807 212.435965,9.05701754 214.389474,8.16666667" id="Fill-37" fill="#1B1A19" sketch:type="MSShapeGroup"></path>
            <path d="M203.605263,67.8087719 C191.909649,67.8087719 180.214035,69.477193 169.019298,72.7842105 C148.199123,78.9342105 129.444737,90.9429825 115.130702,107.263158 C101.804386,122.458772 92.2342105,141.065789 88.2017544,160.904386 C89.6868421,161.761404 91.0807018,162.782456 92.3798246,163.92193 C92.7570175,161.876316 93.1938596,159.842105 93.6903509,157.82193 C98.145614,137.337719 108.368421,118.527193 123.545614,103.349123 C144.434211,82.4614035 172.205263,70.9578947 201.744737,70.9578947 C223.535088,70.9578947 244.361404,77.2157895 262.172807,88.8824561 C267.241228,92.0991228 272.009649,95.7885965 276.396491,99.9508772 C277.6,101.054386 278.784211,102.187719 279.945614,103.349123 C296.126316,119.529825 306.676316,139.84386 310.608772,161.909649 C311.592105,161.245614 312.616667,160.652632 313.680702,160.140351 C309.313158,142.42807 302.340351,125.169298 291.631579,110.377193 C285.330702,101.676316 277.815789,93.9482456 269.059649,87.6973684 C259.257018,80.6982456 248.005263,75.6245614 236.435965,72.3377193 C225.785088,69.3096491 214.694737,67.8087719 203.605263,67.8087719" id="Fill-38" fill="#ED9F4F" sketch:type="MSShapeGroup"></path>
            <path d="M276.396491,99.9508772 C278.948246,102.37193 281.37193,104.952632 283.650877,107.69386 C296.735088,123.437719 304.740351,142.95614 309.473684,162.719298 C309.845614,162.439474 310.223684,162.169298 310.608772,161.909649 C306.676316,139.84386 296.126316,119.529825 279.945614,103.349123 C278.784211,102.187719 277.6,101.054386 276.396491,99.9508772 M201.744737,70.9578947 C172.205263,70.9578947 144.434211,82.4614035 123.545614,103.349123 C108.368421,118.527193 98.145614,137.337719 93.6903509,157.82193 C97.4464912,142.537719 104.584211,128.053509 114.245614,115.667544 C126.895614,99.45 143.842982,86.7605263 163.181579,79.6614035 C176.104386,74.9166667 189.879825,72.4991228 203.649123,72.4991228 C211.714912,72.4991228 219.776316,73.3280702 227.667544,75.004386 C239.974561,77.6201754 251.712281,82.2447368 262.172807,88.8824561 C244.361404,77.2157895 223.535088,70.9578947 201.744737,70.9578947" id="Fill-39" fill="#1A1411" sketch:type="MSShapeGroup"></path>
            <path d="M203.473684,50.8236842 C190.205263,50.8236842 176.936842,52.6780702 164.216667,56.354386 C140.414035,63.2342105 118.888596,76.722807 102.382456,95.2078947 C86.5877193,112.896491 75.3219298,134.788596 70.9078947,158.139474 C70.8315789,158.541228 70.7578947,158.942982 70.6868421,159.344737 C72.2894737,158.688596 73.9675439,158.291228 75.6736842,158.123684 C77.7078947,147.880702 81.1,137.899123 85.6482456,128.477193 C91.9780702,114.627193 100.666667,102.129825 111.513158,91.2833333 C123.231579,79.5649123 136.87807,70.3640351 152.073684,63.9377193 C167.807895,57.2824561 184.519298,53.9078947 201.744737,53.9078947 C218.97193,53.9078947 235.684211,57.2824561 251.416667,63.9377193 C255.202632,65.5385965 258.892105,67.3114035 262.479825,69.2535088 C264.278947,70.1657895 266.054386,71.122807 267.804386,72.127193 C276.122807,76.9017544 283.659649,82.8175439 290.321053,89.6561404 C290.877193,90.1929825 291.428947,90.7359649 291.977193,91.2833333 C303.696491,103.001754 312.898246,116.648246 319.324561,131.84386 C322.97807,140.480702 325.642105,149.411404 327.302632,158.561404 C328.442982,158.847368 329.552632,159.245614 330.604386,159.763158 C325.699123,138.197368 317.473684,117.061404 304.397368,99.1491228 C297.202632,89.2929825 288.624561,80.5429825 278.65614,73.4780702 C267.375439,65.4833333 254.444737,59.7105263 241.157018,55.9719298 C228.925439,52.5307018 216.199123,50.8236842 203.473684,50.8236842" id="Fill-40" fill="#DA3332" sketch:type="MSShapeGroup"></path>
            <path d="M290.321053,89.6561404 C292.207018,91.5929825 294.022807,93.6026316 295.766667,95.6824561 C310.742982,113.542105 319.972807,135.699123 325.413158,158.19386 C326.048246,158.283333 326.679825,158.405263 327.302632,158.561404 C325.642105,149.411404 322.97807,140.480702 319.324561,131.84386 C312.898246,116.648246 303.696491,103.001754 291.977193,91.2833333 C291.428947,90.7359649 290.877193,90.1929825 290.321053,89.6561404 M201.744737,53.9078947 C184.519298,53.9078947 167.807895,57.2824561 152.073684,63.9377193 C136.87807,70.3640351 123.231579,79.5649123 111.513158,91.2833333 C100.666667,102.129825 91.9780702,114.627193 85.6482456,128.477193 C89.7517544,119.976316 94.7964912,111.932456 100.634211,104.559649 C115.352632,85.972807 134.960526,71.5710526 157.296491,63.5324561 C172.07193,58.2140351 187.79386,55.5131579 203.507018,55.5131579 C212.836842,55.5131579 222.164035,56.4657895 231.290351,58.3877193 C242.092105,60.6631579 252.631579,64.2649123 262.479825,69.2535088 C258.892105,67.3114035 255.202632,65.5385965 251.416667,63.9377193 C235.684211,57.2824561 218.97193,53.9078947 201.744737,53.9078947" id="Fill-41" fill="#1A0907" sketch:type="MSShapeGroup"></path>
            <path d="M201.162281,33.722807 C200.725439,33.7298246 200.285965,33.7385965 199.849123,33.7491228 C199.694737,34.5298246 198.955263,35.2701754 198.047368,35.2701754 C197.810526,35.2701754 197.563158,35.2192982 197.311404,35.1070175 C196.407895,34.7017544 195.369298,34.2333333 194.316667,33.9754386 C193.225439,34.0385965 192.135088,34.1122807 191.045614,34.1982456 C190.852632,34.2991228 190.664912,34.4219298 190.482456,34.5675439 C189.735088,35.1640351 189.146491,35.9640351 188.633333,36.8245614 C192.971053,36.4429825 197.34386,36.2517544 201.744737,36.2517544 C205.270175,36.2517544 208.775439,36.3745614 212.258772,36.6201754 C211.775439,35.8377193 211.22193,35.1166667 210.533333,34.5675439 C209.816667,33.995614 209.013158,33.7798246 208.181579,33.7798246 C206.655263,33.7798246 205.035965,34.5096491 203.704386,35.1070175 C203.452632,35.2192982 203.204386,35.2701754 202.967544,35.2701754 C202.05,35.2701754 201.304386,34.5131579 201.162281,33.722807" id="Fill-42" fill="#9D262E" sketch:type="MSShapeGroup"></path>
            <path d="M201.744737,36.2517544 C197.34386,36.2517544 192.971053,36.4429825 188.633333,36.8245614 C188.162281,37.6175439 187.755263,38.4622807 187.347368,39.2473684 C192.807895,38.677193 198.298246,38.3912281 203.788596,38.3912281 C206.987719,38.3912281 210.186842,38.4885965 213.380702,38.6833333 C213.030702,37.995614 212.670175,37.2859649 212.258772,36.6201754 C208.775439,36.3745614 205.270175,36.2517544 201.744737,36.2517544" id="Fill-43" fill="#130603" sketch:type="MSShapeGroup"></path>
            <path d="M224.690351,36.5964912 C223.923684,36.5964912 223.050877,37.1684211 222.459649,37.4929825 C222.340351,37.5587719 222.22193,37.6087719 222.104386,37.6447368 C223.5,37.8377193 224.890351,38.05 226.27807,38.2833333 C226.116667,37.6947368 225.788596,36.995614 225.254386,36.7245614 C225.07807,36.6342105 224.887719,36.5964912 224.690351,36.5964912 M214.535965,34.0587719 C215.177193,34.9692982 215.72193,35.9631579 216.249123,36.954386 C217.774561,37.1026316 219.295614,37.2754386 220.811404,37.4719298 C219.848246,36.8675439 219.478947,35.3017544 220.766667,34.5947368 L220.768421,34.5938596 C218.695614,34.3754386 216.616667,34.1973684 214.535965,34.0587719" id="Fill-44" fill="#9D262E" sketch:type="MSShapeGroup"></path>
            <path d="M216.249123,36.954386 C216.610526,37.6333333 216.963158,38.3114035 217.334211,38.9570175 C217.337719,38.9631579 217.341228,38.9692982 217.341228,38.9692982 C220.359649,39.2368421 223.361404,39.5850877 226.355263,40.0219298 C226.440351,39.5377193 226.440351,39.0412281 226.344737,38.5640351 C226.327193,38.4754386 226.304386,38.3807018 226.27807,38.2833333 C224.890351,38.05 223.5,37.8377193 222.104386,37.6447368 C221.945614,37.6929825 221.790351,37.7157895 221.640351,37.7157895 C221.337719,37.7157895 221.055263,37.6245614 220.811404,37.4719298 C219.295614,37.2754386 217.774561,37.1026316 216.249123,36.954386" id="Fill-45" fill="#130603" sketch:type="MSShapeGroup"></path>
            <path d="M186.067544,34.6622807 C184.355263,34.8491228 182.648246,35.0614035 180.942982,35.3017544 C181.423684,36.3254386 180.557895,37.7149123 179.375439,37.7149123 C179.113158,37.7149123 178.836842,37.6473684 178.55614,37.4929825 C177.939474,37.1535088 177.118421,36.6263158 176.357895,36.6263158 C176.105263,36.6263158 175.858772,36.6850877 175.628947,36.8280702 C175.036842,37.1964912 174.752632,38.072807 174.655263,38.7368421 C177.951754,38.1219298 181.272807,37.6210526 184.616667,37.2342105 C185.073684,36.3692982 185.540351,35.4903509 186.067544,34.6622807" id="Fill-46" fill="#9D262E" sketch:type="MSShapeGroup"></path>
            <path d="M184.616667,37.2342105 C181.272807,37.6210526 177.951754,38.1219298 174.655263,38.7368421 C174.649123,38.7780702 174.642982,38.8184211 174.638596,38.8587719 C174.55,39.6 174.672807,40.3587719 174.977193,41.0333333 C177.707895,40.5280702 180.45,40.0947368 183.204386,39.7342105 C183.377193,39.4710526 183.536842,39.2096491 183.681579,38.9570175 C184,38.4035088 184.305263,37.8219298 184.616667,37.2342105" id="Fill-47" fill="#130603" sketch:type="MSShapeGroup"></path>
            <path d="M228.749123,35.6368421 C229.302632,36.5412281 229.631579,37.595614 229.72807,38.6245614 C229.736842,38.7201754 229.74386,38.8149123 229.749123,38.9096491 C239.72193,40.8342105 249.465789,43.8 258.902632,47.7912281 C266.305263,50.922807 273.391228,54.627193 280.12193,58.8815789 C286.121053,62.5236842 291.754386,66.6894737 296.987719,71.3184211 C299.942105,73.8421053 302.805263,76.4894737 305.576316,79.2596491 C319.060526,92.7447368 329.649123,108.449123 337.04386,125.934211 C341.828947,137.248246 345.141228,149.004386 346.952632,161.069298 C347.857018,161.140351 348.757895,161.264035 349.649123,161.438596 C344.160526,135.387719 334.5,109.687719 318.610526,88.1692982 C310.331579,76.9578947 300.462281,67.0184211 289.010526,59.0429825 C276.263158,50.1657895 261.729825,43.7394737 246.796491,39.5561404 C240.866667,37.8947368 234.835965,36.5894737 228.749123,35.6368421" id="Fill-48" fill="#9D262E" sketch:type="MSShapeGroup"></path>
            <path d="M296.987719,71.3184211 C301.383333,75.2061404 305.497368,79.4192982 309.311404,83.9236842 C326.758772,104.52807 337.457018,130.207895 343.678947,156.269298 C344.055263,157.842105 344.414035,159.419298 344.757018,161.000877 C344.881579,160.998246 345.00614,160.997368 345.130702,160.997368 C345.738596,160.997368 346.345614,161.02193 346.952632,161.069298 C345.141228,149.004386 341.828947,137.248246 337.04386,125.934211 C329.649123,108.449123 319.060526,92.7447368 305.576316,79.2596491 C302.805263,76.4894737 299.942105,73.8421053 296.987719,71.3184211 M229.749123,38.9096491 C229.778947,39.4631579 229.745614,40.0087719 229.655263,40.5394737 C231.644737,40.8736842 233.627193,41.2473684 235.601754,41.6605263 C250.192105,44.7114035 264.385088,49.8640351 277.348246,57.2491228 C278.281579,57.7807018 279.20614,58.3245614 280.12193,58.8815789 C273.391228,54.627193 266.305263,50.922807 258.902632,47.7912281 C249.465789,43.8 239.72193,40.8342105 229.749123,38.9096491" id="Fill-49" fill="#130603" sketch:type="MSShapeGroup"></path>
            <path d="M171.67807,36.8833333 C167.513158,37.7175439 163.382456,38.7166667 159.301754,39.8789474 C132.078947,47.6280702 107.414912,62.9324561 88.4868421,83.9868421 C70.572807,103.915789 57.745614,128.598246 52.6517544,154.964912 C52.2464912,157.061404 51.895614,159.166667 51.5885965,161.279825 C52.7850877,161.092982 53.9947368,160.997368 55.204386,160.997368 C55.5824561,160.997368 55.9614035,161.007018 56.3403509,161.025439 C57.4105263,154.063158 59.0403509,147.192982 61.1798246,140.476316 C62.6719298,135.557018 64.4280702,130.70614 66.4464912,125.934211 C73.8429825,108.449123 84.4289474,92.7447368 97.9149123,79.2596491 C111.4,65.7754386 127.103509,55.1877193 144.589474,47.7912281 C153.238596,44.1333333 162.146491,41.3359649 171.252632,39.4131579 C171.25,39.1517544 171.261404,38.8885965 171.287719,38.6245614 C171.346491,38.0403509 171.476316,37.4491228 171.67807,36.8833333" id="Fill-50" fill="#9D262E" sketch:type="MSShapeGroup"></path>
            <path d="M171.252632,39.4131579 C162.146491,41.3359649 153.238596,44.1333333 144.589474,47.7912281 C127.103509,55.1877193 111.4,65.7754386 97.9149123,79.2596491 C84.4289474,92.7447368 73.8429825,108.449123 66.4464912,125.934211 C64.4280702,130.70614 62.6719298,135.557018 61.1798246,140.476316 C66.5350877,123.671053 75.0850877,107.850877 86.0605263,94.0973684 C102.976316,72.9008772 125.499123,56.545614 151.073684,47.4429825 C157.786842,45.054386 164.664912,43.1342105 171.644737,41.6868421 C171.397368,40.9649123 171.260526,40.1982456 171.252632,39.4131579" id="Fill-51" fill="#130603" sketch:type="MSShapeGroup"></path>
            <path d="M220.768421,34.5938596 L220.766667,34.5947368 C219.478947,35.3017544 219.848246,36.8675439 220.811404,37.4719298 C221.055263,37.6245614 221.337719,37.7157895 221.640351,37.7157895 C221.790351,37.7157895 221.945614,37.6929825 222.104386,37.6447368 C222.22193,37.6087719 222.340351,37.5587719 222.459649,37.4929825 C223.050877,37.1684211 223.923684,36.5964912 224.690351,36.5964912 C224.887719,36.5964912 225.07807,36.6342105 225.254386,36.7245614 C225.788596,36.995614 226.116667,37.6947368 226.27807,38.2833333 C226.304386,38.3807018 226.327193,38.4754386 226.344737,38.5640351 C226.440351,39.0412281 226.440351,39.5377193 226.355263,40.0219298 C227.457018,40.1824561 228.557018,40.3552632 229.655263,40.5394737 C229.745614,40.0087719 229.778947,39.4631579 229.749123,38.9096491 C229.74386,38.8149123 229.736842,38.7201754 229.72807,38.6245614 C229.631579,37.595614 229.302632,36.5412281 228.749123,35.6368421 C226.099123,35.222807 223.435965,34.8745614 220.768421,34.5938596 M203.763158,33.7017544 C202.895614,33.7017544 202.029825,33.7096491 201.162281,33.722807 C201.304386,34.5131579 202.05,35.2701754 202.967544,35.2701754 C203.204386,35.2701754 203.452632,35.2192982 203.704386,35.1070175 C205.035965,34.5096491 206.655263,33.7798246 208.181579,33.7798246 C209.013158,33.7798246 209.816667,33.995614 210.533333,34.5675439 C211.22193,35.1166667 211.775439,35.8377193 212.258772,36.6201754 C212.670175,37.2859649 213.030702,37.995614 213.380702,38.6833333 C214.702632,38.7640351 216.025439,38.8614035 217.344737,38.9754386 C217.344737,38.9754386 217.337719,38.9631579 217.334211,38.9570175 C216.963158,38.3114035 216.610526,37.6333333 216.249123,36.954386 C215.72193,35.9631579 215.177193,34.9692982 214.535965,34.0587719 C210.95,33.8210526 207.357895,33.7017544 203.763158,33.7017544" id="Fill-52" fill="#130603" sketch:type="MSShapeGroup"></path>
            <path d="M180.942982,35.3017544 C177.838596,35.7394737 174.75,36.2666667 171.67807,36.8833333 C171.476316,37.4491228 171.346491,38.0403509 171.287719,38.6245614 C171.261404,38.8885965 171.25,39.1517544 171.252632,39.4131579 C171.260526,40.1982456 171.397368,40.9649123 171.644737,41.6868421 C172.750877,41.4570175 173.864912,41.2385965 174.977193,41.0333333 C174.672807,40.3587719 174.55,39.6 174.638596,38.8587719 C174.642982,38.8184211 174.649123,38.7780702 174.655263,38.7368421 C174.752632,38.072807 175.036842,37.1964912 175.628947,36.8280702 C175.858772,36.6850877 176.105263,36.6263158 176.357895,36.6263158 C177.118421,36.6263158 177.939474,37.1535088 178.55614,37.4929825 C178.836842,37.6473684 179.113158,37.7149123 179.375439,37.7149123 C180.557895,37.7149123 181.423684,36.3254386 180.942982,35.3017544 M191.045614,34.1982456 C189.383333,34.327193 187.723684,34.4824561 186.067544,34.6622807 C185.540351,35.4903509 185.073684,36.3692982 184.616667,37.2342105 C184.305263,37.8219298 184,38.4035088 183.681579,38.9570175 C183.536842,39.2096491 183.377193,39.4710526 183.204386,39.7342105 C184.581579,39.554386 185.964912,39.3912281 187.347368,39.2473684 C187.755263,38.4622807 188.162281,37.6175439 188.633333,36.8245614 C189.146491,35.9640351 189.735088,35.1640351 190.482456,34.5675439 C190.664912,34.4219298 190.852632,34.2991228 191.045614,34.1982456 M199.849123,33.7491228 C198.003509,33.7929825 196.161404,33.8692982 194.316667,33.9754386 C195.369298,34.2333333 196.407895,34.7017544 197.311404,35.1070175 C197.563158,35.2192982 197.810526,35.2701754 198.047368,35.2701754 C198.955263,35.2701754 199.694737,34.5298246 199.849123,33.7491228" id="Fill-53" fill="#130603" sketch:type="MSShapeGroup"></path>
            <path d="M201.744737,22.6140351 C196.724561,22.6140351 191.737719,22.8377193 186.792982,23.2850877 C175.998246,24.3736842 165.312281,26.4535088 154.920175,29.5140351 C150.863158,30.7087719 146.863158,32.0570175 142.925439,33.554386 C141.385965,34.1508772 139.855263,34.7710526 138.329825,35.4166667 C118.930702,43.6219298 101.507018,55.3692982 86.5429825,70.3324561 C71.5815789,85.2947368 59.8342105,102.717544 51.6289474,122.119298 C45.5807018,136.415789 41.6561404,151.346491 39.895614,166.697368 C40.4324561,166.223684 40.9921053,165.778947 41.5710526,165.361404 C45.6736842,138.025439 57.2859649,111.863158 74.2473684,90.0877193 C92.7052632,66.3894737 117.449123,47.8903509 145.680702,37.5131579 C164.5,30.595614 184.564035,27.0824561 204.619298,27.0824561 C216.517544,27.0824561 228.411404,28.3184211 240.045614,30.8140351 C256.110526,34.2605263 271.704386,40.0614035 285.931579,48.3078947 C299.533333,56.1929825 311.475439,66.5017544 321.49386,78.6035088 C330.705263,89.7315789 338.191228,102.130702 344.242982,115.235088 C343.989474,113.301754 344.046491,111.328947 344.441228,109.417544 C344.564035,108.82193 344.716667,108.236842 344.89386,107.660526 C337.451754,93.9859649 328.092105,81.4763158 316.947368,70.3324561 C301.984211,55.3692982 284.561404,43.6219298 265.160526,35.4166667 C245.075439,26.9210526 223.739474,22.6140351 201.744737,22.6140351" id="Fill-54" fill="#E7827D" sketch:type="MSShapeGroup"></path>
            <path d="M349.024561,115.784211 C349.514912,118.801754 350.764912,121.698246 352.67807,124.083333 C352.410526,123.426316 352.139474,122.772807 351.862281,122.119298 C350.958772,119.982456 350.013158,117.87193 349.024561,115.784211" id="Fill-55" fill="#E7827D" sketch:type="MSShapeGroup"></path>
            <path d="M348.170175,124.318421 C352.842982,135.883333 356.497368,147.875439 359.318421,159.924561 C359.877193,162.314035 360.402632,164.711404 360.898246,167.114912 C361.484211,167.662281 362.041228,168.245614 362.564035,168.860526 C362.954386,168.621053 363.354386,168.404386 363.760526,168.208772 C362.354386,154.835088 359.309649,141.777193 354.653509,129.168421 C352.160526,128.069298 349.914035,126.412281 348.170175,124.318421" id="Fill-56" fill="#E7827D" sketch:type="MSShapeGroup"></path>
            <path d="M344.89386,107.660526 C344.716667,108.236842 344.564035,108.82193 344.441228,109.417544 C344.046491,111.328947 343.989474,113.301754 344.242982,115.235088 C345.626316,118.22807 346.934211,121.258772 348.170175,124.318421 C349.914035,126.412281 352.160526,128.069298 354.653509,129.168421 C354.025439,127.465789 353.365789,125.769298 352.67807,124.083333 C350.764912,121.698246 349.514912,118.801754 349.024561,115.784211 C347.72193,113.034211 346.342982,110.324561 344.89386,107.660526" id="Fill-57" fill="#E88171" sketch:type="MSShapeGroup"></path>
            <path d="M37.9,159.033333 C37.3359649,162.061404 36.8684211,165.107018 36.4763158,168.162281 C36.5464912,168.195614 36.6166667,168.228947 36.6868421,168.264035 C37.0052632,165.171053 37.4096491,162.092105 37.9,159.033333" id="Fill-58" fill="#FFFFFF" sketch:type="MSShapeGroup"></path>
            <path d="M367.685965,187.04386 L276.745614,187.04386 L276.745614,185.534211 C276.745614,165.500877 268.944737,146.666667 254.77807,132.501754 C240.613158,118.334211 221.778947,110.534211 201.744737,110.534211 C181.711404,110.534211 162.877193,118.334211 148.712281,132.501754 C134.547368,146.666667 126.744737,165.500877 126.744737,185.534211 L126.744737,187.04386 L35.804386,187.04386 L35.804386,185.534211 C35.804386,163.131579 40.1921053,141.4 48.8464912,120.941228 C57.2035088,101.180702 69.1692982,83.4350877 84.4078947,68.1964912 C99.6464912,52.9561404 117.39386,40.9921053 137.154386,32.6333333 C157.611404,23.9807018 179.344737,19.5921053 201.744737,19.5921053 C224.145614,19.5921053 245.878947,23.9807018 266.337719,32.6333333 C286.098246,40.9921053 303.84386,52.9561404 319.083333,68.1964912 C334.322807,83.4350877 346.287719,101.180702 354.645614,120.941228 C363.298246,141.4 367.685965,163.131579 367.685965,185.534211 L367.685965,187.04386 M279.753509,184.022807 L364.657895,184.022807 C364.464912,162.561404 360.163158,141.74386 351.862281,122.119298 C343.657018,102.717544 331.909649,85.2947368 316.947368,70.3324561 C301.984211,55.3692982 284.561404,43.6219298 265.160526,35.4166667 C245.075439,26.9210526 223.739474,22.6140351 201.744737,22.6140351 C179.750877,22.6140351 158.414912,26.9210526 138.329825,35.4166667 C118.930702,43.6219298 101.507018,55.3692982 86.5429825,70.3324561 C71.5815789,85.2947368 59.8342105,102.717544 51.6289474,122.119298 C43.327193,141.74386 39.0254386,162.561404 38.8324561,184.022807 L123.738596,184.022807 C124.121053,163.746491 132.196491,144.744737 146.575439,130.364035 C161.312281,115.627193 180.90614,107.511404 201.744737,107.511404 C222.585965,107.511404 242.17807,115.627193 256.914912,130.364035 C271.295614,144.744737 279.371053,163.746491 279.753509,184.022807" id="Fill-59" fill="#1B1A19" sketch:type="MSShapeGroup"></path>
            <path d="M383.730702,206.92807 C384.598246,204.945614 385.295614,202.848246 385.775439,200.707895 C386.513158,197.419298 386.735965,194.027193 386.262281,190.782456 C385.867544,188.074561 384.991228,185.469298 383.526316,183.114035 C379.158772,176.101754 368.514035,172.988596 362.216667,178.334211 C356.164035,169.564035 342.62807,167.154386 333.919298,173.294737 L332.200877,169.946491 C327.151754,166.028947 319.763158,166.109649 314.055263,168.984211 C308.348246,171.857018 304.14386,177.094737 301.129825,182.729825 C300.412281,184.069298 299.70614,185.496491 298.469298,186.381579 C296.617544,187.70614 294.115789,187.469298 291.850877,187.229825 C283.263158,186.322807 274.109649,186.335965 266.591228,190.585965 C261.897368,193.239474 258.181579,198.023684 256.926316,203.15614 C256.785965,203.72807 256.679825,204.302632 256.601754,204.879825 C256.264035,207.422807 256.553509,210.002632 257.650877,212.407895 C252.142105,210.369298 245.776316,214.421053 243.901754,219.95614 C243.657895,220.672807 243.487719,221.414912 243.407018,222.17193 C242.708772,228.77193 247.539474,235.142105 253.719298,237.561404 C259.898246,239.979825 266.999123,238.990351 273.072807,236.321053 C271.486842,243.288596 278.812281,249.318421 285.846491,250.578947 C289.139474,251.169298 292.502632,251.153509 295.864035,251.135088 C299.681579,251.116667 303.495614,251.098246 307.194737,251.968421 C310.026316,252.634211 312.717544,253.807895 315.542982,254.497368 C326.940351,257.275439 338.885088,251.771053 347.79386,244.138596 C349.914035,242.322807 352.014912,240.327193 354.668421,239.458772 C357.779825,238.442982 361.148246,239.127193 364.40614,239.435965 C374.25,240.370175 384.400877,237.623684 392.430702,231.853509 C394.539474,230.337719 396.569298,228.536842 397.585965,226.146491 C398.569298,223.835965 398.445614,221.262281 397.60614,218.876316 C396.981579,217.097368 395.960526,215.422807 394.695614,214.042982 C391.735088,210.807895 387.681579,208.829825 383.730702,206.92807" id="Fill-60" fill="#E7E7E4" sketch:type="MSShapeGroup"></path>
            <path d="M395.007018,214.403509 C394.209649,215.177193 393.329825,215.880702 392.430702,216.527193 C385.431579,221.55614 376.820175,224.289474 368.20614,224.289474 C366.937719,224.289474 365.670175,224.229825 364.40614,224.109649 C362.42807,223.922807 360.409649,223.596491 358.432456,223.596491 C357.152632,223.596491 355.891228,223.733333 354.668421,224.133333 C352.014912,225.000877 349.914035,226.995614 347.79386,228.811404 C340.485965,235.073684 331.133333,239.900877 321.718421,239.900877 C319.655263,239.900877 317.591228,239.670175 315.542982,239.171053 C312.717544,238.482456 310.026316,237.308772 307.194737,236.642105 C304.034211,235.898246 300.789474,235.804386 297.529825,235.804386 C296.974561,235.804386 296.420175,235.807018 295.864035,235.809649 C295.3,235.812281 294.735965,235.815789 294.172807,235.815789 C291.376316,235.815789 288.586842,235.74386 285.846491,235.251754 C278.812281,233.991228 271.486842,227.962281 273.072807,220.994737 C269.39386,222.612281 265.336842,223.612281 261.337719,223.612281 C258.734211,223.612281 256.155263,223.188596 253.719298,222.235088 C250.663158,221.039474 247.939474,218.873684 246.048246,216.192982 C245.725439,216.579825 245.425439,216.985088 245.150877,217.407018 C245.345614,218.422807 245.67193,219.454386 245.521053,220.401754 C245.355263,221.435965 245.028947,222.264035 245.020175,223.342982 C245.009649,224.641228 245.22807,225.890351 245.64386,227.120175 C247.12807,231.503509 250.965789,234.971053 255.334211,236.35614 C257.303509,236.980702 259.334211,237.259649 261.37193,237.259649 C265.088596,237.259649 268.822807,236.329825 272.226316,234.871053 C272.502632,234.753509 272.780702,234.698246 273.046491,234.698246 C274.085088,234.698246 274.928947,235.544737 274.691228,236.767544 C273.675439,242.010526 278.407895,246.157018 282.809649,247.95614 C286.069298,249.290351 289.631579,249.495614 293.176316,249.495614 C293.973684,249.495614 294.770175,249.485965 295.560526,249.475439 C296.361404,249.464035 297.157018,249.453509 297.944737,249.453509 C298.181579,249.453509 298.416667,249.454386 298.651754,249.45614 C303.379825,249.501754 307.67807,250.229825 312.150877,251.718421 C315.480702,252.826316 318.775439,253.516667 322.167544,253.516667 C323.551754,253.516667 324.953509,253.401754 326.378947,253.153509 C330.880702,252.366667 335.147368,250.616667 339.081579,248.317544 C343.060526,245.989474 346.300877,242.909649 349.959649,240.161404 C352.735088,238.07807 355.685088,237.291228 358.929825,237.291228 C359.691228,237.291228 360.468421,237.335088 361.264035,237.414912 C363.8,237.669298 366.297368,237.890351 368.809649,237.890351 C370.265789,237.890351 371.726316,237.815789 373.201754,237.631579 C377.815789,237.055263 382.368421,235.641228 386.5,233.511404 C389.75,231.836842 394.547368,229.322807 395.973684,225.685965 C396.522807,224.289474 396.730702,222.867544 396.513158,221.375439 C396.409649,220.670175 396.109649,220.014035 395.986842,219.32193 C395.826316,218.404386 396.248246,217.424561 396.47193,216.451754 C396.042982,215.726316 395.55,215.037719 395.007018,214.403509" id="Fill-61" fill="#B3C1C4" sketch:type="MSShapeGroup"></path>
            <path d="M394.695614,206.824561 C392.245614,204.147368 389.046491,202.332456 385.775439,200.707895 C385.295614,202.848246 384.599123,204.945614 383.729825,206.92807 C387.681579,208.829825 391.735088,210.807018 394.695614,214.042105 C395.959649,215.422807 396.980702,217.097368 397.60614,218.876316 C399.285088,214.851754 397.642982,210.045614 394.695614,206.824561" id="Fill-62" fill="#FFFFFF" sketch:type="MSShapeGroup"></path>
            <path d="M266.591228,191.833333 C274.109649,187.581579 283.263158,187.568421 291.850877,188.475439 C294.115789,188.714912 296.617544,188.953509 298.469298,187.627193 C299.70614,186.74386 300.412281,185.317544 301.129825,183.975439 C304.14386,178.341228 308.348246,173.105263 314.055263,170.230702 C319.763158,167.35614 327.151754,167.275439 332.200877,171.192982 L333.919298,174.541228 C342.62807,168.400877 356.164035,170.810526 362.216667,179.581579 C368.514035,174.235965 379.158772,177.349123 383.526316,184.362281 C384.991228,186.716667 385.867544,189.321053 386.262281,192.029825 C386.953509,186.834211 386.268421,181.550877 383.526316,177.144737 C379.158772,170.132456 368.514035,167.018421 362.216667,172.364912 C356.164035,163.59386 342.62807,161.183333 333.919298,167.323684 L332.200877,163.975439 C327.151754,160.057895 319.763158,160.139474 314.055263,163.014035 C308.348246,165.887719 304.14386,171.124561 301.129825,176.758772 C300.412281,178.1 299.70614,179.526316 298.469298,180.410526 C296.617544,181.735965 294.115789,181.498246 291.850877,181.258772 C283.263158,180.350877 274.109649,180.364912 266.591228,184.614912 C259.711404,188.505263 254.936842,196.97193 256.926316,204.403509 C258.181579,199.271053 261.897368,194.486842 266.591228,191.833333" id="Fill-63" fill="#FFFFFF" sketch:type="MSShapeGroup"></path>
            <path d="M257.650877,212.407018 C256.553509,210.002632 256.264035,207.423684 256.601754,204.880702 C250.632456,203.503509 244.068421,208.723684 243.407895,214.955263 C243.226316,216.658772 243.417544,218.346491 243.901754,219.955263 C245.776316,214.421053 252.142982,210.369298 257.650877,212.407018" id="Fill-64" fill="#FFFFFF" sketch:type="MSShapeGroup"></path>
            <path d="M17.2850877,206.92807 C16.4175439,204.945614 15.7201754,202.848246 15.2403509,200.707895 C14.5026316,197.419298 14.2798246,194.027193 14.7535088,190.782456 C15.1482456,188.074561 16.0245614,185.469298 17.4903509,183.114035 C21.8561404,176.101754 32.5008772,172.988596 38.7991228,178.334211 C44.8517544,169.564035 58.3877193,167.154386 67.0964912,173.294737 L68.8157895,169.946491 C73.8640351,166.028947 81.2517544,166.109649 86.9605263,168.984211 C92.6675439,171.857018 96.8719298,177.094737 99.8859649,182.729825 C100.603509,184.069298 101.309649,185.496491 102.546491,186.381579 C104.4,187.70614 106.9,187.469298 109.164912,187.229825 C117.752632,186.322807 126.907018,186.335965 134.424561,190.585965 C139.118421,193.239474 142.834211,198.023684 144.089474,203.15614 C144.229825,203.72807 144.335965,204.302632 144.414035,204.879825 C144.751754,207.422807 144.462281,210.002632 143.364912,212.407895 C148.873684,210.369298 155.238596,214.421053 157.113158,219.95614 C157.357018,220.672807 157.52807,221.414912 157.608772,222.17193 C158.308772,228.77193 153.476316,235.142105 147.296491,237.561404 C141.117544,239.979825 134.016667,238.990351 127.942105,236.321053 C129.528947,243.288596 122.203509,249.318421 115.169298,250.578947 C111.876316,251.169298 108.512281,251.153509 105.150877,251.135088 C101.332456,251.116667 97.5201754,251.098246 93.8210526,251.968421 C90.9894737,252.634211 88.2982456,253.807895 85.472807,254.497368 C74.0754386,257.275439 62.1315789,251.771053 53.2236842,244.138596 C51.1026316,242.322807 49.0008772,240.327193 46.3473684,239.458772 C43.2359649,238.442982 39.8684211,239.127193 36.6096491,239.435965 C26.7657895,240.370175 16.6157895,237.623684 8.58508772,231.853509 C6.47631579,230.337719 4.44649123,228.536842 3.42982456,226.146491 C2.44649123,223.835965 2.57017544,221.262281 3.40964912,218.876316 C4.03596491,217.097368 5.05526316,215.422807 6.32017544,214.042982 C9.28157895,210.807895 13.3342105,208.829825 17.2850877,206.92807" id="Fill-65" fill="#E7E7E4" sketch:type="MSShapeGroup"></path>
            <path d="M6.00877193,214.403509 C5.25438596,215.285088 4.59649123,216.271053 4.07280702,217.317544 C4.27368421,218.071053 4.45614035,218.816667 4.27280702,219.545614 C4.09912281,220.235088 3.87105263,220.89386 3.78684211,221.607018 C3.61666667,223.021053 3.84298246,224.368421 4.36140351,225.685965 C5.12719298,227.640351 7.10789474,229.213158 8.75087719,230.403509 C10.8289474,231.910526 13.077193,233.202632 15.4070175,234.279825 C20.0008772,236.405263 25.0535088,237.635088 30.1070175,237.885965 C30.5298246,237.907018 30.9508772,237.916667 31.3710526,237.916667 C34.8482456,237.916667 38.2491228,237.27193 41.7254386,237.245614 C41.7622807,237.245614 41.7964912,237.244737 41.8324561,237.244737 C46.3385965,237.245614 49.5657895,239.364035 52.8807018,242.219298 C59.6947368,248.086842 68.0140351,253.046491 77.2149123,253.514035 C77.5596491,253.530702 77.9017544,253.539474 78.2403509,253.539474 C82.8894737,253.539474 86.9342105,251.962281 91.4,250.692982 C95.3780702,249.561404 99.4815789,249.457895 103.585088,249.457895 C104.197368,249.457895 104.810526,249.459649 105.42193,249.462281 C105.708772,249.462281 105.995614,249.463158 106.283333,249.463158 C110.639474,249.463158 115.112281,249.326316 119.039474,247.236842 C122.85,245.210526 126.547368,241.439474 125.642982,236.767544 C125.407018,235.55 126.248246,234.697368 127.289474,234.697368 C127.554386,234.697368 127.832456,234.752632 128.108772,234.871053 C131.511404,236.330702 135.246491,237.260526 138.963158,237.260526 C141,237.260526 143.032456,236.980702 145,236.35614 C149.369298,234.969298 153.205263,231.504386 154.690351,227.120175 C155.107018,225.892105 155.324561,224.638596 155.314035,223.342982 C155.30614,222.269298 154.976316,221.425439 154.814035,220.401754 C154.620175,219.190351 155.191228,217.877193 155.299123,216.607018 C155.191228,216.467544 155.079825,216.328947 154.967544,216.192982 C153.076316,218.873684 150.352632,221.039474 147.296491,222.235088 C144.860526,223.188596 142.281579,223.612281 139.67807,223.612281 C135.678947,223.612281 131.62193,222.612281 127.942105,220.994737 C129.528947,227.962281 122.203509,233.991228 115.169298,235.251754 C112.42807,235.74386 109.638596,235.815789 106.842105,235.815789 C106.27807,235.815789 105.714035,235.812281 105.150877,235.809649 C104.594737,235.807018 104.039474,235.804386 103.484211,235.804386 C100.225439,235.804386 96.9815789,235.898246 93.8210526,236.642105 C90.9894737,237.308772 88.2982456,238.482456 85.472807,239.171053 C83.4245614,239.670175 81.3605263,239.900877 79.2973684,239.900877 C69.8824561,239.900877 60.5315789,235.073684 53.2236842,228.811404 C51.1026316,226.995614 49.0008772,225.000877 46.3473684,224.133333 C45.1245614,223.733333 43.8622807,223.596491 42.5833333,223.596491 C40.6061404,223.596491 38.5877193,223.922807 36.6096491,224.109649 C35.3464912,224.229825 34.0780702,224.289474 32.8096491,224.289474 C24.195614,224.289474 15.5842105,221.55614 8.58508772,216.527193 C7.68596491,215.880702 6.80614035,215.177193 6.00877193,214.403509" id="Fill-66" fill="#B3C1C4" sketch:type="MSShapeGroup"></path>
            <path d="M6.32017544,206.824561 C8.77017544,204.147368 11.9701754,202.332456 15.2403509,200.707895 C15.7201754,202.848246 16.4166667,204.945614 17.2859649,206.92807 C13.3342105,208.829825 9.28070175,210.807018 6.32017544,214.042105 C5.05614035,215.422807 4.03508772,217.097368 3.40964912,218.876316 C1.73070175,214.851754 3.37280702,210.045614 6.32017544,206.824561" id="Fill-67" fill="#FFFFFF" sketch:type="MSShapeGroup"></path>
            <path d="M134.424561,191.833333 C126.907018,187.581579 117.752632,187.568421 109.164912,188.475439 C106.9,188.714912 104.4,188.953509 102.546491,187.627193 C101.309649,186.74386 100.603509,185.317544 99.8859649,183.975439 C96.8719298,178.341228 92.6675439,173.105263 86.9605263,170.230702 C81.2517544,167.35614 73.8640351,167.275439 68.8157895,171.192982 L67.0964912,174.541228 C58.3877193,168.400877 44.8517544,170.810526 38.7991228,179.581579 C32.5008772,174.235965 21.8561404,177.349123 17.4903509,184.362281 C16.0245614,186.716667 15.1482456,189.321053 14.7535088,192.029825 C14.0622807,186.834211 14.7473684,181.550877 17.4903509,177.144737 C21.8561404,170.132456 32.5008772,167.018421 38.7991228,172.364912 C44.8517544,163.59386 58.3877193,161.183333 67.0964912,167.323684 L68.8157895,163.975439 C73.8640351,160.057895 81.2517544,160.139474 86.9605263,163.014035 C92.6675439,165.887719 96.8719298,171.124561 99.8859649,176.758772 C100.603509,178.1 101.309649,179.526316 102.546491,180.410526 C104.4,181.735965 106.9,181.498246 109.164912,181.258772 C117.752632,180.350877 126.907018,180.364912 134.424561,184.614912 C141.304386,188.505263 146.078947,196.97193 144.089474,204.403509 C142.834211,199.271053 139.118421,194.486842 134.424561,191.833333" id="Fill-68" fill="#FFFFFF" sketch:type="MSShapeGroup"></path>
            <path d="M143.364912,212.407018 C144.463158,210.002632 144.751754,207.423684 144.414035,204.880702 C150.382456,203.503509 156.947368,208.723684 157.607895,214.955263 C157.789474,216.658772 157.598246,218.346491 157.113158,219.955263 C155.238596,214.421053 148.873684,210.369298 143.364912,212.407018" id="Fill-69" fill="#FFFFFF" sketch:type="MSShapeGroup"></path>
            <path d="M158.468421,221.185965 C158.055263,218.826316 158.881579,216.492105 158.486842,214.054386 C158.147368,211.957895 157.203509,209.994737 155.911404,208.323684 C153.344737,205.002632 149.421053,202.917544 145.282456,203.037719 C145.321053,201.853509 145.555263,200.697368 145.541228,199.457895 C145.520175,197.747368 145.227193,196.010526 144.711404,194.378947 C143.695614,191.161404 141.87193,188.209649 139.536842,185.780702 C134.150877,180.176316 126.235088,178.17193 118.692105,177.890351 C114.536842,177.735965 110.485088,178.369298 106.351754,178.507895 C104.37807,178.574561 102.784211,178.170175 101.651754,176.449123 C100.592105,174.842982 99.8052632,173.059649 98.7578947,171.437719 C94.7666667,165.257018 88.9087719,159.74386 81.4429825,158.383333 C77.5263158,157.670175 73.4587719,157.998246 69.8377193,159.719298 C68.4605263,160.37193 67.1192982,161.113158 66.3850877,162.465789 C66.1649123,162.871053 65.9552632,163.281579 65.7464912,163.692105 C56.677193,158.585965 44.4701754,160.97193 37.7710526,168.860526 C31.4578947,165.001754 23.0219298,166.859649 17.8026316,172.001754 C14.4649123,175.289474 12.7675439,179.864035 12.2807018,184.455263 C11.9903509,187.190351 12.3789474,189.898246 12.2,192.62193 C12.0429825,195.022807 12.2605263,197.422807 12.6842105,199.785965 C6.83859649,202.861404 1.17807018,207.212281 0.443859649,214.267544 C0.36754386,215.00614 0.35877193,215.74386 0.435964912,216.483333 C0.513157895,217.241228 0.929824561,218.127193 0.930701754,218.853509 C0.93245614,219.531579 0.575438596,220.432456 0.485087719,221.152632 C0.251754386,222.994737 0.442105263,224.845614 1.12368421,226.57807 C2.70877193,230.620175 6.74298246,233.335965 10.3508772,235.429825 C14.6131579,237.901754 19.3333333,239.655263 24.1780702,240.546491 C28.7508772,241.385965 33.2868421,241.421053 37.8964912,240.900877 C39.695614,240.697368 41.5377193,240.469298 43.3473684,240.667544 C46.1166667,240.97193 48.254386,242.652632 50.2929825,244.408772 C57.6350877,250.729825 66.2368421,255.913158 76.0850877,256.790351 C81.4684211,257.269298 86.1789474,255.820175 91.2359649,254.245614 C96.3982456,252.639474 101.639474,252.852632 106.979825,252.816667 C112.445614,252.778947 117.910526,252.220175 122.535088,249.045614 C126.129825,246.578947 128.792105,242.998246 129.066667,238.785088 C137.739474,241.714035 147.966667,241.446491 154.399123,234.074561 C157.460526,230.566667 159.288596,225.867544 158.468421,221.185965 M69.4692982,163.798246 L69.4798246,163.778947 C69.6140351,163.581579 69.6368421,163.635088 69.4692982,163.798246 M154.814035,220.401754 C154.976316,221.425439 155.30614,222.269298 155.314035,223.342982 C155.324561,224.638596 155.107018,225.892105 154.690351,227.120175 C153.205263,231.504386 149.369298,234.969298 145,236.35614 C139.441228,238.121053 133.375439,237.129825 128.108772,234.871053 C126.746491,234.286842 125.347368,235.240351 125.642982,236.767544 C126.547368,241.439474 122.85,245.210526 119.039474,247.236842 C114.852632,249.464035 110.047368,249.472807 105.42193,249.462281 C100.710526,249.449123 95.9710526,249.392982 91.4,250.692982 C86.6096491,252.054386 82.3026316,253.771053 77.2149123,253.514035 C68.0140351,253.046491 59.6947368,248.086842 52.8807018,242.219298 C49.5394737,239.342105 46.2877193,237.212281 41.7254386,237.245614 C37.8289474,237.274561 34.0280702,238.080702 30.1070175,237.885965 C25.0535088,237.635088 20.0008772,236.405263 15.4070175,234.279825 C13.077193,233.202632 10.8289474,231.910526 8.75087719,230.403509 C7.10789474,229.213158 5.12719298,227.640351 4.36140351,225.685965 C3.84298246,224.368421 3.61666667,223.021053 3.78684211,221.607018 C3.87105263,220.89386 4.09912281,220.235088 4.27280702,219.545614 C4.60175439,218.234211 3.74912281,216.868421 3.73245614,215.501754 C3.66140351,208.759649 10.1192982,204.803509 15.4052632,202.15614 C16.0929825,201.812281 16.3254386,200.957895 16.1780702,200.261404 C15.6596491,197.842982 15.4070175,195.403509 15.5412281,192.930702 C15.6017544,191.791228 15.727193,190.763158 15.6210526,189.627193 C15.5219298,188.572807 15.4833333,187.512281 15.5105263,186.452632 C15.6087719,182.394737 16.7912281,178.07193 19.5701754,175.005263 C23.7350877,170.410526 31.7114035,168.048246 36.9298246,172.304386 C37.8184211,173.02807 38.8973684,172.909649 39.5657895,171.964912 C45.2929825,163.885965 57.4947368,161.984211 65.5684211,167.527193 C66.2877193,168.021053 67.4736842,167.688596 67.8649123,166.923684 C68.2254386,166.220175 68.5877193,165.516667 68.95,164.812281 C69.1140351,164.492982 69.2535088,164.134211 69.45,163.831579 C69.8096491,163.545614 70.2552632,163.294737 70.6482456,163.072807 C73.6122807,161.399123 77.2333333,161.031579 80.5508772,161.620175 C87.5570175,162.866667 92.8491228,168.179825 96.4289474,174.040351 C98.1649123,176.879825 99.3342105,180.34386 102.79386,181.469298 C106.149123,182.561404 110.137719,181.453509 113.573684,181.288596 C120.702632,180.947368 128.537719,181.584211 134.536842,185.859649 C137.473684,187.951754 139.876316,190.992105 141.161404,194.367544 C141.811404,196.071053 142.189474,197.865789 142.183333,199.691228 C142.179825,200.567544 142.076316,201.395614 141.903509,202.252632 C141.682456,203.345614 141.947368,204.223684 142.113158,205.326316 C142.254386,206.264912 143.37807,206.661404 144.178947,206.498246 C148.565789,205.60614 153.040351,208.753509 154.658772,212.748246 C155.108772,213.85614 155.318421,215.035965 155.315789,216.22807 C155.313158,217.614035 154.600877,219.068421 154.814035,220.401754" id="Fill-70" fill="#1B1A19" sketch:type="MSShapeGroup"></path>
            <path d="M195.122807,21.7254386 C195.122807,26.2105263 187.948246,29.845614 179.099123,29.845614 C170.25,29.845614 163.077193,26.2105263 163.077193,21.7254386 C163.077193,17.2421053 170.25,13.6070175 179.099123,13.6070175 C187.948246,13.6070175 195.122807,17.2421053 195.122807,21.7254386" id="Fill-71" fill="#FFFFFF" sketch:type="MSShapeGroup"></path>
            <path d="M179.099123,31.3561404 C169.268421,31.3561404 161.565789,27.1263158 161.565789,21.7254386 C161.565789,16.3254386 169.268421,12.095614 179.099123,12.095614 C188.930702,12.095614 196.632456,16.3254386 196.632456,21.7254386 C196.632456,27.1263158 188.930702,31.3561404 179.099123,31.3561404 L179.099123,31.3561404 Z M179.099123,15.1166667 C175.052632,15.1166667 171.271053,15.9035088 168.452632,17.3324561 C165.996491,18.577193 164.587719,20.1780702 164.587719,21.7254386 C164.587719,24.8517544 170.547368,28.3350877 179.099123,28.3350877 C183.146491,28.3350877 186.92807,27.5482456 189.746491,26.1201754 C192.202632,24.8754386 193.611404,23.2736842 193.611404,21.7254386 C193.611404,18.6 187.651754,15.1166667 179.099123,15.1166667 L179.099123,15.1166667 Z" id="Fill-72" fill="#1B1A19" sketch:type="MSShapeGroup"></path>
            <path d="M237.938596,21.7254386 C237.938596,26.2105263 230.764912,29.845614 221.915789,29.845614 C213.066667,29.845614 205.89386,26.2105263 205.89386,21.7254386 C205.89386,17.2421053 213.066667,13.6070175 221.915789,13.6070175 C230.764912,13.6070175 237.938596,17.2421053 237.938596,21.7254386" id="Fill-73" fill="#FFFFFF" sketch:type="MSShapeGroup"></path>
            <path d="M221.915789,31.3561404 C212.085088,31.3561404 204.383333,27.1263158 204.383333,21.7254386 C204.383333,16.3254386 212.085088,12.095614 221.915789,12.095614 C231.748246,12.095614 239.45,16.3254386 239.45,21.7254386 C239.45,27.1263158 231.748246,31.3561404 221.915789,31.3561404 L221.915789,31.3561404 Z M221.915789,15.1166667 C217.868421,15.1166667 214.088596,15.9035088 211.269298,17.3324561 C208.813158,18.577193 207.404386,20.1789474 207.404386,21.7254386 C207.404386,24.8517544 213.364035,28.3350877 221.915789,28.3350877 C225.963158,28.3350877 229.744737,27.5482456 232.563158,26.1201754 C235.020175,24.8754386 236.42807,23.2736842 236.42807,21.7254386 C236.42807,18.6 230.468421,15.1166667 221.915789,15.1166667 L221.915789,15.1166667 Z" id="Fill-74" fill="#1B1A19" sketch:type="MSShapeGroup"></path>
            <path d="M206.67807,21.1035088 C206.67807,21.1035088 220.586842,12.1868421 237.938596,21.1035088 C237.938596,21.1035088 233.130702,13.6877193 223.874561,13.6692982 C213.691228,13.6464912 206.420175,17.5921053 206.67807,21.1035088" id="Fill-75" fill="#F0A67F" sketch:type="MSShapeGroup"></path>
            <path d="M237.938596,22.6140351 C237.704386,22.6140351 237.467544,22.5596491 237.249123,22.4473684 C232.347368,19.9289474 227.257895,18.6508772 222.12193,18.6508772 C213.404386,18.6508772 207.551754,22.3377193 207.49386,22.3754386 C207.046491,22.6631579 206.478947,22.6929825 206.002632,22.454386 C205.526316,22.2166667 205.210526,21.745614 205.17193,21.2149123 C205.10614,20.3175439 205.319298,18.9342105 206.710526,17.4359649 C209.690351,14.2298246 216.39386,12.1587719 223.791228,12.1587719 L223.877193,12.1587719 C233.838596,12.1798246 238.992105,19.9508772 239.20614,20.2815789 C239.578947,20.8561404 239.519298,21.6087719 239.059649,22.1166667 C238.764912,22.4421053 238.355263,22.6140351 237.938596,22.6140351 L237.938596,22.6140351 Z M222.12193,15.6298246 C224.883333,15.6298246 227.62807,15.9649123 230.338596,16.6315789 C228.553509,15.7877193 226.395614,15.1850877 223.871053,15.1798246 L223.791228,15.1798246 C220.854386,15.1798246 217.397368,15.604386 214.441228,16.5026316 C216.663158,15.9912281 219.249123,15.6298246 222.12193,15.6298246 L222.12193,15.6298246 Z" id="Fill-76" fill="#1B1A19" sketch:type="MSShapeGroup"></path>
            <path d="M163.59386,21.1035088 C163.59386,21.1035088 177.501754,12.1868421 194.854386,21.1035088 C194.854386,21.1035088 190.046491,13.6877193 180.789474,13.6692982 C170.60614,13.6464912 163.335088,17.5921053 163.59386,21.1035088" id="Fill-77" fill="#F0A67F" sketch:type="MSShapeGroup"></path>
            <path d="M194.853509,22.6140351 C194.619298,22.6140351 194.382456,22.5596491 194.163158,22.4473684 C189.262281,19.9289474 184.172807,18.6508772 179.037719,18.6508772 C170.319298,18.6508772 164.467544,22.3377193 164.408772,22.3754386 C163.960526,22.6631579 163.394737,22.6929825 162.918421,22.454386 C162.442105,22.2166667 162.126316,21.745614 162.086842,21.2149123 C162.021053,20.3175439 162.234211,18.9342105 163.626316,17.4359649 C166.604386,14.2298246 173.309649,12.1587719 180.705263,12.1587719 L180.792105,12.1587719 C190.753509,12.1798246 195.907018,19.9508772 196.12193,20.2815789 C196.49386,20.8561404 196.433333,21.6087719 195.974561,22.1166667 C195.680702,22.4421053 195.270175,22.6140351 194.853509,22.6140351 L194.853509,22.6140351 Z M179.037719,15.6298246 C181.799123,15.6298246 184.542982,15.9649123 187.253509,16.6315789 C185.468421,15.7877193 183.310526,15.1850877 180.785965,15.1798246 L180.705263,15.1798246 C177.769298,15.1798246 174.311404,15.6052632 171.357018,16.5026316 C173.57807,15.9912281 176.164035,15.6298246 179.037719,15.6298246 L179.037719,15.6298246 Z" id="Fill-78" fill="#1B1A19" sketch:type="MSShapeGroup"></path>
            <path d="M185.035088,23.2368421 C185.035088,26.4482456 182.431579,29.0508772 179.220175,29.0508772 C176.008772,29.0508772 173.40614,26.4482456 173.40614,23.2368421 C173.40614,20.0254386 176.008772,17.4219298 179.220175,17.4219298 C182.431579,17.4219298 185.035088,20.0254386 185.035088,23.2368421" id="Fill-79" fill="#1B1A19" sketch:type="MSShapeGroup"></path>
            <path d="M228.123684,23.2368421 C228.123684,26.4482456 225.520175,29.0508772 222.308772,29.0508772 C219.097368,29.0508772 216.49386,26.4482456 216.49386,23.2368421 C216.49386,20.0254386 219.097368,17.4219298 222.308772,17.4219298 C225.520175,17.4219298 228.123684,20.0254386 228.123684,23.2368421" id="Fill-80" fill="#1B1A19" sketch:type="MSShapeGroup"></path>
            <path d="M399.388596,218.864035 C399.422807,218.199123 399.786842,217.4 399.869298,216.707018 C399.966667,215.890351 399.975439,215.085088 399.891228,214.267544 C399.15614,207.212281 393.495614,202.861404 387.650877,199.785965 C388.074561,197.422807 388.295614,195.02193 388.133333,192.62193 C387.951754,189.895614 388.342105,187.192982 388.054386,184.455263 C387.572807,179.866667 385.865789,175.285965 382.533333,172.001754 C377.312281,166.857895 368.876316,165.001754 362.564035,168.860526 C355.866667,160.973684 343.663158,158.587719 334.592982,163.687719 C333.929825,162.396491 333.234211,161.296491 331.810526,160.425439 C328.860526,158.623684 325.292982,157.868421 321.858772,158.033333 C314.260526,158.397368 307.917544,162.916667 303.427193,168.809649 C302.235088,170.373684 301.158772,172.017544 300.192982,173.730702 C299.27807,175.355263 298.541228,177.52193 296.647368,178.232456 C294.987719,178.855263 292.999123,178.445614 291.289474,178.274561 C289.217544,178.069298 287.136842,177.917544 285.053509,177.870175 C277.4,177.696491 269.14386,178.914912 262.980702,183.80614 C259.940351,186.219298 257.546491,189.42193 256.108772,193.027193 C255.379825,194.859649 254.938596,196.787719 254.821053,198.757895 C254.732456,200.218421 255.032456,201.62193 255.062281,203.037719 C251.546491,202.930702 248.159649,204.404386 245.625439,206.935965 C244.07193,208.485965 242.874561,210.407895 242.213158,212.501754 C241.898246,213.497368 241.734211,214.55 241.67807,215.592982 C241.598246,217.086842 242.111404,218.47807 242.114035,219.928947 C242.114912,220.647368 241.801754,221.441228 241.728947,222.17193 C241.602632,223.442982 241.684211,224.718421 241.9,225.976316 C242.308772,228.369298 243.357018,230.67807 244.789474,232.632456 C247.481579,236.30614 251.371053,238.915789 255.808772,239.97193 C261,241.209649 266.305263,240.517544 271.272807,238.794737 C271.507018,242.411404 273.479825,245.636842 276.413158,248.005263 C280.091228,250.974561 284.418421,252.294737 289.076316,252.660526 C291.27807,252.832456 293.494737,252.814035 295.714035,252.79386 C299.008772,252.764912 302.305263,252.735965 305.547368,253.334211 C310.605263,254.270175 315.152632,256.611404 320.374561,256.871053 C330.224561,257.361404 339.683333,252.735965 347.235088,246.762281 C349.171053,245.229825 350.924561,243.415789 353.025439,242.103509 C355.018421,240.859649 357.159649,240.517544 359.467544,240.629825 C363.816667,240.839474 367.985965,241.524561 372.362281,241.080702 C377.885088,240.52193 383.257018,238.95614 388.19386,236.410526 C392.385965,234.25 397.404386,231.185965 399.209649,226.57807 C399.891228,224.845614 400.083333,222.994737 399.849123,221.152632 C399.763158,220.465789 399.354386,219.521053 399.388596,218.864035 M386.5,233.511404 C382.368421,235.641228 377.815789,237.055263 373.201754,237.631579 C369.181579,238.133333 365.270175,237.817544 361.264035,237.414912 C357.078947,236.99386 353.385965,237.590351 349.959649,240.161404 C346.300877,242.909649 343.060526,245.989474 339.081579,248.317544 C335.147368,250.616667 330.880702,252.366667 326.378947,253.153509 C321.459649,254.011404 316.839474,253.27807 312.150877,251.718421 C307.67807,250.229825 303.379825,249.501754 298.651754,249.45614 C297.635088,249.446491 296.601754,249.460526 295.560526,249.475439 C291.248246,249.531579 286.801754,249.589474 282.809649,247.95614 C278.407895,246.157018 273.675439,242.010526 274.691228,236.767544 C274.989474,235.232456 273.583333,234.290351 272.226316,234.871053 C266.957895,237.129825 260.894737,238.120175 255.334211,236.35614 C250.965789,234.971053 247.12807,231.503509 245.64386,227.120175 C245.22807,225.890351 245.009649,224.641228 245.020175,223.342982 C245.028947,222.264035 245.355263,221.435965 245.521053,220.401754 C245.730702,219.083333 245.018421,217.600877 245.019298,216.22807 C245.019298,215.033333 245.228947,213.859649 245.674561,212.748246 C247.27807,208.749123 251.779825,205.607018 256.15614,206.498246 C256.962281,206.663158 258.078947,206.271053 258.22193,205.326316 C258.352632,204.45 258.653509,203.592982 258.544737,202.708772 C258.446491,201.92193 258.212281,201.194737 258.169298,200.390351 C258.083333,198.807018 258.287719,197.250877 258.721053,195.728947 C259.622807,192.565789 261.492105,189.714912 263.868421,187.461404 C269.159649,182.445614 276.890351,181.181579 283.914035,181.211404 C287.618421,181.22807 291.364912,182.029825 295.050877,181.866667 C298.859649,181.699123 300.859649,179.529825 302.578947,176.358772 C305.837719,170.351754 310.557895,164.398246 317.315789,162.236842 C320.849123,161.107895 324.813158,160.982456 328.292105,162.394737 C329.076316,162.712281 330.064035,163.161404 330.755263,163.726316 C330.725439,163.753509 331.063158,164.184211 331.175439,164.403509 C331.607018,165.244737 332.037719,166.084211 332.470175,166.923684 C332.862281,167.690351 334.046491,168.019298 334.765789,167.527193 C342.840351,161.984211 355.039474,163.885965 360.767544,171.964912 C361.437719,172.909649 362.515789,173.02807 363.403509,172.304386 C368.623684,168.048246 376.599123,170.410526 380.763158,175.005263 C383.47193,177.99386 384.678947,182.205263 384.817544,186.166667 C384.894737,188.344737 384.631579,190.453509 384.777193,192.62193 C384.949123,195.194737 384.695614,197.74386 384.157018,200.261404 C384.008772,200.953509 384.24386,201.814035 384.92807,202.15614 C390.214912,204.804386 396.673684,208.759649 396.6,215.501754 C396.586842,216.774561 395.772807,218.104386 395.986842,219.32193 C396.109649,220.014035 396.409649,220.670175 396.513158,221.375439 C396.730702,222.867544 396.522807,224.289474 395.973684,225.685965 C394.547368,229.322807 389.75,231.836842 386.5,233.511404" id="Fill-81" fill="#1B1A19" sketch:type="MSShapeGroup"></path>
            <path d="M203.162281,104.267544 C194.855263,104.267544 186.546491,105.47193 178.612281,107.857895 C163.831579,112.303509 150.552632,120.949123 140.468421,132.629825 C129.437719,145.403509 122.342105,161.192105 120.329825,177.95614 C120.328947,177.963158 120.328947,177.971053 120.32807,177.978947 C121.565789,178.066667 122.809649,178.205263 124.04386,178.4 C125.67807,160.251754 133.533333,143.40614 146.575439,130.364035 C161.312281,115.627193 180.90614,107.511404 201.744737,107.511404 C222.585965,107.511404 242.17807,115.627193 256.914912,130.364035 C269.867544,143.316667 277.704386,160.017544 279.412281,178.02193 C280.520175,177.931579 281.627193,177.880702 282.728947,177.862281 C282.722807,177.737719 282.707895,177.609649 282.683333,177.47807 C279.781579,162.366667 274.508772,147.304386 265.464912,134.725439 C255.916667,121.449123 242.428947,112.210526 226.748246,107.616667 C219.111404,105.377193 211.137719,104.267544 203.162281,104.267544" id="Fill-82" fill="#227C94" sketch:type="MSShapeGroup"></path>
            <path d="M201.744737,107.511404 C180.90614,107.511404 161.312281,115.627193 146.575439,130.364035 C133.533333,143.40614 125.67807,160.251754 124.04386,178.4 C124.332456,178.445614 124.619298,178.494737 124.90614,178.546491 C124.964035,178.35614 125.005263,178.157895 125.028947,177.95614 C128.435088,149.585965 148.278947,123.881579 175.147368,113.966667 C184.064035,110.677193 193.621053,109.013158 203.155263,109.013158 C224.261404,109.013158 245.255263,117.165789 258.932456,133.870175 C269.242105,146.461404 274.941228,162.34386 278.039474,178.155263 C278.496491,178.103509 278.954386,178.059649 279.412281,178.02193 C277.704386,160.017544 269.867544,143.316667 256.914912,130.364035 C242.17807,115.627193 222.585965,107.511404 201.744737,107.511404" id="Fill-83" fill="#081213" sketch:type="MSShapeGroup"></path>
            <path d="M120.32807,177.978947 C120.192982,179.238596 121.526316,180.29386 122.678947,180.305263 C122.688596,180.30614 122.697368,180.30614 122.707018,180.30614 C123.862281,180.30614 124.607895,179.530702 124.90614,178.546491 C124.619298,178.494737 124.332456,178.445614 124.04386,178.4 C122.809649,178.205263 121.565789,178.066667 120.32807,177.978947" id="Fill-84" fill="#081213" sketch:type="MSShapeGroup"></path>
            <path d="M282.728947,177.862281 C281.627193,177.880702 280.520175,177.931579 279.412281,178.02193 C278.954386,178.059649 278.496491,178.103509 278.039474,178.155263 C278.076316,178.346491 278.113158,178.536842 278.150877,178.728947 C278.37807,179.911404 279.234211,180.422807 280.146491,180.422807 C281.421053,180.422807 282.802632,179.424561 282.728947,177.862281" id="Fill-85" fill="#081213" sketch:type="MSShapeGroup"></path>
            <path d="M203.503509,86.5973684 C193.535088,86.5973684 183.567544,88.0868421 174.064035,91.0368421 C156.049123,96.6315789 140.067544,107.529825 128.019298,122.014912 C116.265789,136.14386 108.087719,153.289474 104.852632,171.405263 C104.449123,173.664035 104.129825,175.935088 103.863158,178.214035 C104.5,178.431579 105.201754,178.514912 105.964912,178.514912 C106.092105,178.514912 106.221053,178.512281 106.351754,178.507895 C107.004386,178.485965 107.653509,178.451754 108.302632,178.410526 C109.578947,155.405263 119.146491,133.95614 135.567544,117.536842 C153.244737,99.8596491 176.747368,90.1245614 201.744737,90.1245614 C226.744737,90.1245614 250.247368,99.8596491 267.922807,117.536842 C284.375439,133.988596 293.947368,155.485088 295.195614,178.540351 C295.695614,178.499123 296.184211,178.405263 296.647368,178.232456 C297.62807,177.864035 298.298246,177.10614 298.84386,176.235088 C295.348246,158.22193 289.20614,140.324561 278.814912,125.092105 C273.533333,117.35 267.191228,110.422807 259.728947,104.736842 C251.552632,98.5061404 242.085965,93.9166667 232.278947,90.8903509 C222.983333,88.0201754 213.242982,86.5973684 203.503509,86.5973684" id="Fill-86" fill="#00854F" sketch:type="MSShapeGroup"></path>
            <path d="M201.744737,90.1245614 C176.747368,90.1245614 153.244737,99.8596491 135.567544,117.536842 C119.146491,133.95614 109.578947,155.405263 108.302632,178.410526 C108.382456,178.405263 108.462281,178.4 108.542982,178.394737 C110.548246,160.976316 117.331579,144.216667 127.650877,130.070175 C138.111404,115.732456 152.50614,104.182456 169.092105,97.7403509 C180.063158,93.4780702 191.815789,91.2938596 203.565789,91.2938596 C210.569298,91.2938596 217.570175,92.0684211 224.411404,93.6421053 C243.052632,97.9298246 259.854386,107.945614 271.616667,123.12807 C282.714912,137.453509 289.339474,154.879825 293.263158,172.435088 C293.717544,174.471053 294.132456,176.514912 294.518421,178.565789 L294.533333,178.565789 C294.75614,178.565789 294.977193,178.557895 295.195614,178.540351 C293.947368,155.485088 284.375439,133.988596 267.922807,117.536842 C250.247368,99.8596491 226.744737,90.1245614 201.744737,90.1245614" id="Fill-87" fill="#03140C" sketch:type="MSShapeGroup"></path>
            <path d="M103.863158,178.214035 C103.85614,178.274561 103.849123,178.335088 103.842105,178.396491 C103.697368,179.667544 105.02807,180.734211 106.192105,180.745614 L106.219298,180.745614 C107.59386,180.745614 108.398246,179.64386 108.542982,178.396491 C108.462281,178.4 108.382456,178.405263 108.302632,178.410526 C107.653509,178.451754 107.004386,178.485965 106.351754,178.507895 C106.221053,178.512281 106.092105,178.514912 105.964912,178.514912 C105.201754,178.514912 104.5,178.431579 103.863158,178.214035" id="Fill-88" fill="#03140C" sketch:type="MSShapeGroup"></path>
            <path d="M298.84386,176.235088 C298.298246,177.10614 297.62807,177.864035 296.647368,178.232456 C296.184211,178.405263 295.695614,178.499123 295.195614,178.540351 C294.977193,178.557895 294.75614,178.565789 294.533333,178.565789 L294.518421,178.565789 C294.558772,178.778947 294.599123,178.992982 294.638596,179.20614 C294.857018,180.390351 295.708772,180.902632 296.619298,180.902632 C297.992105,180.902632 299.499123,179.738596 299.170175,177.957895 C299.064035,177.383333 298.955263,176.808772 298.84386,176.235088" id="Fill-89" fill="#03140C" sketch:type="MSShapeGroup"></path>
        </g>
    </g>
</svg>