<?xml version="1.0" encoding="utf-8"?>
<!-- Generator: Adobe Illustrator 19.0.1, SVG Export Plug-In . SVG Version: 6.00 Build 0)  -->
<!DOCTYPE svg PUBLIC "-//W3C//DTD SVG 1.1//EN" "http://www.w3.org/Graphics/SVG/1.1/DTD/svg11.dtd">
<svg version="1.1" id="Layer_1" xmlns="http://www.w3.org/2000/svg" xmlns:xlink="http://www.w3.org/1999/xlink" x="0px" y="0px"
	 width="300px" height="57.3px" viewBox="0 0 300 57.3" enable-background="new 0 0 300 57.3" xml:space="preserve">
<g>
	<g>
		<g>
			<g>
				<g>
					<path fill="#FFFFFF" d="M84,34c-4.6,0-7.4-2.7-7.4-8.5S79.4,17,84,17c1.7,0,3.4,0.5,4.9,1.4l2.8-5.5c-2.5-1.3-5.3-2-8.3-2
						c-8.7,0-15,5.4-15,14.6c0,9.3,6.3,14.6,15,14.6c2.5,0,4.9-0.5,7.1-1.5l-2.8-5.4C86.6,33.7,85.3,34,84,34z"/>
				</g>
				<g>
					<path fill="#FFFFFF" d="M209.3,24.5c1.2,0,2.3,0.4,3.1,1.3l1.7-4.7c-1.7-1-3.9-1.6-6.1-1.6c-6,0-10.8,3.8-10.8,10.2
						c0,6.4,4.8,10.2,10.8,10.2c2.3,0,4.4-0.6,6.1-1.6l-1.7-4.7c-0.8,0.8-1.9,1.3-3.1,1.3c-2.5,0-4.5-1.5-4.5-5.1
						C204.8,26,206.9,24.5,209.3,24.5z"/>
				</g>
				<g>
					<g>
						<path fill="#FFFFFF" d="M102.5,19.5c-6,0-10.8,3.8-10.8,10.2c0,6.4,4.8,10.2,10.8,10.2c6,0,10.8-3.8,10.8-10.2
							C113.3,23.3,108.4,19.5,102.5,19.5z M102.5,35.4c-1.7,0-3.1-2.1-3.1-5.7s1.4-5.7,3.1-5.7c1.7,0,3.1,2.1,3.1,5.7
							C105.6,33.3,104.2,35.4,102.5,35.4z"/>
					</g>
				</g>
				<g>
					<g>
						<path fill="#FFFFFF" d="M252.1,19.5c-6,0-10.8,3.8-10.8,10.2c0,6.4,4.8,10.2,10.8,10.2c6,0,10.8-3.8,10.8-10.2
							C262.9,23.3,258.1,19.5,252.1,19.5z M252.1,35.4c-1.7,0-3.1-2.1-3.1-5.7s1.4-5.7,3.1-5.7c1.7,0,3.1,2.1,3.1,5.7
							C255.3,33.3,253.9,35.4,252.1,35.4z"/>
					</g>
				</g>
				<g>
					<g>
						<path fill="#FFFFFF" d="M276.1,19.5c-6,0-10.8,3.8-10.8,10.2c0,6.4,4.8,10.2,10.8,10.2s10.8-3.8,10.8-10.2
							C286.9,23.3,282.1,19.5,276.1,19.5z M276.1,35.4c-1.7,0-3.1-2.1-3.1-5.7s1.4-5.7,3.1-5.7s3.1,2.1,3.1,5.7
							C279.2,33.3,277.8,35.4,276.1,35.4z"/>
					</g>
				</g>
				<g>
					<g>
						<path fill="#FFFFFF" d="M153.2,35.1c-1.9,0-3.1-1.1-3.5-3.2c6.4,0.2,10.4-2.5,10.4-6.3c0-3.7-3.4-6.2-7.5-6.2
							c-6,0-10.8,3.8-10.8,10.2c0,6.4,4.3,10.2,10.3,10.2c5.7,0,9-4.3,9-4.3l-2-3.2C159.1,32.3,156.2,35.1,153.2,35.1z M152.6,23.9
							c1.1,0,1.6,0.9,1.6,1.9c0,1.7-1.2,2.8-4.7,2.9C149.7,25.7,151,23.9,152.6,23.9z"/>
					</g>
				</g>
				<g>
					<g>
						<path fill="#FFFFFF" d="M137,32.3v-22h-7.4v12.4c-1.5-2-3.6-3.2-6-3.2c-4.4,0-8,3.8-8,10.2c0,6.4,3.6,10.2,8,10.2
							c2.6,0,5-1.4,6.4-3.8c0.9,2.8,3.2,3.8,5.7,3.8c2.5,0,3.8-0.7,3.8-0.7l0.5-5.3C140.1,33.9,137,35.6,137,32.3z M126.5,35.1
							c-1.7,0-3.1-2-3.1-5.5c0-3.5,1.4-5.5,3.1-5.5c1.7,0,3.1,2,3.1,5.5C129.7,33.1,128.3,35.1,126.5,35.1z"/>
					</g>
				</g>
				<g>
					<path fill="#FFFFFF" d="M236.4,32.3v-7.4c0-3.3-1.1-5.4-4.6-5.4c-2.8,0-5.4,1.4-6.7,3.8V10.2h-7.4v29h7.4v-6.9
						c0-6.4,2-8.1,3.1-8.1c0.8,0,1.2,0.6,1.2,1.9c0,1,0,4,0,6.9c0,5,2.8,6.9,6.1,6.9c2.5,0,3.8-0.7,3.8-0.7l0.5-5.3
						C239.7,33.9,236.4,35.4,236.4,32.3z"/>
				</g>
				<g>
					<path fill="#FFFFFF" d="M297,32.3v-22h-7.4V33c0,5,2.9,6.9,6.2,6.9c2.5,0,3.8-0.7,3.8-0.7l0.5-5.3C300,33.9,297,35.6,297,32.3z
						"/>
				</g>
				<g>
					<path fill="#FFFFFF" d="M187,22.2c-4.5-1.6-5.5-2.1-5.5-3.7c0-1.4,1-2.2,2.5-2.2c3.6,0,8.2,2.4,8.2,2.4l2.1-4.8
						c0,0-3.3-3-9.8-3c-6.9,0-10.5,3.6-10.5,8.4c0,3.5,1.7,6.8,7.5,8.7c4.4,1.5,5.3,2.5,5.3,3.9c0,1.8-1.3,2.5-3.3,2.5
						c-4.1,0-9-3.2-9-3.2l-2.5,4.9c0,0,4.9,4,11.4,4c7.3,0,11.1-3.7,11.1-9C194.6,27.1,193.5,24.5,187,22.2z"/>
				</g>
			</g>
		</g>
	</g>
	<g>
		<g>
			<g>
				<polygon fill="#FFFFFF" points="29.9,12.6 29.9,19.6 37.8,27 29.9,34.4 29.9,41.4 45.2,27 				"/>
				<polygon fill="#FFFFFF" points="24.1,34.4 16.2,27 24.1,19.6 24.1,12.6 8.8,27 24.1,41.4 				"/>
			</g>
		</g>
		<path fill="#FFFFFF" d="M27,0C12.1,0,0,12.1,0,27s12.1,27,27,27s27-12.1,27-27S41.9,0,27,0z M27,49.2C14.8,49.2,4.8,39.2,4.8,27
			S14.8,4.8,27,4.8c12.2,0,22.2,9.9,22.2,22.2S39.2,49.2,27,49.2z"/>
	</g>
	<g>
		<path fill="#FFFFFF" d="M171.7,53.6L171.7,53.6c0-1.4,1-2,2.5-2c0.6,0,1.1,0.1,1.5,0.3v-0.1c0-0.7-0.4-1.1-1.3-1.1
			c-0.7,0-1.1,0.1-1.7,0.3l-0.4-1.3c0.7-0.3,1.3-0.5,2.4-0.5c1,0,1.6,0.3,2.1,0.7c0.5,0.5,0.7,1.1,0.7,2v3.6h-1.7v-0.7
			c-0.4,0.5-1,0.8-1.9,0.8C172.6,55.5,171.7,54.8,171.7,53.6z M175.7,53.2v-0.3c-0.3-0.1-0.7-0.2-1.1-0.2c-0.7,0-1.2,0.3-1.2,0.8v0
			c0,0.5,0.4,0.7,1,0.7C175.1,54.3,175.7,53.8,175.7,53.2z"/>
		<path fill="#FFFFFF" d="M182.5,47.4h3.3c1.9,0,3.1,1.1,3.1,2.8v0c0,1.9-1.4,2.8-3.2,2.8h-1.3v2.4h-1.8V47.4z M185.6,51.4
			c0.9,0,1.4-0.5,1.4-1.2v0c0-0.8-0.5-1.2-1.4-1.2h-1.4v2.5H185.6z"/>
		<path fill="#FFFFFF" d="M190,47h1.7v8.4H190V47z"/>
		<path fill="#FFFFFF" d="M193.4,53.2v-4h1.7v3.4c0,0.8,0.4,1.2,1.1,1.2c0.7,0,1.1-0.4,1.1-1.2v-3.4h1.7v6.1h-1.7v-0.9
			c-0.4,0.5-0.9,1-1.8,1C194.1,55.5,193.4,54.6,193.4,53.2z"/>
		<path fill="#FFFFFF" d="M200.5,49.2h1.7v1.2c0.4-0.8,0.9-1.4,2-1.4v1.8h-0.1c-1.2,0-1.9,0.7-1.9,2.2v2.3h-1.7V49.2z"/>
		<path fill="#FFFFFF" d="M204.7,53.6L204.7,53.6c0-1.4,1-2,2.5-2c0.6,0,1.1,0.1,1.5,0.3v-0.1c0-0.7-0.4-1.1-1.3-1.1
			c-0.7,0-1.1,0.1-1.7,0.3l-0.4-1.3c0.7-0.3,1.3-0.5,2.4-0.5c1,0,1.6,0.3,2.1,0.7c0.5,0.5,0.7,1.1,0.7,2v3.6h-1.7v-0.7
			c-0.4,0.5-1,0.8-1.9,0.8C205.6,55.5,204.7,54.8,204.7,53.6z M208.7,53.2v-0.3c-0.3-0.1-0.7-0.2-1.1-0.2c-0.7,0-1.2,0.3-1.2,0.8v0
			c0,0.5,0.4,0.7,1,0.7C208.1,54.3,208.7,53.8,208.7,53.2z"/>
		<path fill="#FFFFFF" d="M211.9,47h1.7v8.4h-1.7V47z"/>
		<path fill="#FFFFFF" d="M214.8,54.6l0.7-1.1c0.7,0.5,1.4,0.7,1.9,0.7c0.5,0,0.7-0.2,0.7-0.5v0c0-0.4-0.6-0.5-1.3-0.7
			c-0.9-0.3-1.8-0.7-1.8-1.8v0c0-1.2,1-1.9,2.2-1.9c0.8,0,1.6,0.3,2.3,0.7l-0.7,1.2c-0.6-0.4-1.2-0.6-1.7-0.6
			c-0.4,0-0.6,0.2-0.6,0.4v0c0,0.3,0.6,0.5,1.2,0.7c0.9,0.3,1.9,0.7,1.9,1.8v0c0,1.4-1,2-2.3,2C216.6,55.5,215.6,55.2,214.8,54.6z"
			/>
		<path fill="#FFFFFF" d="M221.1,47h1.8v1.5h-1.8V47z M221.1,49.2h1.7v6.1h-1.7V49.2z"/>
		<path fill="#FFFFFF" d="M224.5,56.6l0.6-1.3c0.6,0.4,1.3,0.6,2.1,0.6c1.2,0,1.8-0.6,1.8-1.7v-0.3c-0.5,0.6-1.1,1-2,1
			c-1.4,0-2.7-1-2.7-2.9v0c0-1.8,1.3-2.9,2.7-2.9c1,0,1.5,0.4,2,0.9v-0.8h1.7V54c0,1.1-0.3,1.9-0.8,2.4c-0.6,0.6-1.5,0.8-2.6,0.8
			C226.3,57.2,225.3,57,224.5,56.6z M229,52L229,52c0-0.9-0.7-1.4-1.5-1.4S226,51.2,226,52v0c0,0.8,0.6,1.4,1.5,1.4S229,52.9,229,52
			z"/>
		<path fill="#FFFFFF" d="M232.2,47h1.7v3.1c0.4-0.5,0.9-1,1.8-1c1.3,0,2.1,0.9,2.1,2.3v4h-1.7V52c0-0.8-0.4-1.2-1.1-1.2
			c-0.7,0-1.1,0.4-1.1,1.2v3.4h-1.7V47z"/>
		<path fill="#FFFFFF" d="M239.7,53.6v-2.9h-0.7v-1.5h0.7v-1.6h1.7v1.6h1.4v1.5h-1.4v2.6c0,0.4,0.2,0.6,0.6,0.6
			c0.3,0,0.6-0.1,0.9-0.2v1.4c-0.4,0.2-0.8,0.4-1.4,0.4C240.4,55.5,239.7,55.1,239.7,53.6z"/>
		<path fill="#FFFFFF" d="M247.3,52.3L247.3,52.3c0-1.8,1.3-3.2,3.2-3.2c1.2,0,1.9,0.4,2.5,1l-1.1,1.1c-0.4-0.4-0.8-0.7-1.4-0.7
			c-0.9,0-1.5,0.8-1.5,1.7v0c0,0.9,0.6,1.7,1.6,1.7c0.6,0,1-0.3,1.4-0.7l1,1c-0.6,0.7-1.3,1.1-2.5,1.1
			C248.6,55.5,247.3,54.1,247.3,52.3z"/>
		<path fill="#FFFFFF" d="M253.6,52.3L253.6,52.3c0-1.8,1.4-3.2,3.3-3.2c1.9,0,3.3,1.4,3.3,3.2v0c0,1.8-1.4,3.2-3.3,3.2
			C255.1,55.5,253.6,54.1,253.6,52.3z M258.6,52.3L258.6,52.3c0-0.9-0.7-1.7-1.6-1.7c-1,0-1.6,0.8-1.6,1.7v0c0,0.9,0.7,1.7,1.6,1.7
			C258,54,258.6,53.3,258.6,52.3z"/>
		<path fill="#FFFFFF" d="M261.5,49.2h1.7v0.9c0.4-0.5,0.9-1,1.8-1c0.8,0,1.4,0.4,1.7,1c0.5-0.6,1.2-1,2-1c1.3,0,2.1,0.8,2.1,2.3v4
			h-1.7V52c0-0.8-0.4-1.2-1-1.2s-1.1,0.4-1.1,1.2v3.4h-1.7V52c0-0.8-0.4-1.2-1-1.2c-0.7,0-1.1,0.4-1.1,1.2v3.4h-1.7V49.2z"/>
		<path fill="#FFFFFF" d="M272.4,49.2h1.7v0.9c0.4-0.6,1-1,1.9-1c1.4,0,2.8,1.1,2.8,3.2v0c0,2.1-1.3,3.2-2.8,3.2
			c-0.9,0-1.5-0.4-1.9-0.9v2.6h-1.7V49.2z M277.1,52.3L277.1,52.3c0-1-0.7-1.7-1.5-1.7s-1.5,0.7-1.5,1.7v0c0,1,0.7,1.7,1.5,1.7
			S277.1,53.4,277.1,52.3z"/>
		<path fill="#FFFFFF" d="M279.8,53.6L279.8,53.6c0-1.4,1-2,2.5-2c0.6,0,1.1,0.1,1.5,0.3v-0.1c0-0.7-0.4-1.1-1.3-1.1
			c-0.7,0-1.1,0.1-1.7,0.3l-0.4-1.3c0.7-0.3,1.3-0.5,2.4-0.5c1,0,1.6,0.3,2.1,0.7c0.5,0.5,0.7,1.1,0.7,2v3.6h-1.7v-0.7
			c-0.4,0.5-1,0.8-1.9,0.8C280.8,55.5,279.8,54.8,279.8,53.6z M283.8,53.2v-0.3c-0.3-0.1-0.7-0.2-1.1-0.2c-0.7,0-1.2,0.3-1.2,0.8v0
			c0,0.5,0.4,0.7,1,0.7C283.3,54.3,283.8,53.8,283.8,53.2z"/>
		<path fill="#FFFFFF" d="M287,49.2h1.7v0.9c0.4-0.5,0.9-1,1.8-1c1.3,0,2.1,0.9,2.1,2.3v4h-1.7V52c0-0.8-0.4-1.2-1.1-1.2
			c-0.7,0-1.1,0.4-1.1,1.2v3.4H287V49.2z"/>
		<path fill="#FFFFFF" d="M293.8,56.8l0.6-1.3c0.2,0.1,0.5,0.2,0.7,0.2c0.3,0,0.5-0.1,0.6-0.4l-2.4-6.2h1.8l1.4,4.2l1.3-4.2h1.8
			l-2.4,6.3c-0.5,1.2-1,1.7-2,1.7C294.8,57.3,294.3,57.1,293.8,56.8z"/>
	</g>
</g>
</svg>
