<svg width="400" height="277" viewBox="0 0 400 277" xmlns="http://www.w3.org/2000/svg" xmlns:sketch="http://www.bohemiancoding.com/sketch/ns"><title>Imported Layers</title><desc>Created with Sketch.</desc><g sketch:type="MSLayerGroup" fill="none"><path d="M65.973 36.37l-41.974-29.677c11.494 14.08 22.988 28.161 34.481 42.241l7.493-12.564" fill="#A6A0C3" sketch:type="MSShapeGroup"/><path d="M66.58 35.332c-13.992-9.892-27.983-19.784-41.974-29.677-1.197-.846-2.254.911-1.457 1.888 11.494 14.08 22.988 28.16 34.482 42.241.501.614 1.524.366 1.887-.244l7.493-12.563c.794-1.332-1.283-2.542-2.076-1.214l-7.492 12.564 1.887-.243-34.481-42.241-1.456 1.888c13.991 9.892 27.982 19.784 41.974 29.677 1.265.895 2.467-1.189 1.213-2.076" fill="#1B1A19" sketch:type="MSShapeGroup"/><path d="M30.481 12.742l2.815 3.449c10.113 7.159 16.744 12.007 26.756 19.099l-.015-1.65-29.556-20.898" fill="#D5D3E1" sketch:type="MSShapeGroup"/><path d="M238.533 155.877s13.455 32.798 21.174 51.389c7.72 18.592 35.436 27.612 47.846 22.46 0 0 2.323 21.521 7.963 19.179 5.641-2.342 13.855-33.529 4.744-36.359-9.111-2.83-39.344 20.867-46.408-43.607l-35.319-13.062" fill="#fff" sketch:type="MSShapeGroup"/><path d="M267.571 197.222l.268.057-5.603-13.469-12.709-1.188s2.873 8.34 12.223 12.688c2.976 6.049 10.823 22.442 10.823 27.064 0 0 2.914-6.621-5.002-25.152" fill="#A0A3A2" sketch:type="MSShapeGroup"/><path d="M315.706 248.144c7.956-9.321 10.066-22.297 6.008-33.806-.879-2.492-4.875-1.419-3.987 1.099 3.547 10.058 2.08 21.553-4.945 29.783-1.718 2.014 1.193 4.951 2.924 2.924" fill="#C2C2C0" sketch:type="MSShapeGroup"/><path d="M314.669 250.182c-.566 0-1.125-.158-1.654-.472-2.059-1.219-3.732-4.873-5.114-11.171-.645-2.94-1.058-5.714-1.269-7.309-6.482 2.064-15.951 1.031-25.183-2.815-10.874-4.531-19.168-12.085-22.756-20.727-7.632-18.381-21.042-51.066-21.176-51.394l-.95-2.316 38.303 14.167.074.675c2.349 21.441 7.598 35.275 15.599 41.117 7.002 5.113 14.961 3.498 21.355 2.2 3.489-.708 6.502-1.32 8.688-.641 2.03.631 4.514 2.764 4.818 9.343.451 9.743-4.548 27.039-9.466 29.081-.422.175-.847.262-1.269.262zm-6.181-22.034l.158 1.46c.668 6.179 2.748 16.588 5.489 18.212.326.193.613.214.96.07 3.114-1.293 8.606-16.303 8.114-26.95-.135-2.929-.813-6.58-3.275-7.345-1.648-.513-4.406.048-7.599.696-6.458 1.31-15.303 3.106-23.088-2.579-8.554-6.246-13.925-19.98-16.412-41.977l-32.335-11.959c3.207 7.812 13.776 33.545 20.222 49.069 3.368 8.11 11.23 15.232 21.572 19.541 9.229 3.845 18.979 4.758 24.838 2.325l1.356-.563z" fill="#1B1A19" sketch:type="MSShapeGroup"/><path d="M111.335 161.709c2.169 22.952 3.184 46.013 3.04 69.066-.065 10.487-.837 22.108-8.323 29.453-2.254 2.211-5.207 4.226-5.653 7.352-.401 2.808 1.594 5.585 4.195 6.718 2.601 1.132 5.627.869 8.32-.023 6.644-2.2 11.637-7.944 14.544-14.31 2.907-6.366 4.011-13.382 5.086-20.297 3.285-21.143 6.571-42.286 9.857-63.429l-31.066-14.53" fill="#fff" sketch:type="MSShapeGroup"/><path d="M116.969 178.2l-.002 7.311c5.586 1.63 11.467 1.893 17.28 2.145 1.703.073 3.473.136 5.04-.535 1.566-.671 2.861-2.305 2.56-3.983-.216-1.202-1.196-2.155-2.307-2.664-1.11-.51-2.349-.649-3.564-.782-6.548-.715-13.096-1.431-19.645-2.147" fill="#A0A3A2" sketch:type="MSShapeGroup"/><path d="M103.012 272.238c4.387 1.207 8.711 1.5 12.907-.512 4.049-1.942 6.582-5.478 8.84-9.23 2.382-3.958 4.439-8.001 5.1-12.63.365-2.559.433-5.216.528-7.798.079-2.146-.266-4.475-1.837-6.06-2.623-2.647-7.528-4.016-11.16-3.454-1.1.17-1.72 1.556-1.444 2.542.33 1.178 1.431 1.616 2.543 1.444.746-.115 2.335.214 3.334.503 1.205.35 2.516.819 3.507 1.615 1.187.952.973 2.872.862 4.388-.15 2.057-.082 4.155-.39 6.196-.571 3.777-2.192 7.037-4.096 10.295-1.67 2.857-3.466 6.003-6.352 7.782-3.623 2.235-7.265 2.027-11.243.932-2.569-.707-3.665 3.281-1.099 3.987" fill="#A0A3A2" sketch:type="MSShapeGroup"/><path d="M110.134 161.709c1.615 17.17 2.598 34.397 2.927 51.64.154 8.029.393 16.129-.079 24.15-.379 6.451-1.456 13.207-5.121 18.681-3.152 4.708-11.419 8.709-7.836 15.473 3.481 6.571 12.318 4.957 17.56 1.771 13.213-8.028 14.818-25.073 16.96-38.857l9.015-58.008c.077-.492-.04-1.118-.552-1.357-9.064-4.24-18.128-8.48-27.193-12.719l-3.873-1.812c-1.393-.651-2.615 1.42-1.213 2.076l27.192 12.718 3.874 1.812-.552-1.357c-2.556 16.444-5.112 32.889-7.668 49.334-1.215 7.818-2.176 15.732-3.831 23.472-1.473 6.886-3.895 13.787-8.864 18.959-2.117 2.204-4.644 4.055-7.511 5.157-3.263 1.253-7.595 1.744-10.258-1.015-1.104-1.144-1.791-2.709-1.485-4.313.306-1.6 1.485-2.869 2.614-3.962 2.144-2.076 4.281-3.962 5.917-6.495 3.414-5.287 4.621-11.688 5.112-17.865.581-7.308.357-14.708.258-22.031-.251-18.515-1.255-37.017-2.99-55.452-.143-1.527-2.548-1.542-2.403 0" fill="#1B1A19" sketch:type="MSShapeGroup"/><path d="M273.801 96.406c-55.964 4.487-136.446-11.248-136.446-11.248-11.483-15.811-26.01-28.589-42.548-38.998-5.336-3.358-11-6.497-15.825-10.484l-.502-1.568c-1.472-5.655-4.906-10.78-9.578-14.291-1.986-1.494-5.036-2.606-6.738-.796-.987 1.049-1.032 2.645-1.019 4.085l.148 16.518c.023 2.559-1.43 4.902-3.732 6.02-13.28 10.379-26.56 20.758-39.839 31.137-6.247 4.882-12.782 10.149-15.532 17.584-2.75 7.436.164 17.553 7.814 19.633 8.448 2.297 15.821-5.749 23.96-8.972 4.898-1.939 10.289-2.114 15.444-3.198 10.06-2.116 19.119-8.063 25.503-16.102l-.112.246c9.355 11.886 17.212 23.759 17.036 38.883-.092 7.965-3.108 33.43 1.321 39.924l-.356-.248s-5.945 15.882-3.14 35.816c2.805 19.934 27.37 35.623 40.676 33.751 0 0-3.155 21.415 2.894 20.564 6.048-.851 21.827-28.977 13.719-34.004-7.597-4.709-40.319-.875-29.801-42.616 13.037 2.847 30.809 1.855 51.468.862 26.152-1.256 56.931-2.512 88.589 4.02 1.716.354 3.391.646 5.031.886 1.368 4.677 3.241 9.206 5.603 13.469l-.092-.05c9.822 22.088 7.455 49.158-6.053 69.206-.856 1.27-1.793 2.65-1.68 4.178.236 3.214 4.441 4.179 7.663 4.268 5.225.146 11.11.037 14.745-3.72 2.242-2.318 3.142-5.584 3.962-8.703 8.704-33.139 17.409-66.277 26.114-99.415 14.913-27.104.146-69.752-38.697-66.637" fill="#fff" sketch:type="MSShapeGroup"/><path d="M74.57 87.49c8.565 5.587 12.914 15.588 15.112 25.221 1.05 4.604 1.607 9.211 1.493 13.934-.119 4.913-.633 9.809-.94 14.712-.42 6.71-.435 13.436.273 20.128.168 1.59 3.144 1.281 4.113 1.022 1.334-.358 3.224-1.307 3.051-2.942-.639-6.04-.652-12.085-.299-18.143.295-5.069.836-10.126.982-15.202.289-10.009-1.767-20.381-6.5-29.26-2.822-5.293-6.581-9.832-11.635-13.128-1.407-.917-3.812-.24-5.092.603-1.14.751-1.978 2.13-.558 3.055" fill="#DCDDDA" sketch:type="MSShapeGroup"/><path d="M261.699 271.245c3.348 1.541 6.905 2.642 10.631 2.493 3.728-.15 7.213-1.443 10.463-3.208 2.339-1.27.254-4.842-2.087-3.57-2.593 1.409-5.394 2.524-8.376 2.643-2.981.12-5.854-.689-8.545-1.928-2.4-1.105-4.503 2.458-2.086 3.57" fill="#C2C2C0" sketch:type="MSShapeGroup"/><path d="M134.337 254.176c9.405-7.625 13.829-20.037 12.895-31.94-.206-2.635-4.342-2.657-4.134 0 .859 10.949-3.03 22-11.684 29.017-.874.708-.723 2.184 0 2.923.848.867 2.061.699 2.923 0" fill="#C2C2C0" sketch:type="MSShapeGroup"/><path d="M121.374 178.45c20.206.681 40.409.167 60.615-.178 19.418-.332 38.908-.428 58.29 1 .975.072 1.949.152 2.922.25.431.043.862.089 1.292.139l.474.056c.998.115-.133-.009-.481-.069 1.666.286 3.329.53 4.979.905 3.995.909 7.879 2.238 11.725 3.634 2.909 1.056 6.596-1.185 7.265-4.125.758-3.328-1.011-6.134-4.125-7.265-6.87-2.494-13.679-4.328-20.966-5.071-8.99-.916-18.109-1.108-27.138-1.309-19.925-.442-39.845.233-59.768.488-11.695.15-23.393.127-35.084-.267-3.09-.104-6.045 2.791-5.906 5.906.148 3.289 2.595 5.794 5.906 5.906" fill="#DCDDDA" sketch:type="MSShapeGroup"/><path d="M273.801 95.204c-23.449 1.857-47.146.45-70.513-1.852-18.454-1.818-36.845-4.339-55.123-7.464-3.502-.599-7.004-1.208-10.491-1.889l.719.553c-6.741-9.243-14.57-17.625-23.285-25.033-4.328-3.679-8.856-7.124-13.535-10.344-4.877-3.356-9.995-6.313-14.973-9.512-1.254-.806-2.494-1.633-3.708-2.499-.637-.454-1.266-.918-1.884-1.398-.598-.464-.751-.418-1.026-.906-.394-.697-.51-1.725-.751-2.473-.405-1.256-.908-2.485-1.485-3.671-2.097-4.314-5.77-9.153-10.288-11.124-1.856-.81-4.196-1.14-5.848.304-1.517 1.326-1.672 3.356-1.667 5.24.007 2.23.04 4.459.06 6.688l.079 8.796c.01 1.072.019 2.098-.4 3.119-.519 1.264-1.406 2.048-2.529 2.762-1.348.857-2.582 1.966-3.843 2.951-10.688 8.354-21.377 16.708-32.066 25.061-8.01 6.261-18.744 13.202-20.891 23.948-1.575 7.881 2.118 17.827 10.977 19.017 4.938.664 9.527-1.711 13.641-4.154 2.271-1.347 4.494-2.78 6.843-3.991 2.669-1.377 5.481-2.225 8.426-2.779 5.769-1.083 11.455-1.619 16.931-3.892 4.858-2.017 9.324-4.881 13.236-8.394 1.942-1.745 3.72-3.657 5.354-5.692l-1.887-1.456-.113.246c-.248.546-.174.995.188 1.456 8.583 10.925 16.678 23.088 16.687 37.507.006 9.389-1.335 18.722-1.044 28.131.128 4.132.164 9.333 2.527 12.926l1.644-1.645-.356-.247c-.69-.48-1.517.05-1.766.718-1.268 3.407-2.036 7.055-2.655 10.625-1.443 8.326-1.7 16.858-.565 25.239 1.824 13.475 12.322 24.607 23.96 30.8 5.356 2.85 11.786 5.234 17.955 4.424l-1.159-1.521c-.486 3.321-.781 6.69-.852 10.046-.05 2.392.003 4.83.472 7.185.326 1.636.948 3.586 2.498 4.464 3.25 1.841 6.744-2.553 8.451-4.711 3.39-4.287 6.081-9.16 8.133-14.217 1.627-4.01 3.506-9.273 2.133-13.622-.942-2.983-3.554-4.045-6.322-4.811-6.514-1.801-13.33-2.69-18.995-6.686-8.706-6.14-9.295-17.43-7.661-27.074.342-2.014.78-4.009 1.273-5.991l-1.478.839c6.762 1.457 13.724 1.835 20.625 1.904 8.434.085 16.868-.315 25.29-.716 20.391-.971 40.802-1.95 61.203-.627 6.4.415 12.79 1.037 19.141 1.934 6.315.892 12.527 2.33 18.828 3.273l-.839-.84c1.419 4.779 3.328 9.385 5.724 13.757l1.645-1.645-.093-.049c-1.129-.612-2.112.58-1.644 1.644 9.113 20.698 7.458 45.715-4.199 65.082-1.314 2.183-3.575 4.526-3.698 7.191-.096 2.075 1.175 3.775 2.972 4.689 1.954.995 4.193 1.243 6.356 1.297 2.612.066 5.249.032 7.825-.451 5.42-1.016 8.907-4.422 10.633-9.584 2.118-6.334 3.496-12.995 5.192-19.453 7.132-27.149 14.263-54.298 21.395-81.448.556-2.114 1.654-3.972 2.494-5.986.725-1.741 1.347-3.522 1.858-5.337 1.022-3.631 1.615-7.393 1.808-11.159.385-7.494-.856-15.129-3.731-22.067-2.826-6.818-7.214-12.96-13.08-17.486-6.307-4.866-13.978-7.5-21.902-7.994-2.277-.141-4.557-.099-6.831.074-1.532.116-1.545 2.521 0 2.403 8.002-.609 16.099.66 23.134 4.661 6.199 3.525 11.137 8.883 14.514 15.133 6.78 12.552 7.457 28.543 1.705 41.609-.358.811-.74 1.611-1.146 2.399-.626 1.213-.949 2.383-1.298 3.71l-2.517 9.582-5.113 19.464c-3.408 12.976-6.817 25.952-10.225 38.927-1.705 6.488-3.409 12.976-5.113 19.464-.839 3.194-1.674 6.389-2.517 9.582-.667 2.526-1.337 5.179-2.918 7.313-3.284 4.434-9.66 4.408-14.63 4.229-1.888-.069-4.493-.286-5.856-1.783-1.871-2.056 1.155-5.161 2.251-6.925 11.178-17.998 13.899-40.997 7.461-61.158-.782-2.447-1.713-4.84-2.748-7.191l-1.645 1.644.092.05c1.061.573 2.229-.578 1.645-1.645-2.3-4.195-4.121-8.596-5.482-13.182-.109-.366-.434-.779-.84-.839-5.604-.838-11.131-2.124-16.739-2.968-5.513-.83-11.055-1.469-16.61-1.934-10.706-.896-21.455-1.151-32.194-1.025-18.624.219-37.204 1.86-55.826 1.982-7.916.052-15.952-.15-23.718-1.823-.623-.134-1.314.18-1.479.84-2.551 10.247-4.077 22.846 3.06 31.688 4.519 5.598 11.525 8.016 18.286 9.642 2.609.627 5.336 1.073 7.84 2.062.766.302 1.802.879 2.285 1.859.77 1.562.631 3.531.383 5.2-.761 5.122-3.081 10.077-5.615 14.54-2.006 3.534-4.458 7.816-7.91 10.158-1.145.778-1.964.896-2.626-.525-.946-2.03-.949-4.584-.974-6.775-.028-2.566.131-5.134.377-7.687.085-.89.184-1.778.293-2.665l.107-.802c.097-.667-.296-1.635-1.159-1.522-5.158.678-10.465-1.026-15.061-3.243-5.801-2.798-11.071-6.744-15.389-11.522-4.316-4.774-7.7-10.552-8.877-16.936-1.472-7.981-1.169-16.542.098-24.533.629-3.969 1.445-8.031 2.852-11.811l-1.765.718.356.248c.986.686 2.288-.665 1.644-1.645-2.095-3.184-2.071-7.87-2.192-11.528-.176-5.321.078-10.651.388-15.962.24-4.108.652-8.235.65-12.353-.005-6.738-1.675-13.3-4.478-19.402-3.303-7.194-8.045-13.607-12.913-19.805l.188 1.457.112-.246c.515-1.131-.962-2.609-1.888-1.457-5.225 6.509-12.112 11.686-20.034 14.423-4.328 1.496-8.824 1.98-13.314 2.741-4.303.729-8.207 2.083-11.995 4.244-5.965 3.403-13.941 9.952-20.983 5.394-5.738-3.714-6.519-12.283-3.948-18.075 3.579-8.068 11.461-13.375 18.185-18.631 8.179-6.391 16.357-12.783 24.536-19.175 4.034-3.153 7.971-6.63 12.246-9.442 2.433-1.6 3.735-4.096 3.738-6.996.005-4.271-.076-8.543-.114-12.814-.013-1.433-.084-2.882-.025-4.316.246-6.004 6.6-1.061 8.623 1.005 3.019 3.086 5.07 6.834 6.282 10.959.39 1.328.612 2.139 1.734 3.027 1.755 1.39 3.584 2.68 5.455 3.908 7.611 4.995 15.451 9.502 22.702 15.042 7.026 5.367 13.607 11.336 19.575 17.862 3.055 3.34 5.953 6.826 8.655 10.457.72.967 1.105 1.702 2.227 1.938 2.107.443 4.24.787 6.36 1.16 9.793 1.728 19.623 3.254 29.474 4.614 14.293 1.974 28.637 3.602 43.023 4.717 15.459 1.199 30.997 1.855 46.5 1.306 3.617-.129 7.231-.331 10.838-.617 1.532-.121 1.545-2.525 0-2.403" fill="#1B1A19" sketch:type="MSShapeGroup"/><path d="M308.1 110.863c8.002-5.646 18.586-7.465 28.014-4.813 9.428 2.651 17.512 9.719 21.399 18.708 3.313 7.662 3.608 16.249 3.627 24.596.019 8.347-.166 16.86 2.297 24.835 2.464 7.976 8.144 15.49 16.187 17.723 8.043 2.234 18.051-2.705 19.201-10.972-4.765 8.812-9.701 17.839-17.34 24.321-7.638 6.481-18.703 9.935-27.887 5.935-9.386-4.087-14.237-14.461-17.086-24.293-3.769-13.005-5.477-26.604-5.041-40.137.168-5.194.644-10.457-.435-15.541-1.078-5.084-4.04-10.1-8.833-12.107-2.968-1.243-6.345-1.231-9.31-2.48-2.966-1.248-5.528-4.705-4.051-7.564l-.742 1.789" fill="#8A3983" sketch:type="MSShapeGroup"/><path d="M326.505 105.952c-4.298 0-8.599.825-12.589 2.42.037.56.187 1.119.425 1.657 3.055-.88 6.235-1.33 9.413-1.33 2.966 0 5.93.392 8.789 1.196 9.428 2.652 17.512 9.72 21.399 18.709 3.312 7.662 3.608 16.249 3.627 24.596.019 8.347-.166 16.859 2.297 24.835 2.463 7.976 8.144 15.489 16.187 17.723 1.309.363 2.669.537 4.034.537 4.055 0 8.156-1.529 11.087-4.15l.69-1.202c-2.649 1.666-5.855 2.605-9.031 2.605-1.365 0-2.725-.174-4.033-.537-8.043-2.234-13.724-9.747-16.187-17.723-2.463-7.976-2.278-16.488-2.297-24.835-.019-8.347-.315-16.934-3.627-24.596-3.887-8.989-11.971-16.058-21.399-18.709-2.857-.803-5.821-1.196-8.785-1.196" fill="#B98CB3" sketch:type="MSShapeGroup"/><path d="M307.707 111.667l-.113.077c-.017.339.009.678.074 1.015l.62-.328c-.19-.257-.384-.512-.581-.764" fill="#fff" sketch:type="MSShapeGroup"/><path d="M308.426 111.192l-.719.475c.197.252.391.507.581.764l.355-.181c-.113-.348-.188-.703-.217-1.058" fill="#6E6967" sketch:type="MSShapeGroup"/><path d="M308.428 111.191l-.002.001c.029.355.104.71.217 1.058h.002c-.113-.349-.188-.704-.217-1.059" fill="#B98CB3" sketch:type="MSShapeGroup"/><path d="M313.777 107.674c-1.874.818-3.671 1.812-5.359 2.971-.009.182-.006.364.01.546 1.734-1.113 3.575-2.055 5.488-2.819-.01-.158-.012-.316-.004-.474l-.318.218.183-.442" fill="#5A2B67" sketch:type="MSShapeGroup"/><path d="M312.877 116.632l.016.006-.016-.006m-.017-.007l.012.004-.012-.004m-.016-.008l.011.005-.011-.005m-.019-.008l.014.006-.014-.006m-.019-.008l.017.007-.017-.007m-.016-.007l.013.006-.013-.006m-.016-.007l.011.005-.011-.005m-.017-.008l.011.006-.011-.006m-.02-.008l.016.007-.016-.007m-.017-.008l.017.007-.017-.007m-.016-.007l.012.005-.012-.005m-.016-.008l.011.005-.011-.005m-.017-.007l.012.005-.012-.005m-.021-.01l.016.007-.016-.007m-.015-.007l.014.006-.014-.006m-.017-.008l.011.005-.011-.005m-.016-.008l.011.005-.011-.005m-.016-.007l.011.005-.011-.005m-.02-.01l.015.007-.015-.007m-.016-.007l.008.003-.008-.003m-.015-.008l.007.003-.007-.003m-.015-.007l.006.003-.006-.003m-.012-.006l.002.001-.002-.001m-.041-.02h.001-.001m-.014-.007h.001-.001" fill="#0D050D" sketch:type="MSShapeGroup"/><path d="M331.415 149.282c-.161 12.7 1.561 25.422 5.097 37.621 1.295 4.469 3.004 9.05 5.364 13.102-2.36-4.052-4.069-8.633-5.364-13.102-3.536-12.199-5.258-24.921-5.097-37.621" fill="#804977" sketch:type="MSShapeGroup"/><path d="M314.341 110.029c-1.962.565-3.872 1.308-5.696 2.221.562 1.732 2.083 3.321 3.808 4.186h.001l.013.007h.001l.04.02.002.001.01.005.006.003.009.004.007.003.008.005.008.003.008.004.015.007.005.003.011.005.005.002.011.005.005.003.011.005.006.003.014.006.001.001.016.007.005.003.012.005.005.002.011.005.005.003.012.005.004.002.017.007v.001l.016.007.004.001.011.006.006.002.011.005.005.002.013.006.003.001.017.007.002.001.014.006.005.002.011.005.005.003.012.004.005.003.016.006c2.965 1.249 6.342 1.237 9.31 2.48 4.793 2.007 7.755 7.023 8.833 12.107 1.079 5.084.603 10.347.435 15.541-.027.838-.045 1.677-.056 2.516-.161 12.7 1.561 25.422 5.097 37.621 1.295 4.469 3.004 9.05 5.364 13.102 2.832 4.862 6.602 8.961 11.722 11.191 2.699 1.175 5.561 1.707 8.449 1.707 5.311 0 10.714-1.796 15.375-4.688-3.193 1.236-6.557 1.94-9.882 1.94-2.889 0-5.749-.531-8.448-1.706-9.386-4.087-14.237-14.461-17.086-24.293-3.769-13.005-5.477-26.605-5.041-40.137.168-5.194.643-10.457-.435-15.541s-4.04-10.1-8.834-12.107c-2.967-1.243-6.344-1.231-9.309-2.48-1.723-.725-3.309-2.196-4.046-3.862" fill="#5A2B67" sketch:type="MSShapeGroup"/><path d="M313.916 108.372c-1.913.764-3.754 1.706-5.488 2.819.029.355.104.71.217 1.059 1.824-.913 3.734-1.656 5.696-2.221-.238-.538-.388-1.097-.425-1.657" fill="#6D396F" sketch:type="MSShapeGroup"/><path d="M78.857 35.202c-1.57 4.62-3.162 9.442-2.528 14.28.634 4.838 4.221 9.664 9.09 9.991.805.054 1.615-.014 2.424-.082 1.095-.092 2.186-.183 3.258.027 3.342.656 5.492 4.096 6.02 7.46.528 3.364-.148 6.785-.295 10.187-.129 2.998.211 6.168 1.934 8.625 1.723 2.458 5.157 3.903 7.854 2.589 1.89-.921 3.311-3.044 5.413-3.021 2.668.029 3.853 3.311 4.316 5.937l3.954 22.398c1.314-2.262 4.487-3.212 6.828-2.043 2.342 1.169 3.49 4.275 2.471 6.686 8.106-7.397 11.022-19.406 9.063-30.202-1.959-10.797-8.246-20.429-16.008-28.185-7.763-7.756-16.994-13.852-26.155-19.891-5.792-3.818-10.859-6.224-17.639-4.756" fill="#8A3983" sketch:type="MSShapeGroup"/><path d="M66.58 35.332c-13.992-9.892-27.983-19.784-41.974-29.677-1.197-.846-2.254.911-1.457 1.888 11.494 14.08 22.988 28.16 34.482 42.241.501.614 1.524.366 1.887-.244l7.493-12.563c.794-1.332-1.283-2.542-2.076-1.214l-7.492 12.564 1.887-.243-34.481-42.241-1.456 1.888c13.991 9.892 27.982 19.784 41.974 29.677 1.265.895 2.467-1.189 1.213-2.076" fill="#1B1A19" sketch:type="MSShapeGroup"/><path d="M61.032 36.695c-7.821-2.89-17.539 1.172-20.976 8.769 1.716-.529 3.519-1.064 5.282-.718 1.762.345 3.429 1.892 3.247 3.679-.119 1.172-.979 2.178-1.059 3.354-.119 1.743 1.635 3.188 3.38 3.271 1.745.083 3.383-.852 4.727-1.969 5.075-4.22 7.218-11.642 5.172-17.917l.227 1.531" fill="#8A3983" sketch:type="MSShapeGroup"/><path d="M60.934 35.581l.001.003-.001-.003m-.01-.033l.003.009-.003-.009m-.009-.03l.003.008-.003-.008m-.015-.051l.004.014-.004-.014m-.011-.035l.006.017-.006-.017m-.014-.046l.01.031-.01-.031m-.01-.033l.008.026-.008-.026m-.011-.035l.008.024-.008-.024m-.024-.077l.021.067-.021-.067m-.011-.034l.008.025-.008-.025m-.014-.043l.011.033-.011-.033" fill="#6E6967" sketch:type="MSShapeGroup"/><path d="M55.689 35.76c-1.909 0-3.823.332-5.642.952 1.819-.62 3.733-.952 5.642-.952.974.001 1.947.087 2.905.265-.958-.178-1.931-.264-2.905-.265" fill="#CDCADC" sketch:type="MSShapeGroup"/><path d="M47.747 37.676c-3.337 1.677-6.147 4.376-7.691 7.788 1.544-3.412 4.354-6.111 7.691-7.788" fill="#fff" sketch:type="MSShapeGroup"/><path d="M50.047 36.712c-.787.268-1.556.591-2.3.964.744-.373 1.513-.696 2.3-.964" fill="#6E6967" sketch:type="MSShapeGroup"/><path d="M58.755 36.056l.024.004-.024-.004m-.03-.006l.028.005-.028-.005" fill="#CDCADC" sketch:type="MSShapeGroup"/><path d="M44.165 44.636c-1.382 0-2.772.416-4.109.828 1.337-.412 2.726-.827 4.108-.827.291 0 .582.018.872.059l.001-.001c-.29-.041-.581-.059-.872-.059" fill="#fff" sketch:type="MSShapeGroup"/><path d="M61 36.683l.032.012-.032-.012m-5.311-.923c-1.909 0-3.823.332-5.642.952-.787.268-1.556.591-2.3.964-3.337 1.677-6.147 4.376-7.691 7.788 1.337-.412 2.727-.828 4.109-.828.291 0 .582.018.872.059 3.255-3.862 8.346-6.187 13.401-6.187l.236.002c.108-.809.159-1.625.15-2.44.736.149 1.463.352 2.174.612l-.308-.109-.103-.034-.082-.028-.299-.094-.025-.007c-.462-.139-.931-.256-1.402-.35l-.024-.004-.002-.001-.028-.005-.131-.025c-.958-.178-1.931-.264-2.905-.265" fill="#B98CB3" sketch:type="MSShapeGroup"/><path d="M61.574 40.095c0 .468-.02.936-.059 1.403.039-.467.059-.935.059-1.403m-.576-3.413l.002.001-.002-.001" fill="#0D050D" sketch:type="MSShapeGroup"/><path d="M58.36 50.138c-.78 1.089-1.693 2.083-2.727 2.943-.216.179-.439.354-.669.52.23-.166.453-.341.669-.52 1.034-.86 1.947-1.854 2.727-2.943" fill="#804977" sketch:type="MSShapeGroup"/><path d="M47.527 51.767l-.001.012.001-.012m0-.01v.003-.003" fill="#804977" sketch:type="MSShapeGroup"/><path d="M50.756 55.039l.15.011.202.005-.202-.005-.15-.011m-.004 0h.001-.001" fill="#804977" sketch:type="MSShapeGroup"/><path d="M61.515 41.498c-.256 3.091-1.352 6.122-3.155 8.64 1.803-2.518 2.899-5.549 3.155-8.64" fill="#0D050D" sketch:type="MSShapeGroup"/><path d="M60.935 35.584c.309 1.052.503 2.133.588 3.223-.939-.186-1.892-.284-2.849-.297-.55 4.122-2.584 8.062-5.788 10.725-1.288 1.071-2.847 1.974-4.511 1.974l-.216-.005c-.173-.008-.346-.033-.517-.067-.057.202-.098.408-.115.62v.01l-.001.012c-.116 1.692 1.533 3.103 3.226 3.26h.004l.15.011.202.005h.014c1.386 0 2.698-.626 3.842-1.454.23-.166.453-.341.669-.52 1.034-.86 1.947-1.854 2.727-2.943 1.803-2.518 2.899-5.549 3.155-8.64.039-.467.059-.935.059-1.403 0-.81-.059-1.618-.178-2.418-.106-.707-.259-1.406-.461-2.093m-.008-.027l.007.024-.007-.024m-.009-.031l.006.022-.006-.022m-.014-.045l.011.037-.011-.037m-.009-.032l.005.018-.005-.018m-.01-.032l.004.015-.004-.015m-.012-.038l.002.007-.002-.007m-.011-.037l.003.011-.003-.011m-.011-.034l.003.01-.003-.01m-.024-.076l.003.009-.003-.009m-.011-.035l.003.01-.003-.01" fill="#5A2B67" sketch:type="MSShapeGroup"/><path d="M60.805 35.164l.227 1.531-.032-.012-.002-.001c-.711-.26-1.438-.463-2.174-.612.009.815-.042 1.631-.15 2.44.957.013 1.91.111 2.849.297-.085-1.09-.279-2.171-.588-3.223l-.001-.003-.007-.024-.003-.009-.006-.022-.003-.008-.011-.037-.004-.014-.005-.018-.006-.017-.004-.015-.01-.031-.002-.007-.008-.026-.003-.011-.008-.024-.003-.01-.021-.067-.003-.009-.008-.025-.003-.01-.011-.033" fill="#6D396F" sketch:type="MSShapeGroup"/><path d="M11.766 114.255s11.116-8.917 11.628-13.368c0 0 2.504 9.094-1.138 10.599 0 0-6.692 3.557-10.49 2.769" fill="#F8D7E0" sketch:type="MSShapeGroup"/><path d="M12.95 115.463c-.492 0-.965-.041-1.407-.133-.417-.086-.746-.405-.845-.819-.1-.414.049-.847.38-1.114 4.162-3.339 10.889-9.722 11.224-12.636.061-.522.483-.929 1.007-.969.524-.038 1.005.296 1.144.803.282 1.023 2.617 10.013-1.726 11.884-.586.308-5.807 2.984-9.777 2.984zm10.027-11.001c-2.03 3.054-5.64 6.456-8.084 8.596 2.622-.524 5.596-1.878 6.847-2.543l.096-.045c1.316-.543 1.476-3.285 1.141-6.008z" fill="#1B1A19" sketch:type="MSShapeGroup"/><path d="M7.333 95.363s2.037 2.902 0 5.524" fill="#fff" sketch:type="MSShapeGroup"/><path d="M7.332 101.986c-.235 0-.472-.075-.673-.231-.479-.372-.566-1.063-.194-1.542 1.522-1.959-.015-4.196-.031-4.219-.349-.497-.229-1.182.268-1.53.496-.349 1.182-.229 1.53.268.866 1.233 1.974 4.248-.031 6.829-.217.279-.541.425-.869.425" fill="#1B1A19" sketch:type="MSShapeGroup"/><path d="M44.986 70.652c0 2.474-2.573 4.48-5.748 4.48-3.175 0-5.748-2.006-5.748-4.48 0-2.475 2.573-4.481 5.748-4.481 3.175 0 5.748 2.006 5.748 4.481" fill="#A1D8EB" sketch:type="MSShapeGroup"/><path d="M39.238 76.231c-3.776 0-6.847-2.503-6.847-5.579 0-3.076 3.071-5.579 6.847-5.579 3.775 0 6.847 2.503 6.847 5.579 0 3.076-3.072 5.579-6.847 5.579zm0-8.961c-2.564 0-4.649 1.517-4.649 3.382 0 1.865 2.085 3.382 4.649 3.382s4.649-1.517 4.649-3.382c0-1.865-2.085-3.382-4.649-3.382z" fill="#1B1A19" sketch:type="MSShapeGroup"/><path d="M38.85 70.933c0 1.3-1.053 2.354-2.353 2.354-1.3 0-2.354-1.054-2.354-2.354 0-1.299 1.054-2.353 2.354-2.353s2.353 1.054 2.353 2.353" fill="#1B1A19" sketch:type="MSShapeGroup"/><path d="M43.732 67.86s2.269 2.802 5.709-.819" fill="#fff" sketch:type="MSShapeGroup"/><path d="M46.002 69.993l-.164-.003c-1.803-.072-2.847-1.299-2.96-1.439-.382-.471-.309-1.163.162-1.545.469-.379 1.154-.31 1.538.152.035.041.549.616 1.373.637.809.018 1.735-.502 2.693-1.511.418-.44 1.114-.457 1.554-.04.44.418.458 1.114.04 1.554-1.385 1.457-2.809 2.195-4.236 2.195" fill="#1B1A19" sketch:type="MSShapeGroup"/><path d="M61.574 21.147s5.428-2.172 8.143 15.751c0 0-2.166 6.065-8.143 4.797 0 0-.59-18.421 0-20.548" fill="#F8D7E0" sketch:type="MSShapeGroup"/><path d="M63.156 42.967c-.571 0-1.174-.062-1.81-.197-.495-.105-.854-.534-.871-1.039-.099-3.105-.565-18.7.04-20.877.091-.331.332-.6.65-.727.136-.054 1.374-.505 2.968.407 3.064 1.754 5.308 7.204 6.671 16.199.027.18.009.364-.052.535-.761 2.13-3.251 5.699-7.596 5.699zm-.513-2.22c1.699.146 3.176-.418 4.4-1.683.851-.878 1.346-1.86 1.542-2.302-1.65-10.635-4.177-13.538-5.544-14.321-.193-.11-.367-.179-.515-.221-.235 2.931-.073 12.198.117 18.527z" fill="#1B1A19" sketch:type="MSShapeGroup"/><path d="M35.392 12.985c-2.163-2.068-3.94-3.995-5.398-5.788.047-.107.076-.223.091-.343 1.154-.148 2.443-.245 3.89-.277-1.447.032-2.74-.007-3.898-.102-.021-.12-.055-.234-.107-.339 1.376-1.857 3.064-3.863 5.131-6.026-2.067 2.163-3.995 3.941-5.786 5.397-.109-.046-.224-.075-.344-.089-.148-1.154-.246-2.444-.278-3.891.032 1.447-.006 2.74-.102 3.899-.119.02-.233.054-.339.105-1.855-1.374-3.862-3.063-6.025-5.13 2.163 2.067 3.94 3.995 5.397 5.787-.046.109-.075.223-.091.344-1.152.147-2.442.245-3.89.278 1.448-.033 2.741.006 3.899.101.021.12.055.234.106.339-1.374 1.857-3.063 3.862-5.13 6.026 2.067-2.164 3.996-3.94 5.787-5.397.108.046.223.075.344.09.147 1.153.244 2.443.277 3.889-.033-1.446.007-2.739.102-3.898.119-.02.234-.054.34-.105 1.855 1.374 3.861 3.062 6.024 5.13" fill="#fff" sketch:type="MSShapeGroup"/><path d="M41.122 20.082c-7.933 0-9.428-3.063-9.491-3.199l.995-.466c.014.028 1.506 2.8 9.493 2.55l.035 1.099c-.355.011-.7.016-1.032.016" fill="#1B1A19" sketch:type="MSShapeGroup"/><path d="M47.632 25.839c-3.59 0-6.433-.469-8.465-1.396-1.761-.804-2.26-1.68-2.311-1.777l.973-.511-.486.256.48-.266c.017.029 1.757 2.833 10.989 2.578l.03 1.099c-.412.011-.816.017-1.21.017" fill="#1B1A19" sketch:type="MSShapeGroup"/><path d="M55.789 31.784c-11.754 0-14.073-2.78-14.307-3.11l.897-.635-.449.317.441-.328c.023.029 2.413 2.898 15.016 2.641l.022 1.099c-.558.011-1.099.016-1.62.016" fill="#1B1A19" sketch:type="MSShapeGroup"/><path d="M129.537 114.214c.531 1.275.598 2.746.059 4.022h.001c.538-1.276.47-2.747-.06-4.022m-22.923-25.935c-.7.341-1.449.496-2.205.496-.645 0-1.295-.113-1.923-.32.628.207 1.278.32 1.923.32.756 0 1.505-.155 2.205-.496m5.659-3.009c2.495.221 3.621 3.381 4.07 5.925-.449-2.544-1.575-5.704-4.07-5.925m-.279-.012h.029-.029m-14.723-2.906c.286 1.119.722 2.186 1.361 3.15-.639-.964-1.075-2.031-1.361-3.15m-.135-15.376c.067.446.113.893.142 1.341-.029-.448-.075-.895-.142-1.341m-11.717-7.503l.127.007-.127-.007m4.228-.183c-.598 0-1.201.051-1.804.101-.603.051-1.207.101-1.81.101l-.48-.011.481.011c.602 0 1.206-.05 1.809-.101.603-.05 1.206-.101 1.804-.101.488 0 .973.034 1.454.128 1.181.232 2.212.811 3.076 1.611-.864-.8-1.895-1.379-3.076-1.611-.481-.094-.966-.128-1.454-.128m-12.941-16.741c-.473 2.294-.681 4.612-.377 6.933.566 4.323 3.491 8.636 7.581 9.739-4.09-1.103-7.015-5.416-7.581-9.739-.304-2.321-.096-4.639.377-6.933" fill="#804977" sketch:type="MSShapeGroup"/><path d="M80.796 34.882c-.631.071-1.277.177-1.939.32-.816 2.403-1.639 4.861-2.151 7.347-.473 2.294-.681 4.612-.377 6.933.566 4.323 3.491 8.636 7.581 9.739.487.131.99.217 1.509.252l.127.007.007.001.48.011c.603 0 1.207-.05 1.81-.101.603-.05 1.206-.101 1.804-.101.488 0 .973.034 1.454.128 1.181.232 2.212.811 3.076 1.611 1.582 1.466 2.602 3.673 2.944 5.849l.015.098c.067.446.113.893.142 1.341.189 2.898-.326 5.83-.452 8.748-.076 1.763.011 3.585.445 5.287.286 1.119.722 2.186 1.361 3.15l.128.188c.895 1.276 2.251 2.28 3.726 2.765.628.207 1.278.32 1.923.32.756 0 1.505-.155 2.205-.496 1.88-.916 3.296-3.021 5.38-3.021h.033l.246.012c2.495.221 3.621 3.381 4.07 5.925l3.954 22.398c.93-1.601 2.792-2.545 4.631-2.545.759 0 1.513.161 2.197.502 1.102.55 1.94 1.53 2.412 2.664.53 1.275.598 2.746.06 4.022l.15-.139c.094-.301.155-.61.189-.922 1.031-1.421 1.928-2.936 2.692-4.521-.284-1.613-1.283-3.115-2.756-3.851-.683-.341-1.438-.502-2.197-.502-1.839 0-3.701.943-4.631 2.545l-3.954-22.398c-.463-2.626-1.649-5.908-4.316-5.937h-.033c-2.084 0-3.5 2.105-5.38 3.021-.699.341-1.449.496-2.205.496-2.159 0-4.373-1.265-5.649-3.085-1.723-2.457-2.063-5.627-1.934-8.625.147-3.402.823-6.823.295-10.187-.528-3.364-2.678-6.804-6.02-7.46-.481-.094-.966-.128-1.454-.128-.599 0-1.201.051-1.804.101-.603.051-1.207.101-1.809.101-.206 0-.411-.006-.615-.019-4.869-.327-8.456-5.153-9.09-9.991-.393-3.001.071-5.996.854-8.941l-.44-.005c-.466 0-.941.019-1.423.058.257-.795.524-1.586.79-2.37.631-.137 1.246-.24 1.848-.311l.091-.284" fill="#5A2B67" sketch:type="MSShapeGroup"/><path d="M139.247 94.741c-.034 8.727-3.149 17.469-9.5 23.356l-.151.414c6.52-5.95 9.682-14.883 9.651-23.77" fill="#fff" sketch:type="MSShapeGroup"/><path d="M82.786 35.041c-.678 0-1.37.041-2.081.125-.277.871-.54 1.747-.775 2.628 4.742.123 8.789 2.231 13.269 5.185 9.162 6.04 18.393 12.136 26.155 19.892 7.763 7.756 14.05 17.387 16.009 28.184 1.313 7.241.432 15.025-2.735 21.599.149.841.103 1.713-.172 2.522-.826 1.034-1.729 2.012-2.709 2.921 6.351-5.887 9.466-14.629 9.5-23.356-.008-2.161-.205-4.321-.588-6.433-1.959-10.796-8.246-20.428-16.008-28.184-7.763-7.756-16.994-13.852-26.155-19.892-4.619-3.044-8.777-5.191-13.71-5.191" fill="#B98CB3" sketch:type="MSShapeGroup"/><path d="M132.628 112.654c-.764 1.585-1.661 3.1-2.692 4.521-.034.312-.095.621-.189.922.98-.909 1.883-1.887 2.709-2.921.275-.809.321-1.681.172-2.522m-51.923-77.488c-.602.071-1.217.174-1.848.311-.266.784-.533 1.575-.79 2.37.482-.039.957-.058 1.423-.058l.44.005c.235-.881.498-1.757.775-2.628" fill="#9A7E9F" sketch:type="MSShapeGroup"/><path d="M77.698 34.883c-2.398 7.07-4.722 15.416.492 21.839 1.922 2.367 4.663 3.919 7.746 3.972 1.973.034 4.079-.618 5.964.227 1.532.687 2.627 2.129 3.298 3.627 1.678 3.749.67 8.076.452 12.006-.191 3.448.147 7.199 2.297 10.045 1.795 2.377 4.959 3.903 7.945 3.206 1.472-.344 2.58-1.298 3.749-2.191 1.126-.862 2.499-1.732 3.738-.538 1.147 1.105 1.523 2.938 1.805 4.439.468 2.482.879 4.978 1.318 7.466l2.636 14.932c.19 1.078 1.687 1.089 2.196.287 1.089-1.716 3.497-2.518 5.341-1.527 1.872 1.007 2.479 3.343 1.763 5.244-.45 1.192 1.197 1.921 2.008 1.169 11.153-10.339 12.214-27.274 6.554-40.671-6.615-15.653-20.362-26.405-34.073-35.629-3.898-2.622-7.789-5.529-12.114-7.415-3.956-1.724-8.041-2.194-12.275-1.328-1.515.31-.874 2.628.639 2.318 7.994-1.635 14.356 3.05 20.668 7.251 6.898 4.591 13.729 9.35 19.803 15.012 10.606 9.885 19.332 23.421 18.313 38.471-.516 7.618-3.567 15.056-9.214 20.291l2.008 1.169c1.14-3.022-.248-6.704-3.185-8.116-2.967-1.426-6.591-.164-8.311 2.548l2.196.287c-.784-4.444-1.568-8.888-2.353-13.332l-1.035-5.867c-.328-1.855-.537-3.784-1.173-5.568-.865-2.421-2.666-4.83-5.55-4.39-3.054.466-4.625 4.086-7.989 3.335-3.895-.869-5.227-5.047-5.341-8.575-.128-3.95.869-7.866.336-11.814-.398-2.955-1.786-5.923-4.291-7.661-1.334-.926-2.883-1.31-4.494-1.313-1.917-.004-3.8.479-5.678-.128-3.423-1.105-5.628-4.65-6.275-8.035-.928-4.862.863-9.863 2.404-14.404.498-1.468-1.822-2.099-2.318-.639" fill="#1B1A19" sketch:type="MSShapeGroup"/><path d="M142.635 80.894c-3.255-1.444-6.022-2.886-8.376-4.306.009-.138-.005-.28-.037-.421 1.232-.63 2.637-1.258 4.244-1.878-1.607.62-3.07 1.096-4.406 1.457-.072-.126-.156-.239-.256-.337.792-2.633 1.874-5.559 3.317-8.815-1.443 3.256-2.885 6.023-4.304 8.376-.14-.008-.281.006-.422.038-.63-1.232-1.259-2.637-1.879-4.244.62 1.607 1.097 3.07 1.458 4.407-.126.07-.239.154-.338.254-2.631-.791-5.558-1.874-8.814-3.317 3.256 1.443 6.023 2.886 8.376 4.306-.008.14.005.28.037.421-1.232.63-2.636 1.259-4.244 1.879 1.608-.62 3.071-1.098 4.406-1.458.072.126.156.24.255.337-.79 2.633-1.872 5.559-3.316 8.815 1.444-3.256 2.887-6.022 4.305-8.375.141.007.281-.007.422-.039.629 1.232 1.258 2.638 1.878 4.244-.62-1.606-1.097-3.07-1.457-4.406.126-.071.24-.155.338-.255 2.631.792 5.558 1.873 8.813 3.317" fill="#fff" sketch:type="MSShapeGroup"/><path d="M308.707 111.901c8.961-6.228 20.95-7.71 31.017-3.298 9.807 4.297 16.566 13.069 18.84 23.446 2.63 12.002.366 24.43 2.339 36.514 1.603 9.815 6.782 20.003 16.502 23.867 8.733 3.471 21.023-1.133 22.579-11.171.194-1.248-1.495-2.223-2.196-.926-5.506 10.178-11.439 21.319-21.787 27.337-4.681 2.722-10.108 4.358-15.555 3.976-5.335-.374-10.088-2.981-13.661-6.891-3.52-3.853-5.875-8.688-7.627-13.561-2.069-5.755-3.489-11.777-4.566-17.789-1.191-6.644-1.84-13.382-1.964-20.131-.122-6.645.83-13.395-.037-20.007-.732-5.575-3.218-11.342-8.197-14.375-2.871-1.748-6.193-1.923-9.36-2.795-2.491-.685-6.622-3.206-5.155-6.416.639-1.397-1.432-2.62-2.075-1.213-1.127 2.465-.392 4.972 1.363 6.944 1.97 2.214 4.78 2.977 7.585 3.534 3.018.6 5.889 1.222 8.218 3.372 2.113 1.951 3.551 4.553 4.4 7.281 2.027 6.517.89 13.594.837 20.291-.056 7.052.477 14.103 1.553 21.072 1.019 6.598 2.481 13.194 4.613 19.527 1.716 5.094 3.975 10.079 7.32 14.32 3.33 4.222 7.86 7.515 13.158 8.717 5.49 1.245 11.24.36 16.382-1.803 13.037-5.485 20.221-18.327 26.63-30.177l-2.197-.926c-1.422 9.174-12.752 12.76-20.429 9.137-10.021-4.73-13.757-16.325-14.572-26.571-.935-11.747.873-23.878-2.72-35.31-2.961-9.423-9.945-17.357-19.008-21.349-10.825-4.768-23.738-3.447-33.444 3.298-1.261.877-.061 2.962 1.214 2.076" fill="#1B1A19" sketch:type="MSShapeGroup"/><path d="M377.252 201.258c-1.386-4.164-2.368-7.881-3.028-11.204.133-.107.25-.237.353-.383 1.596.6 3.334 1.359 5.232 2.308-1.898-.949-3.546-1.888-4.983-2.805.055-.17.088-.34.094-.513 3.056-1.464 6.62-2.906 10.783-4.293-4.163 1.387-7.881 2.37-11.202 3.029-.109-.134-.238-.251-.384-.352.599-1.597 1.357-3.336 2.307-5.234-.95 1.898-1.887 3.548-2.805 4.985-.169-.056-.339-.09-.512-.097-1.463-3.053-2.906-6.618-4.293-10.782 1.387 4.164 2.369 7.881 3.028 11.204-.134.108-.25.237-.353.383-1.595-.599-3.334-1.357-5.234-2.307 1.9.95 3.549 1.887 4.985 2.804-.055.17-.089.342-.095.513-3.054 1.464-6.618 2.907-10.782 4.293 4.164-1.386 7.882-2.367 11.202-3.028.11.134.239.25.385.352-.6 1.596-1.358 3.335-2.308 5.233.95-1.898 1.887-3.547 2.806-4.984.168.056.34.09.512.097 1.463 3.054 2.906 6.617 4.292 10.781" fill="#fff" sketch:type="MSShapeGroup"/><path d="M336.104 119.057c-.201-3.666-.175-6.882.024-9.709.132-.057.255-.136.37-.231 1.156.835 2.392 1.831 3.714 3.015-1.322-1.184-2.446-2.305-3.404-3.362.082-.125.147-.255.189-.392 2.789-.509 5.983-.888 9.648-1.09-3.665.202-6.882.176-9.707-.023-.059-.132-.138-.255-.233-.369.835-1.156 1.83-2.393 3.015-3.715-1.185 1.322-2.304 2.447-3.362 3.405-.124-.083-.254-.148-.392-.192-.508-2.785-.887-5.98-1.089-9.646.202 3.666.176 6.882-.024 9.708-.132.058-.255.137-.37.232-1.155-.835-2.392-1.829-3.715-3.015 1.323 1.186 2.448 2.305 3.405 3.361-.082.125-.147.256-.189.393-2.788.509-5.981.888-9.647 1.09 3.666-.202 6.882-.175 9.707.023.059.133.137.255.233.369-.836 1.156-1.831 2.392-3.015 3.714 1.184-1.322 2.304-2.446 3.362-3.403.123.082.254.147.392.191.507 2.787.887 5.98 1.088 9.646" fill="#fff" sketch:type="MSShapeGroup"/><path d="M61.352 35.536c-8.408-2.987-18.551 1.234-22.333 9.322-.418.891.278 2.095 1.357 1.765 1.985-.607 5.364-1.705 6.738.63.603 1.022-.035 1.958-.408 2.937-.321.843-.505 1.738-.281 2.634 1.041 4.159 6.103 3.905 8.937 1.96 6.242-4.286 8.822-12.812 6.602-19.94-.459-1.472-2.78-.843-2.318.639 1.046 3.357.926 6.918-.283 10.219-1.143 3.121-3.599 6.737-6.869 7.893-1.655.586-4.287-.136-3.627-2.352.513-1.72 1.401-3.076.5-4.875-1.87-3.732-6.35-3.066-9.63-2.063l1.357 1.766c3.36-7.185 12.139-10.874 19.619-8.217 1.46.519 2.089-1.803.639-2.318" fill="#1B1A19" sketch:type="MSShapeGroup"/><path d="M53.087 45.561c-2.736-1.213-5.06-2.425-7.039-3.618.008-.117-.004-.236-.03-.354 1.035-.529 2.216-1.057 3.566-1.578-1.35.521-2.581.921-3.703 1.224-.06-.106-.131-.201-.215-.283.665-2.213 1.575-4.671 2.788-7.407-1.213 2.736-2.425 5.061-3.617 7.038-.118-.007-.237.005-.354.032-.53-1.035-1.059-2.216-1.579-3.566.52 1.35.921 2.58 1.224 3.703-.106.059-.201.129-.284.213-2.21-.664-4.67-1.574-7.406-2.787 2.736 1.213 5.061 2.425 7.038 3.618-.007.118.005.236.031.354-1.034.529-2.215 1.058-3.566 1.579 1.351-.521 2.581-.922 3.703-1.225.06.106.131.202.214.283-.664 2.212-1.574 4.671-2.787 7.407 1.213-2.736 2.426-5.06 3.618-7.038.118.007.236-.005.354-.032.529 1.035 1.058 2.216 1.578 3.566-.52-1.35-.921-2.58-1.224-3.702.106-.06.202-.13.284-.214 2.212.665 4.67 1.574 7.406 2.787" fill="#fff" sketch:type="MSShapeGroup"/></g></svg>